<?xml version="1.0" standalone="no"?>
<!DOCTYPE svg PUBLIC "-//W3C//DTD SVG 1.1//EN" "http://www.w3.org/Graphics/SVG/1.1/DTD/svg11.dtd" >
<svg xmlns="http://www.w3.org/2000/svg" xmlns:xlink="http://www.w3.org/1999/xlink" version="1.1">
<metadata>
Created by FontForge 20170731 at Wed Oct 10 22:28:26 2018
 By Aleksey,,,
Copyright (c) 2018 by Peter Wiegel.   Open Font under Terms of following Free Software Licenses:
GPL (General Public License) with font-exception and OFL (Open Font License
</metadata>
<defs>
<font id="5mal6Lampen" horiz-adv-x="2203" >
  <font-face 
    font-family="5mal6Lampen"
    font-weight="400"
    font-stretch="normal"
    units-per-em="4096"
    panose-1="0 0 0 0 0 0 0 0 0 0"
    ascent="3276"
    descent="-820"
    x-height="2168"
    cap-height="2172"
    bbox="191 -741 2358 2908"
    underline-thickness="50"
    underline-position="-150"
    unicode-range="U+000D-20AC"
  />
<missing-glyph 
 />
    <glyph glyph-name=".notdef" 
 />
    <glyph glyph-name=".null" horiz-adv-x="0" 
 />
    <glyph glyph-name="nonmarkingreturn" unicode="&#xd;" 
 />
    <glyph glyph-name="NULL" horiz-adv-x="0" 
 />
    <glyph glyph-name="NULL" horiz-adv-x="0" 
 />
    <glyph glyph-name="space" unicode=" " 
 />
    <glyph glyph-name="exclam" unicode="!" 
d="M1102 0q-34 0 -63.5 13t-52 35.5t-35.5 52t-13 63.5q0 33 13 62.5t35.5 52t52.5 36t63 13.5q53 0 88.5 -24.5t53.5 -60.5t18 -79t-18 -79t-53.5 -60.5t-88.5 -24.5zM1102 736q-33 0 -63 13t-52.5 35.5t-35.5 52.5t-13 63q0 34 13 63.5t35.5 52t52 35.5t63.5 13
q53 0 88.5 -24.5t53.5 -60.5t18 -79t-18 -79t-53.5 -60.5t-88.5 -24.5zM1102 1104q-33 0 -63 13t-52.5 35.5t-35.5 52.5t-13 63q0 34 13 63.5t35.5 52t52 35.5t63.5 13q53 0 88.5 -24.5t53.5 -60.5t18 -79t-18 -79t-53.5 -60.5t-88.5 -24.5zM1102 1476q-34 0 -63.5 13
t-52 35.5t-35.5 52t-13 63.5q0 33 13 62.5t35.5 52t52.5 36t63 13.5q53 0 88.5 -24.5t53.5 -60.5t18 -79t-18 -79t-53.5 -60.5t-88.5 -24.5zM1102 1844q-34 0 -63.5 13t-52 35.5t-35.5 52t-13 63.5q0 36 12.5 65t34.5 50t52 32.5t65 11.5q54 0 90 -24t53.5 -60t17 -77.5
t-18.5 -77.5t-53.5 -60t-88.5 -24z" />
    <glyph glyph-name="quotedbl" unicode="&#x22;" 
d="M734 1476q-34 0 -63.5 13t-52 35.5t-35.5 52t-13 63.5q0 33 13 62.5t35.5 52t52.5 36t63 13.5q53 0 88.5 -24.5t53.5 -60.5t18 -79t-18 -79t-53.5 -60.5t-88.5 -24.5zM734 1844q-34 0 -63.5 13t-52 35.5t-35.5 52t-13 63.5q0 36 12.5 65t34.5 50t52 32.5t65 11.5
q54 0 90 -24t53.5 -60t17 -77.5t-18.5 -77.5t-53.5 -60t-88.5 -24zM1470 1476q-34 0 -63.5 13t-52 35.5t-35.5 52t-13 63.5q0 33 13 62.5t35.5 52t52.5 36t63 13.5q34 0 63.5 -13t52 -35.5t35.5 -52t13 -63.5t-13 -64t-35 -52t-52 -35t-64 -13zM1470 1844q-34 0 -63.5 13
t-52 35.5t-35.5 52t-13 63.5q0 36 12.5 65t34.5 50t52 32.5t65 11.5t65 -11.5t52 -32.5t34.5 -50t12.5 -65q0 -34 -13 -64t-35 -52t-52 -35t-64 -13z" />
    <glyph glyph-name="numbersign" unicode="#" 
d="M366 368q-34 0 -63.5 13t-52 35.5t-35.5 52t-13 63.5t13 64t35 52t52 35t64 13t63.5 -13t52 -35.5t35.5 -52t13 -63.5q0 -33 -13.5 -63t-36 -52.5t-52 -35.5t-62.5 -13zM366 1104q-34 0 -63.5 13t-52 35.5t-35.5 52t-13 63.5t13 64t35 52t52 35t64 13t63.5 -13t52 -35.5
t35.5 -52t13 -63.5q0 -33 -13.5 -63t-36 -52.5t-52 -35.5t-62.5 -13zM734 0q-34 0 -63.5 13t-52 35.5t-35.5 52t-13 63.5q0 33 13 62.5t35.5 52t52.5 36t63 13.5q34 0 63.5 -13t52 -35.5t35.5 -52t13 -63.5t-13 -64t-35 -52t-52 -35t-64 -13zM734 368q-33 0 -63 13
t-52.5 35.5t-35.5 52.5t-13 63q0 34 13 63.5t35.5 52t52 35.5t63.5 13t64 -13t52 -35t35 -52t13 -64t-13 -63.5t-35.5 -52t-52 -35.5t-63.5 -13zM734 736q-33 0 -63 13t-52.5 35.5t-35.5 52.5t-13 63q0 34 13 63.5t35.5 52t52 35.5t63.5 13t64 -13t52 -35t35 -52t13 -64
t-13 -63.5t-35.5 -52t-52 -35.5t-63.5 -13zM734 1104q-33 0 -63 13t-52.5 35.5t-35.5 52.5t-13 63q0 34 13 63.5t35.5 52t52 35.5t63.5 13t64 -13t52 -35t35 -52t13 -64t-13 -63.5t-35.5 -52t-52 -35.5t-63.5 -13zM734 1476q-34 0 -63.5 13t-52 35.5t-35.5 52t-13 63.5
q0 33 13 62.5t35.5 52t52.5 36t63 13.5q34 0 63.5 -13t52 -35.5t35.5 -52t13 -63.5t-13 -64t-35 -52t-52 -35t-64 -13zM1102 368q-33 0 -63 13t-52.5 35.5t-35.5 52.5t-13 63q0 34 13 63.5t35.5 52t52 35.5t63.5 13t64 -13t52 -35t35 -52t13 -64t-13 -63.5t-35.5 -52
t-52 -35.5t-63.5 -13zM1102 1104q-33 0 -63 13t-52.5 35.5t-35.5 52.5t-13 63q0 34 13 63.5t35.5 52t52 35.5t63.5 13t64 -13t52 -35t35 -52t13 -64t-13 -63.5t-35.5 -52t-52 -35.5t-63.5 -13zM1470 0q-34 0 -63.5 13t-52 35.5t-35.5 52t-13 63.5q0 33 13 62.5t35.5 52
t52.5 36t63 13.5q34 0 63.5 -13t52 -35.5t35.5 -52t13 -63.5t-13 -64t-35 -52t-52 -35t-64 -13zM1470 368q-33 0 -63 13t-52.5 35.5t-35.5 52.5t-13 63q0 34 13 63.5t35.5 52t52 35.5t63.5 13t64 -13t52 -35t35 -52t13 -64t-13 -63.5t-35.5 -52t-52 -35.5t-63.5 -13z
M1470 736q-33 0 -63 13t-52.5 35.5t-35.5 52.5t-13 63q0 34 13 63.5t35.5 52t52 35.5t63.5 13t64 -13t52 -35t35 -52t13 -64t-13 -63.5t-35.5 -52t-52 -35.5t-63.5 -13zM1470 1104q-33 0 -63 13t-52.5 35.5t-35.5 52.5t-13 63q0 34 13 63.5t35.5 52t52 35.5t63.5 13t64 -13
t52 -35t35 -52t13 -64t-13 -63.5t-35.5 -52t-52 -35.5t-63.5 -13zM1470 1476q-34 0 -63.5 13t-52 35.5t-35.5 52t-13 63.5q0 33 13 62.5t35.5 52t52.5 36t63 13.5q34 0 63.5 -13t52 -35.5t35.5 -52t13 -63.5t-13 -64t-35 -52t-52 -35t-64 -13zM1842 368q-34 0 -63.5 13
t-52 35.5t-35.5 52t-13 63.5t13 64t35 52t52 35t64 13q36 0 65 -12.5t50 -34.5t32.5 -52t11.5 -65t-11.5 -65t-32.5 -52t-50 -34.5t-65 -12.5zM1842 1104q-34 0 -63.5 13t-52 35.5t-35.5 52t-13 63.5t13 64t35 52t52 35t64 13q36 0 65 -12.5t50 -34.5t32.5 -52t11.5 -65
t-11.5 -65t-32.5 -52t-50 -34.5t-65 -12.5z" />
    <glyph glyph-name="dollar" unicode="$" 
d="M366 368q-34 0 -63.5 13t-52 35.5t-35.5 52t-13 63.5t13 64t35 52t52 35t64 13t63.5 -13t52 -35.5t35.5 -52t13 -63.5q0 -33 -13.5 -63t-36 -52.5t-52 -35.5t-62.5 -13zM366 1104q-34 0 -63.5 13t-52 35.5t-35.5 52t-13 63.5t13 64t35 52t52 35t64 13t63.5 -13t52 -35.5
t35.5 -52t13 -63.5q0 -33 -13.5 -63t-36 -52.5t-52 -35.5t-62.5 -13zM734 0q-34 0 -63.5 13t-52 35.5t-35.5 52t-13 63.5q0 33 13 62.5t35.5 52t52.5 36t63 13.5q34 0 63.5 -13t52 -35.5t35.5 -52t13 -63.5t-13 -64t-35 -52t-52 -35t-64 -13zM734 736q-33 0 -63 13
t-52.5 35.5t-35.5 52.5t-13 63q0 34 13 63.5t35.5 52t52 35.5t63.5 13t64 -13t52 -35t35 -52t13 -64t-13 -63.5t-35.5 -52t-52 -35.5t-63.5 -13zM734 1476q-34 0 -63.5 13t-52 35.5t-35.5 52t-13 63.5q0 33 13 62.5t35.5 52t52.5 36t63 13.5q34 0 63.5 -13t52 -35.5
t35.5 -52t13 -63.5t-13 -64t-35 -52t-52 -35t-64 -13zM1102 0q-34 0 -63.5 13t-52 35.5t-35.5 52t-13 63.5q0 33 13 62.5t35.5 52t52.5 36t63 13.5q34 0 63.5 -13t52 -35.5t35.5 -52t13 -63.5t-13 -64t-35 -52t-52 -35t-64 -13zM1102 368q-33 0 -63 13t-52.5 35.5
t-35.5 52.5t-13 63q0 34 13 63.5t35.5 52t52 35.5t63.5 13t64 -13t52 -35t35 -52t13 -64t-13 -63.5t-35.5 -52t-52 -35.5t-63.5 -13zM1102 736q-33 0 -63 13t-52.5 35.5t-35.5 52.5t-13 63q0 34 13 63.5t35.5 52t52 35.5t63.5 13t64 -13t52 -35t35 -52t13 -64t-13 -63.5
t-35.5 -52t-52 -35.5t-63.5 -13zM1102 1104q-33 0 -63 13t-52.5 35.5t-35.5 52.5t-13 63q0 34 13 63.5t35.5 52t52 35.5t63.5 13t64 -13t52 -35t35 -52t13 -64t-13 -63.5t-35.5 -52t-52 -35.5t-63.5 -13zM1102 1476q-34 0 -63.5 13t-52 35.5t-35.5 52t-13 63.5q0 33 13 62.5
t35.5 52t52.5 36t63 13.5q34 0 63.5 -13t52 -35.5t35.5 -52t13 -63.5t-13 -64t-35 -52t-52 -35t-64 -13zM1102 1844q-34 0 -63.5 13t-52 35.5t-35.5 52t-13 63.5q0 36 12.5 65t34.5 50t52 32.5t65 11.5t65 -11.5t52 -32.5t34.5 -50t12.5 -65q0 -34 -13 -64t-35 -52t-52 -35
t-64 -13zM1470 0q-34 0 -63.5 13t-52 35.5t-35.5 52t-13 63.5q0 33 13 62.5t35.5 52t52.5 36t63 13.5q34 0 63.5 -13t52 -35.5t35.5 -52t13 -63.5t-13 -64t-35 -52t-52 -35t-64 -13zM1470 736q-33 0 -63 13t-52.5 35.5t-35.5 52.5t-13 63q0 34 13 63.5t35.5 52t52 35.5
t63.5 13t64 -13t52 -35t35 -52t13 -64t-13 -63.5t-35.5 -52t-52 -35.5t-63.5 -13zM1470 1476q-34 0 -63.5 13t-52 35.5t-35.5 52t-13 63.5q0 33 13 62.5t35.5 52t52.5 36t63 13.5q34 0 63.5 -13t52 -35.5t35.5 -52t13 -63.5t-13 -64t-35 -52t-52 -35t-64 -13zM1842 368
q-34 0 -63.5 13t-52 35.5t-35.5 52t-13 63.5t13 64t35 52t52 35t64 13q36 0 65 -12.5t50 -34.5t32.5 -52t11.5 -65t-11.5 -65t-32.5 -52t-50 -34.5t-65 -12.5zM1842 1476q-34 0 -64 13t-52 35t-35 52t-13 64t13 63.5t35.5 52t52 35.5t63.5 13q36 0 65.5 -12.5t50 -35t32 -53
t11.5 -65.5q0 -36 -11.5 -65.5t-32 -51t-50 -33.5t-65.5 -12z" />
    <glyph glyph-name="percent" unicode="%" 
d="M366 0q-34 0 -64 13t-52 35t-35 52t-13 64t13 63.5t35.5 52t52 35.5t63.5 13q33 0 62.5 -13.5t52 -36t36 -52t13.5 -62.5q0 -34 -13 -63.5t-35.5 -52t-52 -35.5t-63.5 -13zM366 368q-34 0 -63.5 13t-52 35.5t-35.5 52t-13 63.5t13 64t35 52t52 35t64 13t63.5 -13
t52 -35.5t35.5 -52t13 -63.5q0 -33 -13.5 -63t-36 -52.5t-52 -35.5t-62.5 -13zM734 736q-33 0 -63 13t-52.5 35.5t-35.5 52.5t-13 63q0 34 13 63.5t35.5 52t52 35.5t63.5 13t64 -13t52 -35t35 -52t13 -64t-13 -63.5t-35.5 -52t-52 -35.5t-63.5 -13zM1102 1104q-33 0 -63 13
t-52.5 35.5t-35.5 52.5t-13 63q0 34 13 63.5t35.5 52t52 35.5t63.5 13t64 -13t52 -35t35 -52t13 -64t-13 -63.5t-35.5 -52t-52 -35.5t-63.5 -13zM1470 1476q-34 0 -63.5 13t-52 35.5t-35.5 52t-13 63.5q0 33 13 62.5t35.5 52t52.5 36t63 13.5q34 0 63.5 -13t52 -35.5
t35.5 -52t13 -63.5t-13 -64t-35 -52t-52 -35t-64 -13zM1842 1844q-34 0 -64 13t-52 35t-35 52t-13 64q0 35 12 64.5t34 50.5t51.5 33t64.5 12q36 0 65.5 -12t50.5 -33.5t33 -51t12 -65.5t-11.5 -65.5t-32 -51t-50 -33.5t-65.5 -12zM366 1476q-34 0 -64 13t-52 35t-35 52
t-13 64t13 63.5t35.5 52t52 35.5t63.5 13q33 0 62.5 -13.5t52 -36t36 -52t13.5 -62.5q0 -34 -13 -63.5t-35.5 -52t-52 -35.5t-63.5 -13zM366 1844q-34 0 -64 13t-52 35t-35 52t-13 64q0 36 12.5 65t34.5 50t52 32.5t65 11.5t65 -11.5t52 -32.5t34.5 -50t12.5 -65
q0 -34 -13 -63.5t-35.5 -52t-52 -35.5t-63.5 -13zM734 1476q-34 0 -63.5 13t-52 35.5t-35.5 52t-13 63.5q0 33 13 62.5t35.5 52t52.5 36t63 13.5q34 0 63.5 -13t52 -35.5t35.5 -52t13 -63.5t-13 -64t-35 -52t-52 -35t-64 -13zM734 1844q-34 0 -63.5 13t-52 35.5t-35.5 52
t-13 63.5q0 36 12.5 65t34.5 50t52 32.5t65 11.5t65 -11.5t52 -32.5t34.5 -50t12.5 -65q0 -34 -13 -64t-35 -52t-52 -35t-64 -13zM1470 0q-34 0 -63.5 13t-52 35.5t-35.5 52t-13 63.5q0 33 13 62.5t35.5 52t52.5 36t63 13.5q34 0 63.5 -13t52 -35.5t35.5 -52t13 -63.5
t-13 -64t-35 -52t-52 -35t-64 -13zM1470 368q-33 0 -63 13t-52.5 35.5t-35.5 52.5t-13 63q0 34 13 63.5t35.5 52t52 35.5t63.5 13t64 -13t52 -35t35 -52t13 -64t-13 -63.5t-35.5 -52t-52 -35.5t-63.5 -13zM1842 0q-34 0 -64 13t-52 35t-35 52t-13 64t13 63.5t35.5 52
t52 35.5t63.5 13q36 0 65.5 -12.5t50 -35t32 -53t11.5 -65.5q0 -36 -11.5 -65.5t-32 -51t-50 -33.5t-65.5 -12zM1842 368q-34 0 -63.5 13t-52 35.5t-35.5 52t-13 63.5t13 64t35 52t52 35t64 13q36 0 65 -12.5t50 -34.5t32.5 -52t11.5 -65t-11.5 -65t-32.5 -52t-50 -34.5
t-65 -12.5z" />
    <glyph glyph-name="ampersand" unicode="&#x26;" 
d="M366 368q-34 0 -63.5 13t-52 35.5t-35.5 52t-13 63.5t13 64t35 52t52 35t64 13t63.5 -13t52 -35.5t35.5 -52t13 -63.5q0 -33 -13.5 -63t-36 -52.5t-52 -35.5t-62.5 -13zM366 736q-34 0 -63.5 13t-52 35.5t-35.5 52t-13 63.5t13 64t35 52t52 35t64 13t63.5 -13t52 -35.5
t35.5 -52t13 -63.5q0 -33 -13.5 -63t-36 -52.5t-52 -35.5t-62.5 -13zM366 1476q-34 0 -64 13t-52 35t-35 52t-13 64t13 63.5t35.5 52t52 35.5t63.5 13q33 0 62.5 -13.5t52 -36t36 -52t13.5 -62.5q0 -34 -13 -63.5t-35.5 -52t-52 -35.5t-63.5 -13zM734 0q-34 0 -63.5 13
t-52 35.5t-35.5 52t-13 63.5q0 33 13 62.5t35.5 52t52.5 36t63 13.5q34 0 63.5 -13t52 -35.5t35.5 -52t13 -63.5t-13 -64t-35 -52t-52 -35t-64 -13zM734 1104q-33 0 -63 13t-52.5 35.5t-35.5 52.5t-13 63q0 34 13 63.5t35.5 52t52 35.5t63.5 13t64 -13t52 -35t35 -52t13 -64
t-13 -63.5t-35.5 -52t-52 -35.5t-63.5 -13zM734 1844q-34 0 -63.5 13t-52 35.5t-35.5 52t-13 63.5q0 36 12.5 65t34.5 50t52 32.5t65 11.5t65 -11.5t52 -32.5t34.5 -50t12.5 -65q0 -34 -13 -64t-35 -52t-52 -35t-64 -13zM1102 368q-33 0 -63 13t-52.5 35.5t-35.5 52.5
t-13 63q0 34 13 63.5t35.5 52t52 35.5t63.5 13t64 -13t52 -35t35 -52t13 -64t-13 -63.5t-35.5 -52t-52 -35.5t-63.5 -13zM1102 736q-33 0 -63 13t-52.5 35.5t-35.5 52.5t-13 63q0 34 13 63.5t35.5 52t52 35.5t63.5 13t64 -13t52 -35t35 -52t13 -64t-13 -63.5t-35.5 -52
t-52 -35.5t-63.5 -13zM1102 1476q-34 0 -63.5 13t-52 35.5t-35.5 52t-13 63.5q0 33 13 62.5t35.5 52t52.5 36t63 13.5q34 0 63.5 -13t52 -35.5t35.5 -52t13 -63.5t-13 -64t-35 -52t-52 -35t-64 -13zM1470 368q-33 0 -63 13t-52.5 35.5t-35.5 52.5t-13 63q0 34 13 63.5
t35.5 52t52 35.5t63.5 13t64 -13t52 -35t35 -52t13 -64t-13 -63.5t-35.5 -52t-52 -35.5t-63.5 -13zM1842 0q-34 0 -64 13t-52 35t-35 52t-13 64t13 63.5t35.5 52t52 35.5t63.5 13q36 0 65.5 -12.5t50 -35t32 -53t11.5 -65.5q0 -36 -11.5 -65.5t-32 -51t-50 -33.5t-65.5 -12z
M1842 736q-34 0 -63.5 13t-52 35.5t-35.5 52t-13 63.5t13 64t35 52t52 35t64 13q36 0 65 -12.5t50 -34.5t32.5 -52t11.5 -65t-11.5 -65t-32.5 -52t-50 -34.5t-65 -12.5z" />
    <glyph glyph-name="quotesingle" unicode="'" 
d="M1102 1476q-34 0 -63.5 13t-52 35.5t-35.5 52t-13 63.5q0 33 13 62.5t35.5 52t52.5 36t63 13.5q34 0 63.5 -13t52 -35.5t35.5 -52t13 -63.5t-13 -64t-35 -52t-52 -35t-64 -13zM1102 1844q-34 0 -63.5 13t-52 35.5t-35.5 52t-13 63.5q0 36 12.5 65t34.5 50t52 32.5
t65 11.5t65 -11.5t52 -32.5t34.5 -50t12.5 -65q0 -34 -13 -64t-35 -52t-52 -35t-64 -13z" />
    <glyph glyph-name="parenleft" unicode="(" 
d="M734 368q-33 0 -63 13t-52.5 35.5t-35.5 52.5t-13 63q0 34 13 63.5t35.5 52t52 35.5t63.5 13q53 0 88.5 -24.5t53.5 -60.5t18 -79t-18 -79t-53.5 -60.5t-88.5 -24.5zM734 736q-33 0 -63 13t-52.5 35.5t-35.5 52.5t-13 63q0 34 13 63.5t35.5 52t52 35.5t63.5 13
q53 0 88.5 -24.5t53.5 -60.5t18 -79t-18 -79t-53.5 -60.5t-88.5 -24.5zM734 1104q-33 0 -63 13t-52.5 35.5t-35.5 52.5t-13 63q0 34 13 63.5t35.5 52t52 35.5t63.5 13q53 0 88.5 -24.5t53.5 -60.5t18 -79t-18 -79t-53.5 -60.5t-88.5 -24.5zM735 1833q-34 0 -63.5 13
t-52 35.5t-35.5 52t-13 63.5q0 33 13 62.5t35.5 52t52.5 36t63 13.5q53 0 88.5 -24.5t53.5 -60.5t18 -79t-18 -79t-53.5 -60.5t-88.5 -24.5zM1102 0q-34 0 -63.5 13t-52 35.5t-35.5 52t-13 63.5q0 33 13 62.5t35.5 52t52.5 36t63 13.5q34 0 63.5 -13t52 -35.5t35.5 -52
t13 -63.5t-13 -64t-35 -52t-52 -35t-64 -13zM1103 2201q-34 0 -63.5 13t-52 35.5t-35.5 52t-13 63.5q0 36 12.5 65t34.5 50t52 32.5t65 11.5t65 -11.5t52 -32.5t34.5 -50t12.5 -65q0 -34 -13 -64t-35 -52t-52 -35t-64 -13zM734 1476q-34 0 -63.5 13t-52 35.5t-35.5 52
t-13 63.5q0 33 13 62.5t35.5 52t52.5 36t63 13.5q53 0 88.5 -24.5t53.5 -60.5t18 -79t-18 -79t-53.5 -60.5t-88.5 -24.5z" />
    <glyph glyph-name="parenright" unicode=")" 
d="M1102 0q-34 0 -63.5 13t-52 35.5t-35.5 52t-13 63.5q0 33 13 62.5t35.5 52t52.5 36t63 13.5q34 0 63.5 -13t52 -35.5t35.5 -52t13 -63.5t-13 -64t-35 -52t-52 -35t-64 -13zM1102 2201q-34 0 -63.5 13t-52 35.5t-35.5 52t-13 63.5q0 36 12.5 65t34.5 50t52 32.5t65 11.5
t65 -11.5t52 -32.5t34.5 -50t12.5 -65q0 -34 -13 -64t-35 -52t-52 -35t-64 -13zM1470 368q-33 0 -63 13t-52.5 35.5t-35.5 52.5t-13 63q0 34 13 63.5t35.5 52t52 35.5t63.5 13t64 -13t52 -35t35 -52t13 -64t-13 -63.5t-35.5 -52t-52 -35.5t-63.5 -13zM1470 736q-33 0 -63 13
t-52.5 35.5t-35.5 52.5t-13 63q0 34 13 63.5t35.5 52t52 35.5t63.5 13t64 -13t52 -35t35 -52t13 -64t-13 -63.5t-35.5 -52t-52 -35.5t-63.5 -13zM1470 1104q-33 0 -63 13t-52.5 35.5t-35.5 52.5t-13 63q0 34 13 63.5t35.5 52t52 35.5t63.5 13t64 -13t52 -35t35 -52t13 -64
t-13 -63.5t-35.5 -52t-52 -35.5t-63.5 -13zM1467 1840q-34 0 -63.5 13t-52 35.5t-35.5 52t-13 63.5q0 33 13 62.5t35.5 52t52.5 36t63 13.5q34 0 63.5 -13t52 -35.5t35.5 -52t13 -63.5t-13 -64t-35 -52t-52 -35t-64 -13zM1466 1473q-34 0 -63.5 13t-52 35.5t-35.5 52
t-13 63.5q0 33 13 62.5t35.5 52t52.5 36t63 13.5q53 0 88.5 -24.5t53.5 -60.5t18 -79t-18 -79t-53.5 -60.5t-88.5 -24.5z" />
    <glyph glyph-name="asterisk" unicode="*" 
d="M734 1476q-34 0 -63.5 13t-52 35.5t-35.5 52t-13 63.5q0 33 13 62.5t35.5 52t52.5 36t63 13.5q34 0 63.5 -13t52 -35.5t35.5 -52t13 -63.5t-13 -64t-35 -52t-52 -35t-64 -13zM1102 1104q-33 0 -63 13t-52.5 35.5t-35.5 52.5t-13 63q0 34 13 63.5t35.5 52t52 35.5t63.5 13
t64 -13t52 -35t35 -52t13 -64t-13 -63.5t-35.5 -52t-52 -35.5t-63.5 -13zM1102 1476q-34 0 -63.5 13t-52 35.5t-35.5 52t-13 63.5q0 33 13 62.5t35.5 52t52.5 36t63 13.5q34 0 63.5 -13t52 -35.5t35.5 -52t13 -63.5t-13 -64t-35 -52t-52 -35t-64 -13zM1102 1844
q-34 0 -63.5 13t-52 35.5t-35.5 52t-13 63.5q0 36 12.5 65t34.5 50t52 32.5t65 11.5t65 -11.5t52 -32.5t34.5 -50t12.5 -65q0 -34 -13 -64t-35 -52t-52 -35t-64 -13zM1470 1476q-34 0 -63.5 13t-52 35.5t-35.5 52t-13 63.5q0 33 13 62.5t35.5 52t52.5 36t63 13.5
q34 0 63.5 -13t52 -35.5t35.5 -52t13 -63.5t-13 -64t-35 -52t-52 -35t-64 -13z" />
    <glyph glyph-name="plus" unicode="+" 
d="M734 1104q-33 0 -63 13t-52.5 35.5t-35.5 52.5t-13 63q0 34 13 63.5t35.5 52t52 35.5t63.5 13t64 -13t52 -35t35 -52t13 -64t-13 -63.5t-35.5 -52t-52 -35.5t-63.5 -13zM1102 736q-33 0 -63 13t-52.5 35.5t-35.5 52.5t-13 63q0 34 13 63.5t35.5 52t52 35.5t63.5 13
t64 -13t52 -35t35 -52t13 -64t-13 -63.5t-35.5 -52t-52 -35.5t-63.5 -13zM1102 1104q-33 0 -63 13t-52.5 35.5t-35.5 52.5t-13 63q0 34 13 63.5t35.5 52t52 35.5t63.5 13t64 -13t52 -35t35 -52t13 -64t-13 -63.5t-35.5 -52t-52 -35.5t-63.5 -13zM1102 1476q-34 0 -63.5 13
t-52 35.5t-35.5 52t-13 63.5q0 33 13 62.5t35.5 52t52.5 36t63 13.5q34 0 63.5 -13t52 -35.5t35.5 -52t13 -63.5t-13 -64t-35 -52t-52 -35t-64 -13zM1470 1104q-33 0 -63 13t-52.5 35.5t-35.5 52.5t-13 63q0 34 13 63.5t35.5 52t52 35.5t63.5 13t64 -13t52 -35t35 -52
t13 -64t-13 -63.5t-35.5 -52t-52 -35.5t-63.5 -13z" />
    <glyph glyph-name="comma" unicode="," 
d="M734 0q-34 0 -63.5 13t-52 35.5t-35.5 52t-13 63.5q0 33 13 62.5t35.5 52t52.5 36t63 13.5q34 0 63.5 -13t52 -35.5t35.5 -52t13 -63.5t-13 -64t-35 -52t-52 -35t-64 -13zM1102 368q-33 0 -63 13t-52.5 35.5t-35.5 52.5t-13 63q0 53 24.5 88.5t60.5 53.5t79 18t79 -18
t60.5 -53.5t24.5 -88.5q0 -34 -13 -63.5t-35.5 -52t-52 -35.5t-63.5 -13z" />
    <glyph glyph-name="hyphen" unicode="-" 
d="M734 1104q-33 0 -63 13t-52.5 35.5t-35.5 52.5t-13 63q0 34 13 63.5t35.5 52t52 35.5t63.5 13t64 -13t52 -35t35 -52t13 -64t-13 -63.5t-35.5 -52t-52 -35.5t-63.5 -13zM1102 1104q-33 0 -63 13t-52.5 35.5t-35.5 52.5t-13 63q0 34 13 63.5t35.5 52t52 35.5t63.5 13
t64 -13t52 -35t35 -52t13 -64t-13 -63.5t-35.5 -52t-52 -35.5t-63.5 -13zM1470 1104q-33 0 -63 13t-52.5 35.5t-35.5 52.5t-13 63q0 34 13 63.5t35.5 52t52 35.5t63.5 13t64 -13t52 -35t35 -52t13 -64t-13 -63.5t-35.5 -52t-52 -35.5t-63.5 -13z" />
    <glyph glyph-name="period" unicode="." 
d="M1102 0q-34 0 -63.5 13t-52 35.5t-35.5 52t-13 63.5q0 33 13 62.5t35.5 52t52.5 36t63 13.5q53 0 88.5 -24.5t53.5 -60.5t18 -79t-18 -79t-53.5 -60.5t-88.5 -24.5z" />
    <glyph glyph-name="slash" unicode="/" 
d="M366 0q-34 0 -64 13t-52 35t-35 52t-13 64t13 63.5t35.5 52t52 35.5t63.5 13q33 0 62.5 -13.5t52 -36t36 -52t13.5 -62.5q0 -34 -13 -63.5t-35.5 -52t-52 -35.5t-63.5 -13zM366 368q-34 0 -63.5 13t-52 35.5t-35.5 52t-13 63.5t13 64t35 52t52 35t64 13t63.5 -13
t52 -35.5t35.5 -52t13 -63.5q0 -33 -13.5 -63t-36 -52.5t-52 -35.5t-62.5 -13zM734 736q-33 0 -63 13t-52.5 35.5t-35.5 52.5t-13 63q0 34 13 63.5t35.5 52t52 35.5t63.5 13t64 -13t52 -35t35 -52t13 -64t-13 -63.5t-35.5 -52t-52 -35.5t-63.5 -13zM1102 1104q-33 0 -63 13
t-52.5 35.5t-35.5 52.5t-13 63q0 34 13 63.5t35.5 52t52 35.5t63.5 13t64 -13t52 -35t35 -52t13 -64t-13 -63.5t-35.5 -52t-52 -35.5t-63.5 -13zM1470 1476q-34 0 -63.5 13t-52 35.5t-35.5 52t-13 63.5q0 33 13 62.5t35.5 52t52.5 36t63 13.5q34 0 63.5 -13t52 -35.5
t35.5 -52t13 -63.5t-13 -64t-35 -52t-52 -35t-64 -13zM1842 2217q-34 0 -64 13t-52 35t-35 52t-13 64q0 35 12 64.5t34 50.5t51.5 33t64.5 12q36 0 65.5 -12t50.5 -33.5t33 -51t12 -65.5t-11.5 -65.5t-32 -51t-50 -33.5t-65.5 -12zM1842 1844q-34 0 -64 13t-52 35t-35 52
t-13 64q0 35 12 64.5t34 50.5t51.5 33t64.5 12q36 0 65.5 -12t50.5 -33.5t33 -51t12 -65.5t-11.5 -65.5t-32 -51t-50 -33.5t-65.5 -12z" />
    <glyph glyph-name="zero" unicode="0" 
d="M366 368q-34 0 -63.5 13t-52 35.5t-35.5 52t-13 63.5t13 64t35 52t52 35t64 13t63.5 -13t52 -35.5t35.5 -52t13 -63.5q0 -33 -13.5 -63t-36 -52.5t-52 -35.5t-62.5 -13zM366 736q-34 0 -63.5 13t-52 35.5t-35.5 52t-13 63.5t13 64t35 52t52 35t64 13t63.5 -13t52 -35.5
t35.5 -52t13 -63.5q0 -33 -13.5 -63t-36 -52.5t-52 -35.5t-62.5 -13zM366 1104q-34 0 -63.5 13t-52 35.5t-35.5 52t-13 63.5t13 64t35 52t52 35t64 13t63.5 -13t52 -35.5t35.5 -52t13 -63.5q0 -33 -13.5 -63t-36 -52.5t-52 -35.5t-62.5 -13zM366 1476q-34 0 -64 13t-52 35
t-35 52t-13 64t13 63.5t35.5 52t52 35.5t63.5 13q33 0 62.5 -13.5t52 -36t36 -52t13.5 -62.5q0 -34 -13 -63.5t-35.5 -52t-52 -35.5t-63.5 -13zM734 0q-34 0 -63.5 13t-52 35.5t-35.5 52t-13 63.5q0 33 13 62.5t35.5 52t52.5 36t63 13.5q34 0 63.5 -13t52 -35.5t35.5 -52
t13 -63.5t-13 -64t-35 -52t-52 -35t-64 -13zM734 368q-33 0 -63 13t-52.5 35.5t-35.5 52.5t-13 63q0 34 13 63.5t35.5 52t52 35.5t63.5 13t64 -13t52 -35t35 -52t13 -64t-13 -63.5t-35.5 -52t-52 -35.5t-63.5 -13zM734 1844q-34 0 -63.5 13t-52 35.5t-35.5 52t-13 63.5
q0 36 12.5 65t34.5 50t52 32.5t65 11.5t65 -11.5t52 -32.5t34.5 -50t12.5 -65q0 -34 -13 -64t-35 -52t-52 -35t-64 -13zM1102 0q-34 0 -63.5 13t-52 35.5t-35.5 52t-13 63.5q0 33 13 62.5t35.5 52t52.5 36t63 13.5q34 0 63.5 -13t52 -35.5t35.5 -52t13 -63.5t-13 -64
t-35 -52t-52 -35t-64 -13zM1102 736q-33 0 -63 13t-52.5 35.5t-35.5 52.5t-13 63q0 34 13 63.5t35.5 52t52 35.5t63.5 13t64 -13t52 -35t35 -52t13 -64t-13 -63.5t-35.5 -52t-52 -35.5t-63.5 -13zM1102 1844q-34 0 -63.5 13t-52 35.5t-35.5 52t-13 63.5q0 36 12.5 65
t34.5 50t52 32.5t65 11.5t65 -11.5t52 -32.5t34.5 -50t12.5 -65q0 -34 -13 -64t-35 -52t-52 -35t-64 -13zM1470 0q-34 0 -63.5 13t-52 35.5t-35.5 52t-13 63.5q0 33 13 62.5t35.5 52t52.5 36t63 13.5q34 0 63.5 -13t52 -35.5t35.5 -52t13 -63.5t-13 -64t-35 -52t-52 -35
t-64 -13zM1470 1104q-33 0 -63 13t-52.5 35.5t-35.5 52.5t-13 63q0 34 13 63.5t35.5 52t52 35.5t63.5 13t64 -13t52 -35t35 -52t13 -64t-13 -63.5t-35.5 -52t-52 -35.5t-63.5 -13zM1470 1844q-34 0 -63.5 13t-52 35.5t-35.5 52t-13 63.5q0 36 12.5 65t34.5 50t52 32.5
t65 11.5t65 -11.5t52 -32.5t34.5 -50t12.5 -65q0 -34 -13 -64t-35 -52t-52 -35t-64 -13zM1842 368q-34 0 -63.5 13t-52 35.5t-35.5 52t-13 63.5t13 64t35 52t52 35t64 13q36 0 65 -12.5t50 -34.5t32.5 -52t11.5 -65t-11.5 -65t-32.5 -52t-50 -34.5t-65 -12.5zM1842 736
q-34 0 -63.5 13t-52 35.5t-35.5 52t-13 63.5t13 64t35 52t52 35t64 13q36 0 65 -12.5t50 -34.5t32.5 -52t11.5 -65t-11.5 -65t-32.5 -52t-50 -34.5t-65 -12.5zM1842 1104q-34 0 -63.5 13t-52 35.5t-35.5 52t-13 63.5t13 64t35 52t52 35t64 13q36 0 65 -12.5t50 -34.5
t32.5 -52t11.5 -65t-11.5 -65t-32.5 -52t-50 -34.5t-65 -12.5zM1842 1476q-34 0 -64 13t-52 35t-35 52t-13 64t13 63.5t35.5 52t52 35.5t63.5 13q36 0 65.5 -12.5t50 -35t32 -53t11.5 -65.5q0 -36 -11.5 -65.5t-32 -51t-50 -33.5t-65.5 -12z" />
    <glyph glyph-name="one" unicode="1" 
d="M734 0q-34 0 -63.5 13t-52 35.5t-35.5 52t-13 63.5q0 33 13 62.5t35.5 52t52.5 36t63 13.5q34 0 63.5 -13t52 -35.5t35.5 -52t13 -63.5t-13 -64t-35 -52t-52 -35t-64 -13zM734 1476q-34 0 -63.5 13t-52 35.5t-35.5 52t-13 63.5q0 33 13 62.5t35.5 52t52.5 36t63 13.5
q34 0 63.5 -13t52 -35.5t35.5 -52t13 -63.5t-13 -64t-35 -52t-52 -35t-64 -13zM1102 0q-34 0 -63.5 13t-52 35.5t-35.5 52t-13 63.5q0 33 13 62.5t35.5 52t52.5 36t63 13.5q34 0 63.5 -13t52 -35.5t35.5 -52t13 -63.5t-13 -64t-35 -52t-52 -35t-64 -13zM1102 368
q-33 0 -63 13t-52.5 35.5t-35.5 52.5t-13 63q0 34 13 63.5t35.5 52t52 35.5t63.5 13t64 -13t52 -35t35 -52t13 -64t-13 -63.5t-35.5 -52t-52 -35.5t-63.5 -13zM1102 736q-33 0 -63 13t-52.5 35.5t-35.5 52.5t-13 63q0 34 13 63.5t35.5 52t52 35.5t63.5 13t64 -13t52 -35
t35 -52t13 -64t-13 -63.5t-35.5 -52t-52 -35.5t-63.5 -13zM1102 1104q-33 0 -63 13t-52.5 35.5t-35.5 52.5t-13 63q0 34 13 63.5t35.5 52t52 35.5t63.5 13t64 -13t52 -35t35 -52t13 -64t-13 -63.5t-35.5 -52t-52 -35.5t-63.5 -13zM1102 1476q-34 0 -63.5 13t-52 35.5
t-35.5 52t-13 63.5q0 33 13 62.5t35.5 52t52.5 36t63 13.5q34 0 63.5 -13t52 -35.5t35.5 -52t13 -63.5t-13 -64t-35 -52t-52 -35t-64 -13zM1102 1844q-34 0 -63.5 13t-52 35.5t-35.5 52t-13 63.5q0 36 12.5 65t34.5 50t52 32.5t65 11.5t65 -11.5t52 -32.5t34.5 -50t12.5 -65
q0 -34 -13 -64t-35 -52t-52 -35t-64 -13zM1470 0q-34 0 -63.5 13t-52 35.5t-35.5 52t-13 63.5q0 33 13 62.5t35.5 52t52.5 36t63 13.5q34 0 63.5 -13t52 -35.5t35.5 -52t13 -63.5t-13 -64t-35 -52t-52 -35t-64 -13z" />
    <glyph glyph-name="two" unicode="2" 
d="M366 0q-34 0 -64 13t-52 35t-35 52t-13 64t13 63.5t35.5 52t52 35.5t63.5 13q33 0 62.5 -13.5t52 -36t36 -52t13.5 -62.5q0 -34 -13 -63.5t-35.5 -52t-52 -35.5t-63.5 -13zM366 1476q-34 0 -64 13t-52 35t-35 52t-13 64t13 63.5t35.5 52t52 35.5t63.5 13q33 0 62.5 -13.5
t52 -36t36 -52t13.5 -62.5q0 -34 -13 -63.5t-35.5 -52t-52 -35.5t-63.5 -13zM734 0q-34 0 -63.5 13t-52 35.5t-35.5 52t-13 63.5q0 33 13 62.5t35.5 52t52.5 36t63 13.5q34 0 63.5 -13t52 -35.5t35.5 -52t13 -63.5t-13 -64t-35 -52t-52 -35t-64 -13zM734 368q-33 0 -63 13
t-52.5 35.5t-35.5 52.5t-13 63q0 34 13 63.5t35.5 52t52 35.5t63.5 13t64 -13t52 -35t35 -52t13 -64t-13 -63.5t-35.5 -52t-52 -35.5t-63.5 -13zM734 1844q-34 0 -63.5 13t-52 35.5t-35.5 52t-13 63.5q0 36 12.5 65t34.5 50t52 32.5t65 11.5t65 -11.5t52 -32.5t34.5 -50
t12.5 -65q0 -34 -13 -64t-35 -52t-52 -35t-64 -13zM1102 0q-34 0 -63.5 13t-52 35.5t-35.5 52t-13 63.5q0 33 13 62.5t35.5 52t52.5 36t63 13.5q34 0 63.5 -13t52 -35.5t35.5 -52t13 -63.5t-13 -64t-35 -52t-52 -35t-64 -13zM1102 736q-33 0 -63 13t-52.5 35.5t-35.5 52.5
t-13 63q0 34 13 63.5t35.5 52t52 35.5t63.5 13t64 -13t52 -35t35 -52t13 -64t-13 -63.5t-35.5 -52t-52 -35.5t-63.5 -13zM1102 1844q-34 0 -63.5 13t-52 35.5t-35.5 52t-13 63.5q0 36 12.5 65t34.5 50t52 32.5t65 11.5t65 -11.5t52 -32.5t34.5 -50t12.5 -65q0 -34 -13 -64
t-35 -52t-52 -35t-64 -13zM1470 0q-34 0 -63.5 13t-52 35.5t-35.5 52t-13 63.5q0 33 13 62.5t35.5 52t52.5 36t63 13.5q34 0 63.5 -13t52 -35.5t35.5 -52t13 -63.5t-13 -64t-35 -52t-52 -35t-64 -13zM1470 736q-33 0 -63 13t-52.5 35.5t-35.5 52.5t-13 63q0 34 13 63.5
t35.5 52t52 35.5t63.5 13t64 -13t52 -35t35 -52t13 -64t-13 -63.5t-35.5 -52t-52 -35.5t-63.5 -13zM1470 1844q-34 0 -63.5 13t-52 35.5t-35.5 52t-13 63.5q0 36 12.5 65t34.5 50t52 32.5t65 11.5t65 -11.5t52 -32.5t34.5 -50t12.5 -65q0 -34 -13 -64t-35 -52t-52 -35
t-64 -13zM1842 0q-34 0 -64 13t-52 35t-35 52t-13 64t13 63.5t35.5 52t52 35.5t63.5 13q36 0 65.5 -12.5t50 -35t32 -53t11.5 -65.5q0 -36 -11.5 -65.5t-32 -51t-50 -33.5t-65.5 -12zM1842 1104q-34 0 -63.5 13t-52 35.5t-35.5 52t-13 63.5t13 64t35 52t52 35t64 13
q36 0 65 -12.5t50 -34.5t32.5 -52t11.5 -65t-11.5 -65t-32.5 -52t-50 -34.5t-65 -12.5zM1842 1476q-34 0 -64 13t-52 35t-35 52t-13 64t13 63.5t35.5 52t52 35.5t63.5 13q36 0 65.5 -12.5t50 -35t32 -53t11.5 -65.5q0 -36 -11.5 -65.5t-32 -51t-50 -33.5t-65.5 -12z" />
    <glyph glyph-name="three" unicode="3" 
d="M366 368q-34 0 -63.5 13t-52 35.5t-35.5 52t-13 63.5t13 64t35 52t52 35t64 13t63.5 -13t52 -35.5t35.5 -52t13 -63.5q0 -33 -13.5 -63t-36 -52.5t-52 -35.5t-62.5 -13zM366 1844q-34 0 -64 13t-52 35t-35 52t-13 64q0 36 12.5 65t34.5 50t52 32.5t65 11.5t65 -11.5
t52 -32.5t34.5 -50t12.5 -65q0 -34 -13 -63.5t-35.5 -52t-52 -35.5t-63.5 -13zM734 0q-34 0 -63.5 13t-52 35.5t-35.5 52t-13 63.5q0 33 13 62.5t35.5 52t52.5 36t63 13.5q34 0 63.5 -13t52 -35.5t35.5 -52t13 -63.5t-13 -64t-35 -52t-52 -35t-64 -13zM734 1844
q-34 0 -63.5 13t-52 35.5t-35.5 52t-13 63.5q0 36 12.5 65t34.5 50t52 32.5t65 11.5t65 -11.5t52 -32.5t34.5 -50t12.5 -65q0 -34 -13 -64t-35 -52t-52 -35t-64 -13zM1102 0q-34 0 -63.5 13t-52 35.5t-35.5 52t-13 63.5q0 33 13 62.5t35.5 52t52.5 36t63 13.5q34 0 63.5 -13
t52 -35.5t35.5 -52t13 -63.5t-13 -64t-35 -52t-52 -35t-64 -13zM1102 1104q-33 0 -63 13t-52.5 35.5t-35.5 52.5t-13 63q0 34 13 63.5t35.5 52t52 35.5t63.5 13t64 -13t52 -35t35 -52t13 -64t-13 -63.5t-35.5 -52t-52 -35.5t-63.5 -13zM1102 1844q-34 0 -63.5 13t-52 35.5
t-35.5 52t-13 63.5q0 36 12.5 65t34.5 50t52 32.5t65 11.5t65 -11.5t52 -32.5t34.5 -50t12.5 -65q0 -34 -13 -64t-35 -52t-52 -35t-64 -13zM1470 0q-34 0 -63.5 13t-52 35.5t-35.5 52t-13 63.5q0 33 13 62.5t35.5 52t52.5 36t63 13.5q34 0 63.5 -13t52 -35.5t35.5 -52
t13 -63.5t-13 -64t-35 -52t-52 -35t-64 -13zM1470 1104q-33 0 -63 13t-52.5 35.5t-35.5 52.5t-13 63q0 34 13 63.5t35.5 52t52 35.5t63.5 13t64 -13t52 -35t35 -52t13 -64t-13 -63.5t-35.5 -52t-52 -35.5t-63.5 -13zM1470 1844q-34 0 -63.5 13t-52 35.5t-35.5 52t-13 63.5
q0 36 12.5 65t34.5 50t52 32.5t65 11.5t65 -11.5t52 -32.5t34.5 -50t12.5 -65q0 -34 -13 -64t-35 -52t-52 -35t-64 -13zM1842 368q-34 0 -63.5 13t-52 35.5t-35.5 52t-13 63.5t13 64t35 52t52 35t64 13q36 0 65 -12.5t50 -34.5t32.5 -52t11.5 -65t-11.5 -65t-32.5 -52
t-50 -34.5t-65 -12.5zM1842 736q-34 0 -63.5 13t-52 35.5t-35.5 52t-13 63.5t13 64t35 52t52 35t64 13q36 0 65 -12.5t50 -34.5t32.5 -52t11.5 -65t-11.5 -65t-32.5 -52t-50 -34.5t-65 -12.5zM1842 1476q-34 0 -64 13t-52 35t-35 52t-13 64t13 63.5t35.5 52t52 35.5t63.5 13
q36 0 65.5 -12.5t50 -35t32 -53t11.5 -65.5q0 -36 -11.5 -65.5t-32 -51t-50 -33.5t-65.5 -12zM1842 1844q-34 0 -64 13t-52 35t-35 52t-13 64q0 35 12 64.5t34 50.5t51.5 33t64.5 12q36 0 65.5 -12t50.5 -33.5t33 -51t12 -65.5t-11.5 -65.5t-32 -51t-50 -33.5t-65.5 -12z
" />
    <glyph glyph-name="four" unicode="4" 
d="M366 368q-34 0 -63.5 13t-52 35.5t-35.5 52t-13 63.5t13 64t35 52t52 35t64 13t63.5 -13t52 -35.5t35.5 -52t13 -63.5q0 -33 -13.5 -63t-36 -52.5t-52 -35.5t-62.5 -13zM366 736q-34 0 -63.5 13t-52 35.5t-35.5 52t-13 63.5t13 64t35 52t52 35t64 13t63.5 -13t52 -35.5
t35.5 -52t13 -63.5q0 -33 -13.5 -63t-36 -52.5t-52 -35.5t-62.5 -13zM734 368q-33 0 -63 13t-52.5 35.5t-35.5 52.5t-13 63q0 34 13 63.5t35.5 52t52 35.5t63.5 13t64 -13t52 -35t35 -52t13 -64t-13 -63.5t-35.5 -52t-52 -35.5t-63.5 -13zM734 1104q-33 0 -63 13t-52.5 35.5
t-35.5 52.5t-13 63q0 34 13 63.5t35.5 52t52 35.5t63.5 13t64 -13t52 -35t35 -52t13 -64t-13 -63.5t-35.5 -52t-52 -35.5t-63.5 -13zM1102 368q-33 0 -63 13t-52.5 35.5t-35.5 52.5t-13 63q0 34 13 63.5t35.5 52t52 35.5t63.5 13t64 -13t52 -35t35 -52t13 -64t-13 -63.5
t-35.5 -52t-52 -35.5t-63.5 -13zM1102 1476q-34 0 -63.5 13t-52 35.5t-35.5 52t-13 63.5q0 33 13 62.5t35.5 52t52.5 36t63 13.5q34 0 63.5 -13t52 -35.5t35.5 -52t13 -63.5t-13 -64t-35 -52t-52 -35t-64 -13zM1470 0q-34 0 -63.5 13t-52 35.5t-35.5 52t-13 63.5
q0 33 13 62.5t35.5 52t52.5 36t63 13.5q34 0 63.5 -13t52 -35.5t35.5 -52t13 -63.5t-13 -64t-35 -52t-52 -35t-64 -13zM1470 368q-33 0 -63 13t-52.5 35.5t-35.5 52.5t-13 63q0 34 13 63.5t35.5 52t52 35.5t63.5 13t64 -13t52 -35t35 -52t13 -64t-13 -63.5t-35.5 -52
t-52 -35.5t-63.5 -13zM1470 736q-33 0 -63 13t-52.5 35.5t-35.5 52.5t-13 63q0 34 13 63.5t35.5 52t52 35.5t63.5 13t64 -13t52 -35t35 -52t13 -64t-13 -63.5t-35.5 -52t-52 -35.5t-63.5 -13zM1470 1104q-33 0 -63 13t-52.5 35.5t-35.5 52.5t-13 63q0 34 13 63.5t35.5 52
t52 35.5t63.5 13t64 -13t52 -35t35 -52t13 -64t-13 -63.5t-35.5 -52t-52 -35.5t-63.5 -13zM1470 1476q-34 0 -63.5 13t-52 35.5t-35.5 52t-13 63.5q0 33 13 62.5t35.5 52t52.5 36t63 13.5q34 0 63.5 -13t52 -35.5t35.5 -52t13 -63.5t-13 -64t-35 -52t-52 -35t-64 -13z
M1470 1844q-34 0 -63.5 13t-52 35.5t-35.5 52t-13 63.5q0 36 12.5 65t34.5 50t52 32.5t65 11.5t65 -11.5t52 -32.5t34.5 -50t12.5 -65q0 -34 -13 -64t-35 -52t-52 -35t-64 -13zM1842 368q-34 0 -63.5 13t-52 35.5t-35.5 52t-13 63.5t13 64t35 52t52 35t64 13q36 0 65 -12.5
t50 -34.5t32.5 -52t11.5 -65t-11.5 -65t-32.5 -52t-50 -34.5t-65 -12.5z" />
    <glyph glyph-name="five" unicode="5" 
d="M366 368q-34 0 -63.5 13t-52 35.5t-35.5 52t-13 63.5t13 64t35 52t52 35t64 13t63.5 -13t52 -35.5t35.5 -52t13 -63.5q0 -33 -13.5 -63t-36 -52.5t-52 -35.5t-62.5 -13zM366 1104q-34 0 -63.5 13t-52 35.5t-35.5 52t-13 63.5t13 64t35 52t52 35t64 13t63.5 -13t52 -35.5
t35.5 -52t13 -63.5q0 -33 -13.5 -63t-36 -52.5t-52 -35.5t-62.5 -13zM366 1476q-34 0 -64 13t-52 35t-35 52t-13 64t13 63.5t35.5 52t52 35.5t63.5 13q53 0 88.5 -24.5t53 -60.5t17.5 -79t-17.5 -79t-53 -60.5t-88.5 -24.5zM366 1844q-34 0 -64 13t-52 35t-35 52t-13 64
q0 36 12.5 65t34.5 50t52 32.5t65 11.5t65 -11.5t52 -32.5t34.5 -50t12.5 -65q0 -34 -13 -63.5t-35.5 -52t-52 -35.5t-63.5 -13zM734 0q-34 0 -63.5 13t-52 35.5t-35.5 52t-13 63.5q0 33 13 62.5t35.5 52t52.5 36t63 13.5q34 0 63.5 -13t52 -35.5t35.5 -52t13 -63.5t-13 -64
t-35 -52t-52 -35t-64 -13zM734 1104q-33 0 -63 13t-52.5 35.5t-35.5 52.5t-13 63q0 34 13 63.5t35.5 52t52 35.5t63.5 13t64 -13t52 -35t35 -52t13 -64t-13 -63.5t-35.5 -52t-52 -35.5t-63.5 -13zM734 1844q-34 0 -63.5 13t-52 35.5t-35.5 52t-13 63.5q0 36 12.5 65t34.5 50
t52 32.5t65 11.5t65 -11.5t52 -32.5t34.5 -50t12.5 -65q0 -34 -13 -64t-35 -52t-52 -35t-64 -13zM1102 0q-34 0 -63.5 13t-52 35.5t-35.5 52t-13 63.5q0 33 13 62.5t35.5 52t52.5 36t63 13.5q34 0 63.5 -13t52 -35.5t35.5 -52t13 -63.5t-13 -64t-35 -52t-52 -35t-64 -13z
M1102 1104q-33 0 -63 13t-52.5 35.5t-35.5 52.5t-13 63q0 34 13 63.5t35.5 52t52 35.5t63.5 13t64 -13t52 -35t35 -52t13 -64t-13 -63.5t-35.5 -52t-52 -35.5t-63.5 -13zM1102 1844q-34 0 -63.5 13t-52 35.5t-35.5 52t-13 63.5q0 36 12.5 65t34.5 50t52 32.5t65 11.5
t65 -11.5t52 -32.5t34.5 -50t12.5 -65q0 -34 -13 -64t-35 -52t-52 -35t-64 -13zM1470 0q-34 0 -63.5 13t-52 35.5t-35.5 52t-13 63.5q0 33 13 62.5t35.5 52t52.5 36t63 13.5q34 0 63.5 -13t52 -35.5t35.5 -52t13 -63.5t-13 -64t-35 -52t-52 -35t-64 -13zM1470 1104
q-33 0 -63 13t-52.5 35.5t-35.5 52.5t-13 63q0 34 13 63.5t35.5 52t52 35.5t63.5 13t64 -13t52 -35t35 -52t13 -64t-13 -63.5t-35.5 -52t-52 -35.5t-63.5 -13zM1470 1844q-34 0 -63.5 13t-52 35.5t-35.5 52t-13 63.5q0 36 12.5 65t34.5 50t52 32.5t65 11.5t65 -11.5
t52 -32.5t34.5 -50t12.5 -65q0 -34 -13 -64t-35 -52t-52 -35t-64 -13zM1842 368q-34 0 -63.5 13t-52 35.5t-35.5 52t-13 63.5t13 64t35 52t52 35t64 13q36 0 65 -12.5t50 -34.5t32.5 -52t11.5 -65t-11.5 -65t-32.5 -52t-50 -34.5t-65 -12.5zM1842 736q-34 0 -63.5 13
t-52 35.5t-35.5 52t-13 63.5t13 64t35 52t52 35t64 13q36 0 65 -12.5t50 -34.5t32.5 -52t11.5 -65t-11.5 -65t-32.5 -52t-50 -34.5t-65 -12.5zM1842 1844q-34 0 -64 13t-52 35t-35 52t-13 64q0 35 12 64.5t34 50.5t51.5 33t64.5 12q36 0 65.5 -12t50.5 -33.5t33 -51
t12 -65.5t-11.5 -65.5t-32 -51t-50 -33.5t-65.5 -12z" />
    <glyph glyph-name="six" unicode="6" 
d="M366 368q-34 0 -63.5 13t-52 35.5t-35.5 52t-13 63.5t13 64t35 52t52 35t64 13t63.5 -13t52 -35.5t35.5 -52t13 -63.5q0 -33 -13.5 -63t-36 -52.5t-52 -35.5t-62.5 -13zM366 736q-34 0 -63.5 13t-52 35.5t-35.5 52t-13 63.5t13 64t35 52t52 35t64 13t63.5 -13t52 -35.5
t35.5 -52t13 -63.5q0 -33 -13.5 -63t-36 -52.5t-52 -35.5t-62.5 -13zM366 1104q-34 0 -63.5 13t-52 35.5t-35.5 52t-13 63.5t13 64t35 52t52 35t64 13t63.5 -13t52 -35.5t35.5 -52t13 -63.5q0 -33 -13.5 -63t-36 -52.5t-52 -35.5t-62.5 -13zM366 1476q-34 0 -64 13t-52 35
t-35 52t-13 64t13 63.5t35.5 52t52 35.5t63.5 13q33 0 62.5 -13.5t52 -36t36 -52t13.5 -62.5q0 -34 -13 -63.5t-35.5 -52t-52 -35.5t-63.5 -13zM734 0q-34 0 -63.5 13t-52 35.5t-35.5 52t-13 63.5q0 33 13 62.5t35.5 52t52.5 36t63 13.5q34 0 63.5 -13t52 -35.5t35.5 -52
t13 -63.5t-13 -64t-35 -52t-52 -35t-64 -13zM734 1104q-33 0 -63 13t-52.5 35.5t-35.5 52.5t-13 63q0 34 13 63.5t35.5 52t52 35.5t63.5 13t64 -13t52 -35t35 -52t13 -64t-13 -63.5t-35.5 -52t-52 -35.5t-63.5 -13zM734 1844q-34 0 -63.5 13t-52 35.5t-35.5 52t-13 63.5
q0 36 12.5 65t34.5 50t52 32.5t65 11.5t65 -11.5t52 -32.5t34.5 -50t12.5 -65q0 -34 -13 -64t-35 -52t-52 -35t-64 -13zM1102 0q-34 0 -63.5 13t-52 35.5t-35.5 52t-13 63.5q0 33 13 62.5t35.5 52t52.5 36t63 13.5q34 0 63.5 -13t52 -35.5t35.5 -52t13 -63.5t-13 -64
t-35 -52t-52 -35t-64 -13zM1102 1104q-33 0 -63 13t-52.5 35.5t-35.5 52.5t-13 63q0 34 13 63.5t35.5 52t52 35.5t63.5 13t64 -13t52 -35t35 -52t13 -64t-13 -63.5t-35.5 -52t-52 -35.5t-63.5 -13zM1102 1844q-34 0 -63.5 13t-52 35.5t-35.5 52t-13 63.5q0 36 12.5 65
t34.5 50t52 32.5t65 11.5t65 -11.5t52 -32.5t34.5 -50t12.5 -65q0 -34 -13 -64t-35 -52t-52 -35t-64 -13zM1470 0q-34 0 -63.5 13t-52 35.5t-35.5 52t-13 63.5q0 33 13 62.5t35.5 52t52.5 36t63 13.5q34 0 63.5 -13t52 -35.5t35.5 -52t13 -63.5t-13 -64t-35 -52t-52 -35
t-64 -13zM1470 1104q-33 0 -63 13t-52.5 35.5t-35.5 52.5t-13 63q0 34 13 63.5t35.5 52t52 35.5t63.5 13t64 -13t52 -35t35 -52t13 -64t-13 -63.5t-35.5 -52t-52 -35.5t-63.5 -13zM1470 1844q-34 0 -63.5 13t-52 35.5t-35.5 52t-13 63.5q0 36 12.5 65t34.5 50t52 32.5
t65 11.5t65 -11.5t52 -32.5t34.5 -50t12.5 -65q0 -34 -13 -64t-35 -52t-52 -35t-64 -13zM1842 368q-34 0 -63.5 13t-52 35.5t-35.5 52t-13 63.5t13 64t35 52t52 35t64 13q36 0 65 -12.5t50 -34.5t32.5 -52t11.5 -65t-11.5 -65t-32.5 -52t-50 -34.5t-65 -12.5zM1842 736
q-34 0 -63.5 13t-52 35.5t-35.5 52t-13 63.5t13 64t35 52t52 35t64 13q36 0 65 -12.5t50 -34.5t32.5 -52t11.5 -65t-11.5 -65t-32.5 -52t-50 -34.5t-65 -12.5z" />
    <glyph glyph-name="seven" unicode="7" 
d="M366 1844q-34 0 -64 13t-52 35t-35 52t-13 64q0 36 12.5 65t34.5 50t52 32.5t65 11.5t65 -11.5t52 -32.5t34.5 -50t12.5 -65q0 -34 -13 -63.5t-35.5 -52t-52 -35.5t-63.5 -13zM734 0q-34 0 -63.5 13t-52 35.5t-35.5 52t-13 63.5q0 33 13 62.5t35.5 52t52.5 36t63 13.5
q34 0 63.5 -13t52 -35.5t35.5 -52t13 -63.5t-13 -64t-35 -52t-52 -35t-64 -13zM734 368q-33 0 -63 13t-52.5 35.5t-35.5 52.5t-13 63q0 34 13 63.5t35.5 52t52 35.5t63.5 13t64 -13t52 -35t35 -52t13 -64t-13 -63.5t-35.5 -52t-52 -35.5t-63.5 -13zM734 1844q-34 0 -63.5 13
t-52 35.5t-35.5 52t-13 63.5q0 36 12.5 65t34.5 50t52 32.5t65 11.5t65 -11.5t52 -32.5t34.5 -50t12.5 -65q0 -34 -13 -64t-35 -52t-52 -35t-64 -13zM1102 736q-33 0 -63 13t-52.5 35.5t-35.5 52.5t-13 63q0 34 13 63.5t35.5 52t52 35.5t63.5 13t64 -13t52 -35t35 -52
t13 -64t-13 -63.5t-35.5 -52t-52 -35.5t-63.5 -13zM1102 1844q-34 0 -63.5 13t-52 35.5t-35.5 52t-13 63.5q0 36 12.5 65t34.5 50t52 32.5t65 11.5t65 -11.5t52 -32.5t34.5 -50t12.5 -65q0 -34 -13 -64t-35 -52t-52 -35t-64 -13zM1470 1104q-33 0 -63 13t-52.5 35.5
t-35.5 52.5t-13 63q0 34 13 63.5t35.5 52t52 35.5t63.5 13t64 -13t52 -35t35 -52t13 -64t-13 -63.5t-35.5 -52t-52 -35.5t-63.5 -13zM1470 1844q-34 0 -63.5 13t-52 35.5t-35.5 52t-13 63.5q0 36 12.5 65t34.5 50t52 32.5t65 11.5t65 -11.5t52 -32.5t34.5 -50t12.5 -65
q0 -34 -13 -64t-35 -52t-52 -35t-64 -13zM1842 1476q-34 0 -64 13t-52 35t-35 52t-13 64t13 63.5t35.5 52t52 35.5t63.5 13q36 0 65.5 -12.5t50 -35t32 -53t11.5 -65.5q0 -36 -11.5 -65.5t-32 -51t-50 -33.5t-65.5 -12zM1842 1844q-34 0 -64 13t-52 35t-35 52t-13 64
q0 35 12 64.5t34 50.5t51.5 33t64.5 12q36 0 65.5 -12t50.5 -33.5t33 -51t12 -65.5t-11.5 -65.5t-32 -51t-50 -33.5t-65.5 -12z" />
    <glyph glyph-name="eight" unicode="8" 
d="M366 368q-34 0 -63.5 13t-52 35.5t-35.5 52t-13 63.5t13 64t35 52t52 35t64 13t63.5 -13t52 -35.5t35.5 -52t13 -63.5q0 -33 -13.5 -63t-36 -52.5t-52 -35.5t-62.5 -13zM366 736q-34 0 -63.5 13t-52 35.5t-35.5 52t-13 63.5t13 64t35 52t52 35t64 13t63.5 -13t52 -35.5
t35.5 -52t13 -63.5q0 -33 -13.5 -63t-36 -52.5t-52 -35.5t-62.5 -13zM366 1476q-34 0 -64 13t-52 35t-35 52t-13 64t13 63.5t35.5 52t52 35.5t63.5 13q33 0 62.5 -13.5t52 -36t36 -52t13.5 -62.5q0 -34 -13 -63.5t-35.5 -52t-52 -35.5t-63.5 -13zM734 0q-34 0 -63.5 13
t-52 35.5t-35.5 52t-13 63.5q0 33 13 62.5t35.5 52t52.5 36t63 13.5q34 0 63.5 -13t52 -35.5t35.5 -52t13 -63.5t-13 -64t-35 -52t-52 -35t-64 -13zM734 1104q-33 0 -63 13t-52.5 35.5t-35.5 52.5t-13 63q0 34 13 63.5t35.5 52t52 35.5t63.5 13t64 -13t52 -35t35 -52t13 -64
t-13 -63.5t-35.5 -52t-52 -35.5t-63.5 -13zM734 1844q-34 0 -63.5 13t-52 35.5t-35.5 52t-13 63.5q0 36 12.5 65t34.5 50t52 32.5t65 11.5t65 -11.5t52 -32.5t34.5 -50t12.5 -65q0 -34 -13 -64t-35 -52t-52 -35t-64 -13zM1102 0q-34 0 -63.5 13t-52 35.5t-35.5 52t-13 63.5
q0 33 13 62.5t35.5 52t52.5 36t63 13.5q34 0 63.5 -13t52 -35.5t35.5 -52t13 -63.5t-13 -64t-35 -52t-52 -35t-64 -13zM1102 1104q-33 0 -63 13t-52.5 35.5t-35.5 52.5t-13 63q0 34 13 63.5t35.5 52t52 35.5t63.5 13t64 -13t52 -35t35 -52t13 -64t-13 -63.5t-35.5 -52
t-52 -35.5t-63.5 -13zM1102 1844q-34 0 -63.5 13t-52 35.5t-35.5 52t-13 63.5q0 36 12.5 65t34.5 50t52 32.5t65 11.5t65 -11.5t52 -32.5t34.5 -50t12.5 -65q0 -34 -13 -64t-35 -52t-52 -35t-64 -13zM1470 0q-34 0 -63.5 13t-52 35.5t-35.5 52t-13 63.5q0 33 13 62.5
t35.5 52t52.5 36t63 13.5q34 0 63.5 -13t52 -35.5t35.5 -52t13 -63.5t-13 -64t-35 -52t-52 -35t-64 -13zM1470 1104q-33 0 -63 13t-52.5 35.5t-35.5 52.5t-13 63q0 34 13 63.5t35.5 52t52 35.5t63.5 13t64 -13t52 -35t35 -52t13 -64t-13 -63.5t-35.5 -52t-52 -35.5
t-63.5 -13zM1470 1844q-34 0 -63.5 13t-52 35.5t-35.5 52t-13 63.5q0 36 12.5 65t34.5 50t52 32.5t65 11.5t65 -11.5t52 -32.5t34.5 -50t12.5 -65q0 -34 -13 -64t-35 -52t-52 -35t-64 -13zM1842 368q-34 0 -63.5 13t-52 35.5t-35.5 52t-13 63.5t13 64t35 52t52 35t64 13
q36 0 65 -12.5t50 -34.5t32.5 -52t11.5 -65t-11.5 -65t-32.5 -52t-50 -34.5t-65 -12.5zM1842 736q-34 0 -63.5 13t-52 35.5t-35.5 52t-13 63.5t13 64t35 52t52 35t64 13q36 0 65 -12.5t50 -34.5t32.5 -52t11.5 -65t-11.5 -65t-32.5 -52t-50 -34.5t-65 -12.5zM1842 1476
q-34 0 -64 13t-52 35t-35 52t-13 64t13 63.5t35.5 52t52 35.5t63.5 13q36 0 65.5 -12.5t50 -35t32 -53t11.5 -65.5q0 -36 -11.5 -65.5t-32 -51t-50 -33.5t-65.5 -12z" />
    <glyph glyph-name="nine" unicode="9" 
d="M1837 1799q34 0 63.5 -13t52 -35.5t35.5 -52t13 -63.5t-13 -64t-35 -52t-52 -35t-64 -13t-63.5 13t-52 35.5t-35.5 52t-13 63.5q0 33 13 62.5t35.5 52t52.5 36t63 13.5zM1837 1431q34 0 63.5 -13t52 -35.5t35.5 -52t13 -63.5t-13 -64t-35 -52t-52 -35t-64 -13t-63.5 13
t-52 35.5t-35.5 52t-13 63.5q0 33 13 62.5t35.5 52t52.5 36t63 13.5zM1837 1063q34 0 63.5 -13t52 -35.5t35.5 -52t13 -63.5t-13 -64t-35 -52t-52 -35t-64 -13t-63.5 13t-52 35.5t-35.5 52t-13 63.5q0 33 13 62.5t35.5 52t52.5 36t63 13.5zM1837 691q34 0 64 -13t52 -35
t35 -52t13 -64t-13 -63.5t-35.5 -52t-52 -35.5t-63.5 -13q-33 0 -63 13t-52.5 35.5t-35.5 52.5t-13 63q0 34 13 63.5t35.5 52t52 35.5t63.5 13zM1469 2167q34 0 63.5 -13t52 -35.5t35.5 -52t13 -63.5q0 -33 -13.5 -63t-36 -52.5t-52 -35.5t-62.5 -13q-34 0 -63.5 13
t-52 35.5t-35.5 52t-13 63.5t13 64t35 52t52 35t64 13zM1469 1063q33 0 62.5 -13.5t52 -36t36 -52t13.5 -62.5q0 -34 -13 -63.5t-35.5 -52t-52 -35.5t-63.5 -13t-64 13t-52 35t-35 52t-13 64t13 63.5t35.5 52t52 35.5t63.5 13zM1469 323q34 0 63.5 -13t52 -35.5t35.5 -52
t13 -63.5q0 -36 -12.5 -65t-34.5 -50t-52 -32.5t-65 -11.5t-65 11.5t-52 32.5t-34.5 50t-12.5 65q0 34 13 64t35 52t52 35t64 13zM1101 2167q34 0 63.5 -13t52 -35.5t35.5 -52t13 -63.5q0 -33 -13.5 -63t-36 -52.5t-52 -35.5t-62.5 -13q-34 0 -63.5 13t-52 35.5t-35.5 52
t-13 63.5t13 64t35 52t52 35t64 13zM1101 1063q33 0 62.5 -13.5t52 -36t36 -52t13.5 -62.5q0 -34 -13 -63.5t-35.5 -52t-52 -35.5t-63.5 -13t-64 13t-52 35t-35 52t-13 64t13 63.5t35.5 52t52 35.5t63.5 13zM1101 323q34 0 63.5 -13t52 -35.5t35.5 -52t13 -63.5
q0 -36 -12.5 -65t-34.5 -50t-52 -32.5t-65 -11.5t-65 11.5t-52 32.5t-34.5 50t-12.5 65q0 34 13 64t35 52t52 35t64 13zM733 2167q34 0 63.5 -13t52 -35.5t35.5 -52t13 -63.5q0 -33 -13.5 -63t-36 -52.5t-52 -35.5t-62.5 -13q-34 0 -63.5 13t-52 35.5t-35.5 52t-13 63.5
t13 64t35 52t52 35t64 13zM733 1063q33 0 62.5 -13.5t52 -36t36 -52t13.5 -62.5q0 -34 -13 -63.5t-35.5 -52t-52 -35.5t-63.5 -13t-64 13t-52 35t-35 52t-13 64t13 63.5t35.5 52t52 35.5t63.5 13zM733 323q34 0 63.5 -13t52 -35.5t35.5 -52t13 -63.5q0 -36 -12.5 -65
t-34.5 -50t-52 -32.5t-65 -11.5t-65 11.5t-52 32.5t-34.5 50t-12.5 65q0 34 13 64t35 52t52 35t64 13zM361 1799q34 0 63.5 -13t52 -35.5t35.5 -52t13 -63.5t-13 -64t-35 -52t-52 -35t-64 -13q-36 0 -65 12.5t-50 34.5t-32.5 52t-11.5 65t11.5 65t32.5 52t50 34.5t65 12.5z
M361 1431q34 0 63.5 -13t52 -35.5t35.5 -52t13 -63.5t-13 -64t-35 -52t-52 -35t-64 -13q-36 0 -65 12.5t-50 34.5t-32.5 52t-11.5 65t11.5 65t32.5 52t50 34.5t65 12.5z" />
    <glyph glyph-name="colon" unicode=":" 
d="M1102 0q-34 0 -63.5 13t-52 35.5t-35.5 52t-13 63.5q0 33 13 62.5t35.5 52t52.5 36t63 13.5q53 0 88.5 -24.5t53.5 -60.5t18 -79t-18 -79t-53.5 -60.5t-88.5 -24.5zM1102 736q-33 0 -63 13t-52.5 35.5t-35.5 52.5t-13 63q0 34 13 63.5t35.5 52t52 35.5t63.5 13
q53 0 88.5 -24.5t53.5 -60.5t18 -79t-18 -79t-53.5 -60.5t-88.5 -24.5z" />
    <glyph glyph-name="semicolon" unicode=";" 
d="M734 0q-34 0 -63.5 13t-52 35.5t-35.5 52t-13 63.5q0 33 13 62.5t35.5 52t52.5 36t63 13.5q34 0 63.5 -13t52 -35.5t35.5 -52t13 -63.5t-13 -64t-35 -52t-52 -35t-64 -13zM1102 368q-33 0 -63 13t-52.5 35.5t-35.5 52.5t-13 63q0 34 13 63.5t35.5 52t52 35.5t63.5 13
t64 -13t52 -35t35 -52t13 -64t-13 -63.5t-35.5 -52t-52 -35.5t-63.5 -13zM1102 1104q-33 0 -63 13t-52.5 35.5t-35.5 52.5t-13 63q0 34 13 63.5t35.5 52t52 35.5t63.5 13t64 -13t52 -35t35 -52t13 -64t-13 -63.5t-35.5 -52t-52 -35.5t-63.5 -13z" />
    <glyph glyph-name="less" unicode="&#x3c;" 
d="M734 736q-33 0 -63 13t-52.5 35.5t-35.5 52.5t-13 63q0 34 13 63.5t35.5 52t52 35.5t63.5 13t64 -13t52 -35t35 -52t13 -64t-13 -63.5t-35.5 -52t-52 -35.5t-63.5 -13zM1102 368q-33 0 -63 13t-52.5 35.5t-35.5 52.5t-13 63q0 34 13 63.5t35.5 52t52 35.5t63.5 13t64 -13
t52 -35t35 -52t13 -64t-13 -63.5t-35.5 -52t-52 -35.5t-63.5 -13zM1102 1104q-33 0 -63 13t-52.5 35.5t-35.5 52.5t-13 63q0 34 13 63.5t35.5 52t52 35.5t63.5 13t64 -13t52 -35t35 -52t13 -64t-13 -63.5t-35.5 -52t-52 -35.5t-63.5 -13zM1470 0q-34 0 -63.5 13t-52 35.5
t-35.5 52t-13 63.5q0 33 13 62.5t35.5 52t52.5 36t63 13.5q34 0 63.5 -13t52 -35.5t35.5 -52t13 -63.5t-13 -64t-35 -52t-52 -35t-64 -13zM1470 1476q-34 0 -63.5 13t-52 35.5t-35.5 52t-13 63.5q0 33 13 62.5t35.5 52t52.5 36t63 13.5q34 0 63.5 -13t52 -35.5t35.5 -52
t13 -63.5t-13 -64t-35 -52t-52 -35t-64 -13z" />
    <glyph glyph-name="equal" unicode="=" 
d="M734 368q-33 0 -63 13t-52.5 35.5t-35.5 52.5t-13 63q0 34 13 63.5t35.5 52t52 35.5t63.5 13t64 -13t52 -35t35 -52t13 -64t-13 -63.5t-35.5 -52t-52 -35.5t-63.5 -13zM734 1104q-33 0 -63 13t-52.5 35.5t-35.5 52.5t-13 63q0 34 13 63.5t35.5 52t52 35.5t63.5 13t64 -13
t52 -35t35 -52t13 -64t-13 -63.5t-35.5 -52t-52 -35.5t-63.5 -13zM1102 368q-33 0 -63 13t-52.5 35.5t-35.5 52.5t-13 63q0 34 13 63.5t35.5 52t52 35.5t63.5 13t64 -13t52 -35t35 -52t13 -64t-13 -63.5t-35.5 -52t-52 -35.5t-63.5 -13zM1102 1104q-33 0 -63 13t-52.5 35.5
t-35.5 52.5t-13 63q0 34 13 63.5t35.5 52t52 35.5t63.5 13t64 -13t52 -35t35 -52t13 -64t-13 -63.5t-35.5 -52t-52 -35.5t-63.5 -13zM1470 368q-33 0 -63 13t-52.5 35.5t-35.5 52.5t-13 63q0 34 13 63.5t35.5 52t52 35.5t63.5 13t64 -13t52 -35t35 -52t13 -64t-13 -63.5
t-35.5 -52t-52 -35.5t-63.5 -13zM1470 1104q-33 0 -63 13t-52.5 35.5t-35.5 52.5t-13 63q0 34 13 63.5t35.5 52t52 35.5t63.5 13t64 -13t52 -35t35 -52t13 -64t-13 -63.5t-35.5 -52t-52 -35.5t-63.5 -13z" />
    <glyph glyph-name="greater" unicode="&#x3e;" 
d="M734 1476q-34 0 -64 13t-52 35t-35 52t-13 64t13 63.5t35.5 52t52 35.5t63.5 13q33 0 62.5 -13.5t52 -36t36 -52t13.5 -62.5q0 -34 -13 -63.5t-35.5 -52t-52 -35.5t-63.5 -13zM734 0q-34 0 -64 13t-52 35t-35 52t-13 64t13 63.5t35.5 52t52 35.5t63.5 13q33 0 62.5 -13.5
t52 -36t36 -52t13.5 -62.5q0 -34 -13 -63.5t-35.5 -52t-52 -35.5t-63.5 -13zM1102 1104q-34 0 -63.5 13t-52 35.5t-35.5 52t-13 63.5t13 64t35 52t52 35t64 13t63.5 -13t52 -35.5t35.5 -52t13 -63.5q0 -33 -13.5 -63t-36 -52.5t-52 -35.5t-62.5 -13zM1102 368
q-34 0 -63.5 13t-52 35.5t-35.5 52t-13 63.5t13 64t35 52t52 35t64 13t63.5 -13t52 -35.5t35.5 -52t13 -63.5q0 -33 -13.5 -63t-36 -52.5t-52 -35.5t-62.5 -13zM1470 736q-34 0 -63.5 13t-52 35.5t-35.5 52t-13 63.5t13 64t35 52t52 35t64 13t63.5 -13t52 -35.5t35.5 -52
t13 -63.5q0 -33 -13.5 -63t-36 -52.5t-52 -35.5t-62.5 -13z" />
    <glyph glyph-name="question" unicode="?" 
d="M366 1476q-34 0 -64 13t-52 35t-35 52t-13 64t13 63.5t35.5 52t52 35.5t63.5 13q33 0 62.5 -13.5t52 -36t36 -52t13.5 -62.5q0 -34 -13 -63.5t-35.5 -52t-52 -35.5t-63.5 -13zM734 1844q-34 0 -63.5 13t-52 35.5t-35.5 52t-13 63.5q0 36 12.5 65t34.5 50t52 32.5t65 11.5
t65 -11.5t52 -32.5t34.5 -50t12.5 -65q0 -34 -13 -64t-35 -52t-52 -35t-64 -13zM1102 0q-34 0 -63.5 13t-52 35.5t-35.5 52t-13 63.5q0 33 13 62.5t35.5 52t52.5 36t63 13.5q34 0 63.5 -13t52 -35.5t35.5 -52t13 -63.5t-13 -64t-35 -52t-52 -35t-64 -13zM1102 736
q-33 0 -63 13t-52.5 35.5t-35.5 52.5t-13 63q0 34 13 63.5t35.5 52t52 35.5t63.5 13t64 -13t52 -35t35 -52t13 -64t-13 -63.5t-35.5 -52t-52 -35.5t-63.5 -13zM1102 1844q-34 0 -63.5 13t-52 35.5t-35.5 52t-13 63.5q0 36 12.5 65t34.5 50t52 32.5t65 11.5t65 -11.5
t52 -32.5t34.5 -50t12.5 -65q0 -34 -13 -64t-35 -52t-52 -35t-64 -13zM1470 1104q-33 0 -63 13t-52.5 35.5t-35.5 52.5t-13 63q0 34 13 63.5t35.5 52t52 35.5t63.5 13t64 -13t52 -35t35 -52t13 -64t-13 -63.5t-35.5 -52t-52 -35.5t-63.5 -13zM1470 1844q-34 0 -63.5 13
t-52 35.5t-35.5 52t-13 63.5q0 36 12.5 65t34.5 50t52 32.5t65 11.5t65 -11.5t52 -32.5t34.5 -50t12.5 -65q0 -34 -13 -64t-35 -52t-52 -35t-64 -13zM1842 1476q-34 0 -64 13t-52 35t-35 52t-13 64t13 63.5t35.5 52t52 35.5t63.5 13q36 0 65.5 -12.5t50 -35t32 -53
t11.5 -65.5q0 -36 -11.5 -65.5t-32 -51t-50 -33.5t-65.5 -12z" />
    <glyph glyph-name="at" unicode="@" 
d="M366 368q-34 0 -63.5 13t-52 35.5t-35.5 52t-13 63.5t13 64t35 52t52 35t64 13t63.5 -13t52 -35.5t35.5 -52t13 -63.5q0 -33 -13.5 -63t-36 -52.5t-52 -35.5t-62.5 -13zM366 736q-34 0 -63.5 13t-52 35.5t-35.5 52t-13 63.5t13 64t35 52t52 35t64 13t63.5 -13t52 -35.5
t35.5 -52t13 -63.5q0 -33 -13.5 -63t-36 -52.5t-52 -35.5t-62.5 -13zM366 1104q-34 0 -63.5 13t-52 35.5t-35.5 52t-13 63.5t13 64t35 52t52 35t64 13t63.5 -13t52 -35.5t35.5 -52t13 -63.5q0 -33 -13.5 -63t-36 -52.5t-52 -35.5t-62.5 -13zM366 1476q-34 0 -64 13t-52 35
t-35 52t-13 64t13 63.5t35.5 52t52 35.5t63.5 13q33 0 62.5 -13.5t52 -36t36 -52t13.5 -62.5q0 -34 -13 -63.5t-35.5 -52t-52 -35.5t-63.5 -13zM734 0q-34 0 -63.5 13t-52 35.5t-35.5 52t-13 63.5q0 33 13 62.5t35.5 52t52.5 36t63 13.5q34 0 63.5 -13t52 -35.5t35.5 -52
t13 -63.5t-13 -64t-35 -52t-52 -35t-64 -13zM734 1844q-34 0 -63.5 13t-52 35.5t-35.5 52t-13 63.5q0 36 12.5 65t34.5 50t52 32.5t65 11.5t65 -11.5t52 -32.5t34.5 -50t12.5 -65q0 -34 -13 -64t-35 -52t-52 -35t-64 -13zM1102 0q-34 0 -63.5 13t-52 35.5t-35.5 52t-13 63.5
q0 33 13 62.5t35.5 52t52.5 36t63 13.5q34 0 63.5 -13t52 -35.5t35.5 -52t13 -63.5t-13 -64t-35 -52t-52 -35t-64 -13zM1102 736q-33 0 -63 13t-52.5 35.5t-35.5 52.5t-13 63q0 34 13 63.5t35.5 52t52 35.5t63.5 13t64 -13t52 -35t35 -52t13 -64t-13 -63.5t-35.5 -52
t-52 -35.5t-63.5 -13zM1102 1104q-33 0 -63 13t-52.5 35.5t-35.5 52.5t-13 63q0 34 13 63.5t35.5 52t52 35.5t63.5 13t64 -13t52 -35t35 -52t13 -64t-13 -63.5t-35.5 -52t-52 -35.5t-63.5 -13zM1102 1844q-34 0 -63.5 13t-52 35.5t-35.5 52t-13 63.5q0 36 12.5 65t34.5 50
t52 32.5t65 11.5t65 -11.5t52 -32.5t34.5 -50t12.5 -65q0 -34 -13 -64t-35 -52t-52 -35t-64 -13zM1470 0q-34 0 -63.5 13t-52 35.5t-35.5 52t-13 63.5q0 33 13 62.5t35.5 52t52.5 36t63 13.5q34 0 63.5 -13t52 -35.5t35.5 -52t13 -63.5t-13 -64t-35 -52t-52 -35t-64 -13z
M1470 736q-33 0 -63 13t-52.5 35.5t-35.5 52.5t-13 63q0 34 13 63.5t35.5 52t52 35.5t63.5 13t64 -13t52 -35t35 -52t13 -64t-13 -63.5t-35.5 -52t-52 -35.5t-63.5 -13zM1470 1476q-34 0 -63.5 13t-52 35.5t-35.5 52t-13 63.5q0 33 13 62.5t35.5 52t52.5 36t63 13.5
q34 0 63.5 -13t52 -35.5t35.5 -52t13 -63.5t-13 -64t-35 -52t-52 -35t-64 -13zM1470 1844q-34 0 -63.5 13t-52 35.5t-35.5 52t-13 63.5q0 36 12.5 65t34.5 50t52 32.5t65 11.5t65 -11.5t52 -32.5t34.5 -50t12.5 -65q0 -34 -13 -64t-35 -52t-52 -35t-64 -13zM1842 0
q-34 0 -64 13t-52 35t-35 52t-13 64t13 63.5t35.5 52t52 35.5t63.5 13q36 0 65.5 -12.5t50 -35t32 -53t11.5 -65.5q0 -36 -11.5 -65.5t-32 -51t-50 -33.5t-65.5 -12zM1842 736q-34 0 -63.5 13t-52 35.5t-35.5 52t-13 63.5t13 64t35 52t52 35t64 13q36 0 65 -12.5t50 -34.5
t32.5 -52t11.5 -65t-11.5 -65t-32.5 -52t-50 -34.5t-65 -12.5zM1842 1104q-34 0 -63.5 13t-52 35.5t-35.5 52t-13 63.5t13 64t35 52t52 35t64 13q36 0 65 -12.5t50 -34.5t32.5 -52t11.5 -65t-11.5 -65t-32.5 -52t-50 -34.5t-65 -12.5zM1842 1476q-34 0 -64 13t-52 35t-35 52
t-13 64t13 63.5t35.5 52t52 35.5t63.5 13q36 0 65.5 -12.5t50 -35t32 -53t11.5 -65.5q0 -36 -11.5 -65.5t-32 -51t-50 -33.5t-65.5 -12z" />
    <glyph glyph-name="A" unicode="A" 
d="M366 0q-34 0 -64 13t-52 35t-35 52t-13 64t13 63.5t35.5 52t52 35.5t63.5 13q33 0 62.5 -13.5t52 -36t36 -52t13.5 -62.5q0 -34 -13 -63.5t-35.5 -52t-52 -35.5t-63.5 -13zM366 368q-34 0 -63.5 13t-52 35.5t-35.5 52t-13 63.5t13 64t35 52t52 35t64 13t63.5 -13
t52 -35.5t35.5 -52t13 -63.5q0 -33 -13.5 -63t-36 -52.5t-52 -35.5t-62.5 -13zM366 736q-34 0 -63.5 13t-52 35.5t-35.5 52t-13 63.5t13 64t35 52t52 35t64 13t63.5 -13t52 -35.5t35.5 -52t13 -63.5q0 -33 -13.5 -63t-36 -52.5t-52 -35.5t-62.5 -13zM366 1104
q-34 0 -63.5 13t-52 35.5t-35.5 52t-13 63.5t13 64t35 52t52 35t64 13t63.5 -13t52 -35.5t35.5 -52t13 -63.5q0 -33 -13.5 -63t-36 -52.5t-52 -35.5t-62.5 -13zM366 1476q-34 0 -64 13t-52 35t-35 52t-13 64t13 63.5t35.5 52t52 35.5t63.5 13q33 0 62.5 -13.5t52 -36t36 -52
t13.5 -62.5q0 -34 -13 -63.5t-35.5 -52t-52 -35.5t-63.5 -13zM734 736q-33 0 -63 13t-52.5 35.5t-35.5 52.5t-13 63q0 34 13 63.5t35.5 52t52 35.5t63.5 13t64 -13t52 -35t35 -52t13 -64t-13 -63.5t-35.5 -52t-52 -35.5t-63.5 -13zM734 1844q-34 0 -63.5 13t-52 35.5
t-35.5 52t-13 63.5q0 33 13 62.5t35.5 52t52.5 36t63 13.5q34 0 63.5 -13t52 -35.5t35.5 -52t13 -63.5t-13 -64t-35 -52t-52 -35t-64 -13zM1102 736q-33 0 -63 13t-52.5 35.5t-35.5 52.5t-13 63q0 34 13 63.5t35.5 52t52 35.5t63.5 13t64 -13t52 -35t35 -52t13 -64
t-13 -63.5t-35.5 -52t-52 -35.5t-63.5 -13zM1102 1844q-34 0 -63.5 13t-52 35.5t-35.5 52t-13 63.5q0 33 13 62.5t35.5 52t52.5 36t63 13.5q34 0 63.5 -13t52 -35.5t35.5 -52t13 -63.5t-13 -64t-35 -52t-52 -35t-64 -13zM1470 736q-33 0 -63 13t-52.5 35.5t-35.5 52.5
t-13 63q0 34 13 63.5t35.5 52t52 35.5t63.5 13t64 -13t52 -35t35 -52t13 -64t-13 -63.5t-35.5 -52t-52 -35.5t-63.5 -13zM1470 1844q-34 0 -63.5 13t-52 35.5t-35.5 52t-13 63.5q0 33 13 62.5t35.5 52t52.5 36t63 13.5q34 0 63.5 -13t52 -35.5t35.5 -52t13 -63.5t-13 -64
t-35 -52t-52 -35t-64 -13zM1842 0q-34 0 -64 13t-52 35t-35 52t-13 64t13 63.5t35.5 52t52 35.5t63.5 13q36 0 65.5 -12.5t50 -35t32 -53t11.5 -65.5q0 -36 -11.5 -65.5t-32 -51t-50 -33.5t-65.5 -12zM1842 368q-34 0 -63.5 13t-52 35.5t-35.5 52t-13 63.5t13 64t35 52
t52 35t64 13q36 0 65 -12.5t50 -34.5t32.5 -52t11.5 -65t-11.5 -65t-32.5 -52t-50 -34.5t-65 -12.5zM1842 736q-34 0 -63.5 13t-52 35.5t-35.5 52t-13 63.5t13 64t35 52t52 35t64 13q36 0 65 -12.5t50 -34.5t32.5 -52t11.5 -65t-11.5 -65t-32.5 -52t-50 -34.5t-65 -12.5z
M1842 1104q-34 0 -63.5 13t-52 35.5t-35.5 52t-13 63.5t13 64t35 52t52 35t64 13q36 0 65 -12.5t50 -34.5t32.5 -52t11.5 -65t-11.5 -65t-32.5 -52t-50 -34.5t-65 -12.5zM1842 1476q-34 0 -64 13t-52 35t-35 52t-13 64t13 63.5t35.5 52t52 35.5t63.5 13q36 0 65.5 -12.5
t50 -35t32 -53t11.5 -65.5q0 -36 -11.5 -65.5t-32 -51t-50 -33.5t-65.5 -12z" />
    <glyph glyph-name="B" unicode="B" 
d="M366 0q-34 0 -64 13t-52 35t-35 52t-13 64t13 63.5t35.5 52t52 35.5t63.5 13q33 0 62.5 -13.5t52 -36t36 -52t13.5 -62.5q0 -34 -13 -63.5t-35.5 -52t-52 -35.5t-63.5 -13zM366 368q-34 0 -63.5 13t-52 35.5t-35.5 52t-13 63.5t13 64t35 52t52 35t64 13t63.5 -13
t52 -35.5t35.5 -52t13 -63.5q0 -33 -13.5 -63t-36 -52.5t-52 -35.5t-62.5 -13zM366 736q-34 0 -63.5 13t-52 35.5t-35.5 52t-13 63.5t13 64t35 52t52 35t64 13t63.5 -13t52 -35.5t35.5 -52t13 -63.5q0 -33 -13.5 -63t-36 -52.5t-52 -35.5t-62.5 -13zM366 1104
q-34 0 -63.5 13t-52 35.5t-35.5 52t-13 63.5t13 64t35 52t52 35t64 13t63.5 -13t52 -35.5t35.5 -52t13 -63.5q0 -33 -13.5 -63t-36 -52.5t-52 -35.5t-62.5 -13zM366 1476q-34 0 -64 13t-52 35t-35 52t-13 64t13 63.5t35.5 52t52 35.5t63.5 13q33 0 62.5 -13.5t52 -36t36 -52
t13.5 -62.5q0 -34 -13 -63.5t-35.5 -52t-52 -35.5t-63.5 -13zM366 1844q-34 0 -64 13t-52 35t-35 52t-13 64t13 63.5t35.5 52t52 35.5t63.5 13q33 0 62.5 -13.5t52 -36t36 -52t13.5 -62.5q0 -34 -13 -63.5t-35.5 -52t-52 -35.5t-63.5 -13zM734 0q-34 0 -63.5 13t-52 35.5
t-35.5 52t-13 63.5q0 33 13 62.5t35.5 52t52.5 36t63 13.5q34 0 63.5 -13t52 -35.5t35.5 -52t13 -63.5t-13 -64t-35 -52t-52 -35t-64 -13zM734 1104q-33 0 -63 13t-52.5 35.5t-35.5 52.5t-13 63q0 34 13 63.5t35.5 52t52 35.5t63.5 13t64 -13t52 -35t35 -52t13 -64
t-13 -63.5t-35.5 -52t-52 -35.5t-63.5 -13zM734 1844q-34 0 -63.5 13t-52 35.5t-35.5 52t-13 63.5q0 33 13 62.5t35.5 52t52.5 36t63 13.5q34 0 63.5 -13t52 -35.5t35.5 -52t13 -63.5t-13 -64t-35 -52t-52 -35t-64 -13zM1102 0q-34 0 -63.5 13t-52 35.5t-35.5 52t-13 63.5
q0 33 13 62.5t35.5 52t52.5 36t63 13.5q34 0 63.5 -13t52 -35.5t35.5 -52t13 -63.5t-13 -64t-35 -52t-52 -35t-64 -13zM1102 1104q-33 0 -63 13t-52.5 35.5t-35.5 52.5t-13 63q0 34 13 63.5t35.5 52t52 35.5t63.5 13t64 -13t52 -35t35 -52t13 -64t-13 -63.5t-35.5 -52
t-52 -35.5t-63.5 -13zM1102 1844q-34 0 -63.5 13t-52 35.5t-35.5 52t-13 63.5q0 33 13 62.5t35.5 52t52.5 36t63 13.5q34 0 63.5 -13t52 -35.5t35.5 -52t13 -63.5t-13 -64t-35 -52t-52 -35t-64 -13zM1470 0q-34 0 -63.5 13t-52 35.5t-35.5 52t-13 63.5q0 33 13 62.5t35.5 52
t52.5 36t63 13.5q34 0 63.5 -13t52 -35.5t35.5 -52t13 -63.5t-13 -64t-35 -52t-52 -35t-64 -13zM1470 1104q-33 0 -63 13t-52.5 35.5t-35.5 52.5t-13 63q0 34 13 63.5t35.5 52t52 35.5t63.5 13t64 -13t52 -35t35 -52t13 -64t-13 -63.5t-35.5 -52t-52 -35.5t-63.5 -13z
M1470 1844q-34 0 -63.5 13t-52 35.5t-35.5 52t-13 63.5q0 33 13 62.5t35.5 52t52.5 36t63 13.5q34 0 63.5 -13t52 -35.5t35.5 -52t13 -63.5t-13 -64t-35 -52t-52 -35t-64 -13zM1842 368q-34 0 -63.5 13t-52 35.5t-35.5 52t-13 63.5t13 64t35 52t52 35t64 13q36 0 65 -12.5
t50 -34.5t32.5 -52t11.5 -65t-11.5 -65t-32.5 -52t-50 -34.5t-65 -12.5zM1842 736q-34 0 -63.5 13t-52 35.5t-35.5 52t-13 63.5t13 64t35 52t52 35t64 13q36 0 65 -12.5t50 -34.5t32.5 -52t11.5 -65t-11.5 -65t-32.5 -52t-50 -34.5t-65 -12.5zM1842 1476q-34 0 -64 13
t-52 35t-35 52t-13 64t13 63.5t35.5 52t52 35.5t63.5 13q36 0 65.5 -12.5t50 -35t32 -53t11.5 -65.5q0 -36 -11.5 -65.5t-32 -51t-50 -33.5t-65.5 -12z" />
    <glyph glyph-name="C" unicode="C" 
d="M366 368q-34 0 -63.5 13t-52 35.5t-35.5 52t-13 63.5t13 64t35 52t52 35t64 13t63.5 -13t52 -35.5t35.5 -52t13 -63.5q0 -33 -13.5 -63t-36 -52.5t-52 -35.5t-62.5 -13zM366 736q-34 0 -63.5 13t-52 35.5t-35.5 52t-13 63.5t13 64t35 52t52 35t64 13t63.5 -13t52 -35.5
t35.5 -52t13 -63.5q0 -33 -13.5 -63t-36 -52.5t-52 -35.5t-62.5 -13zM366 1104q-34 0 -63.5 13t-52 35.5t-35.5 52t-13 63.5t13 64t35 52t52 35t64 13t63.5 -13t52 -35.5t35.5 -52t13 -63.5q0 -33 -13.5 -63t-36 -52.5t-52 -35.5t-62.5 -13zM366 1476q-34 0 -64 13t-52 35
t-35 52t-13 64t13 63.5t35.5 52t52 35.5t63.5 13q33 0 62.5 -13.5t52 -36t36 -52t13.5 -62.5q0 -34 -13 -63.5t-35.5 -52t-52 -35.5t-63.5 -13zM734 0q-34 0 -63.5 13t-52 35.5t-35.5 52t-13 63.5q0 33 13 62.5t35.5 52t52.5 36t63 13.5q34 0 63.5 -13t52 -35.5t35.5 -52
t13 -63.5t-13 -64t-35 -52t-52 -35t-64 -13zM734 1844q-34 0 -63.5 13t-52 35.5t-35.5 52t-13 63.5q0 33 13 62.5t35.5 52t52.5 36t63 13.5q34 0 63.5 -13t52 -35.5t35.5 -52t13 -63.5t-13 -64t-35 -52t-52 -35t-64 -13zM1102 0q-34 0 -63.5 13t-52 35.5t-35.5 52t-13 63.5
q0 33 13 62.5t35.5 52t52.5 36t63 13.5q34 0 63.5 -13t52 -35.5t35.5 -52t13 -63.5t-13 -64t-35 -52t-52 -35t-64 -13zM1102 1844q-34 0 -63.5 13t-52 35.5t-35.5 52t-13 63.5q0 33 13 62.5t35.5 52t52.5 36t63 13.5q34 0 63.5 -13t52 -35.5t35.5 -52t13 -63.5t-13 -64
t-35 -52t-52 -35t-64 -13zM1470 0q-34 0 -63.5 13t-52 35.5t-35.5 52t-13 63.5q0 33 13 62.5t35.5 52t52.5 36t63 13.5q34 0 63.5 -13t52 -35.5t35.5 -52t13 -63.5t-13 -64t-35 -52t-52 -35t-64 -13zM1470 1844q-34 0 -63.5 13t-52 35.5t-35.5 52t-13 63.5q0 33 13 62.5
t35.5 52t52.5 36t63 13.5q34 0 63.5 -13t52 -35.5t35.5 -52t13 -63.5t-13 -64t-35 -52t-52 -35t-64 -13zM1842 368q-34 0 -63.5 13t-52 35.5t-35.5 52t-13 63.5t13 64t35 52t52 35t64 13q36 0 65 -12.5t50 -34.5t32.5 -52t11.5 -65t-11.5 -65t-32.5 -52t-50 -34.5t-65 -12.5
zM1842 1476q-34 0 -64 13t-52 35t-35 52t-13 64t13 63.5t35.5 52t52 35.5t63.5 13q36 0 65.5 -12.5t50 -35t32 -53t11.5 -65.5q0 -36 -11.5 -65.5t-32 -51t-50 -33.5t-65.5 -12z" />
    <glyph glyph-name="D" unicode="D" 
d="M366 0q-34 0 -64 13t-52 35t-35 52t-13 64t13 63.5t35.5 52t52 35.5t63.5 13q33 0 62.5 -13.5t52 -36t36 -52t13.5 -62.5q0 -34 -13 -63.5t-35.5 -52t-52 -35.5t-63.5 -13zM366 368q-34 0 -63.5 13t-52 35.5t-35.5 52t-13 63.5t13 64t35 52t52 35t64 13t63.5 -13
t52 -35.5t35.5 -52t13 -63.5q0 -33 -13.5 -63t-36 -52.5t-52 -35.5t-62.5 -13zM366 736q-34 0 -63.5 13t-52 35.5t-35.5 52t-13 63.5t13 64t35 52t52 35t64 13t63.5 -13t52 -35.5t35.5 -52t13 -63.5q0 -33 -13.5 -63t-36 -52.5t-52 -35.5t-62.5 -13zM366 1104
q-34 0 -63.5 13t-52 35.5t-35.5 52t-13 63.5t13 64t35 52t52 35t64 13t63.5 -13t52 -35.5t35.5 -52t13 -63.5q0 -33 -13.5 -63t-36 -52.5t-52 -35.5t-62.5 -13zM366 1476q-34 0 -64 13t-52 35t-35 52t-13 64t13 63.5t35.5 52t52 35.5t63.5 13q33 0 62.5 -13.5t52 -36t36 -52
t13.5 -62.5q0 -34 -13 -63.5t-35.5 -52t-52 -35.5t-63.5 -13zM366 1844q-34 0 -64 13t-52 35t-35 52t-13 64t13 63.5t35.5 52t52 35.5t63.5 13q33 0 62.5 -13.5t52 -36t36 -52t13.5 -62.5q0 -34 -13 -63.5t-35.5 -52t-52 -35.5t-63.5 -13zM734 0q-34 0 -63.5 13t-52 35.5
t-35.5 52t-13 63.5q0 33 13 62.5t35.5 52t52.5 36t63 13.5q34 0 63.5 -13t52 -35.5t35.5 -52t13 -63.5t-13 -64t-35 -52t-52 -35t-64 -13zM734 1844q-34 0 -63.5 13t-52 35.5t-35.5 52t-13 63.5q0 33 13 62.5t35.5 52t52.5 36t63 13.5q34 0 63.5 -13t52 -35.5t35.5 -52
t13 -63.5t-13 -64t-35 -52t-52 -35t-64 -13zM1102 0q-34 0 -63.5 13t-52 35.5t-35.5 52t-13 63.5q0 33 13 62.5t35.5 52t52.5 36t63 13.5q34 0 63.5 -13t52 -35.5t35.5 -52t13 -63.5t-13 -64t-35 -52t-52 -35t-64 -13zM1102 1844q-34 0 -63.5 13t-52 35.5t-35.5 52t-13 63.5
q0 33 13 62.5t35.5 52t52.5 36t63 13.5q34 0 63.5 -13t52 -35.5t35.5 -52t13 -63.5t-13 -64t-35 -52t-52 -35t-64 -13zM1470 0q-34 0 -63.5 13t-52 35.5t-35.5 52t-13 63.5q0 33 13 62.5t35.5 52t52.5 36t63 13.5q34 0 63.5 -13t52 -35.5t35.5 -52t13 -63.5t-13 -64t-35 -52
t-52 -35t-64 -13zM1470 1844q-34 0 -63.5 13t-52 35.5t-35.5 52t-13 63.5q0 33 13 62.5t35.5 52t52.5 36t63 13.5q34 0 63.5 -13t52 -35.5t35.5 -52t13 -63.5t-13 -64t-35 -52t-52 -35t-64 -13zM1842 368q-34 0 -63.5 13t-52 35.5t-35.5 52t-13 63.5t13 64t35 52t52 35
t64 13q36 0 65 -12.5t50 -34.5t32.5 -52t11.5 -65t-11.5 -65t-32.5 -52t-50 -34.5t-65 -12.5zM1842 736q-34 0 -63.5 13t-52 35.5t-35.5 52t-13 63.5t13 64t35 52t52 35t64 13q36 0 65 -12.5t50 -34.5t32.5 -52t11.5 -65t-11.5 -65t-32.5 -52t-50 -34.5t-65 -12.5z
M1842 1104q-34 0 -63.5 13t-52 35.5t-35.5 52t-13 63.5t13 64t35 52t52 35t64 13q36 0 65 -12.5t50 -34.5t32.5 -52t11.5 -65t-11.5 -65t-32.5 -52t-50 -34.5t-65 -12.5zM1842 1476q-34 0 -64 13t-52 35t-35 52t-13 64t13 63.5t35.5 52t52 35.5t63.5 13q36 0 65.5 -12.5
t50 -35t32 -53t11.5 -65.5q0 -36 -11.5 -65.5t-32 -51t-50 -33.5t-65.5 -12z" />
    <glyph glyph-name="E" unicode="E" 
d="M366 0q-34 0 -64 13t-52 35t-35 52t-13 64t13 63.5t35.5 52t52 35.5t63.5 13q33 0 62.5 -13.5t52 -36t36 -52t13.5 -62.5q0 -34 -13 -63.5t-35.5 -52t-52 -35.5t-63.5 -13zM366 368q-34 0 -63.5 13t-52 35.5t-35.5 52t-13 63.5t13 64t35 52t52 35t64 13t63.5 -13
t52 -35.5t35.5 -52t13 -63.5q0 -33 -13.5 -63t-36 -52.5t-52 -35.5t-62.5 -13zM366 736q-34 0 -63.5 13t-52 35.5t-35.5 52t-13 63.5t13 64t35 52t52 35t64 13t63.5 -13t52 -35.5t35.5 -52t13 -63.5q0 -33 -13.5 -63t-36 -52.5t-52 -35.5t-62.5 -13zM366 1104
q-34 0 -63.5 13t-52 35.5t-35.5 52t-13 63.5t13 64t35 52t52 35t64 13t63.5 -13t52 -35.5t35.5 -52t13 -63.5q0 -33 -13.5 -63t-36 -52.5t-52 -35.5t-62.5 -13zM366 1476q-34 0 -64 13t-52 35t-35 52t-13 64t13 63.5t35.5 52t52 35.5t63.5 13q33 0 62.5 -13.5t52 -36t36 -52
t13.5 -62.5q0 -34 -13 -63.5t-35.5 -52t-52 -35.5t-63.5 -13zM366 1844q-34 0 -64 13t-52 35t-35 52t-13 64t13 63.5t35.5 52t52 35.5t63.5 13q33 0 62.5 -13.5t52 -36t36 -52t13.5 -62.5q0 -34 -13 -63.5t-35.5 -52t-52 -35.5t-63.5 -13zM734 0q-34 0 -63.5 13t-52 35.5
t-35.5 52t-13 63.5q0 33 13 62.5t35.5 52t52.5 36t63 13.5q34 0 63.5 -13t52 -35.5t35.5 -52t13 -63.5t-13 -64t-35 -52t-52 -35t-64 -13zM734 1104q-33 0 -63 13t-52.5 35.5t-35.5 52.5t-13 63q0 34 13 63.5t35.5 52t52 35.5t63.5 13t64 -13t52 -35t35 -52t13 -64
t-13 -63.5t-35.5 -52t-52 -35.5t-63.5 -13zM734 1844q-34 0 -63.5 13t-52 35.5t-35.5 52t-13 63.5q0 33 13 62.5t35.5 52t52.5 36t63 13.5q34 0 63.5 -13t52 -35.5t35.5 -52t13 -63.5t-13 -64t-35 -52t-52 -35t-64 -13zM1102 0q-34 0 -63.5 13t-52 35.5t-35.5 52t-13 63.5
q0 33 13 62.5t35.5 52t52.5 36t63 13.5q34 0 63.5 -13t52 -35.5t35.5 -52t13 -63.5t-13 -64t-35 -52t-52 -35t-64 -13zM1102 1104q-33 0 -63 13t-52.5 35.5t-35.5 52.5t-13 63q0 34 13 63.5t35.5 52t52 35.5t63.5 13t64 -13t52 -35t35 -52t13 -64t-13 -63.5t-35.5 -52
t-52 -35.5t-63.5 -13zM1102 1844q-34 0 -63.5 13t-52 35.5t-35.5 52t-13 63.5q0 33 13 62.5t35.5 52t52.5 36t63 13.5q34 0 63.5 -13t52 -35.5t35.5 -52t13 -63.5t-13 -64t-35 -52t-52 -35t-64 -13zM1470 0q-34 0 -63.5 13t-52 35.5t-35.5 52t-13 63.5q0 33 13 62.5t35.5 52
t52.5 36t63 13.5q34 0 63.5 -13t52 -35.5t35.5 -52t13 -63.5t-13 -64t-35 -52t-52 -35t-64 -13zM1470 1104q-33 0 -63 13t-52.5 35.5t-35.5 52.5t-13 63q0 34 13 63.5t35.5 52t52 35.5t63.5 13t64 -13t52 -35t35 -52t13 -64t-13 -63.5t-35.5 -52t-52 -35.5t-63.5 -13z
M1470 1844q-34 0 -63.5 13t-52 35.5t-35.5 52t-13 63.5q0 33 13 62.5t35.5 52t52.5 36t63 13.5q34 0 63.5 -13t52 -35.5t35.5 -52t13 -63.5t-13 -64t-35 -52t-52 -35t-64 -13zM1842 0q-34 0 -64 13t-52 35t-35 52t-13 64t13 63.5t35.5 52t52 35.5t63.5 13q36 0 65.5 -12.5
t50 -35t32 -53t11.5 -65.5q0 -36 -11.5 -65.5t-32 -51t-50 -33.5t-65.5 -12zM1842 1844q-34 0 -64 13t-52 35t-35 52t-13 64t13 63.5t35.5 52t52 35.5t63.5 13q36 0 65.5 -12.5t50 -35t32 -53t11.5 -65.5q0 -36 -11.5 -65.5t-32 -51t-50 -33.5t-65.5 -12z" />
    <glyph glyph-name="F" unicode="F" 
d="M366 0q-34 0 -64 13t-52 35t-35 52t-13 64t13 63.5t35.5 52t52 35.5t63.5 13q33 0 62.5 -13.5t52 -36t36 -52t13.5 -62.5q0 -34 -13 -63.5t-35.5 -52t-52 -35.5t-63.5 -13zM366 368q-34 0 -63.5 13t-52 35.5t-35.5 52t-13 63.5t13 64t35 52t52 35t64 13t63.5 -13
t52 -35.5t35.5 -52t13 -63.5q0 -33 -13.5 -63t-36 -52.5t-52 -35.5t-62.5 -13zM366 736q-34 0 -63.5 13t-52 35.5t-35.5 52t-13 63.5t13 64t35 52t52 35t64 13t63.5 -13t52 -35.5t35.5 -52t13 -63.5q0 -33 -13.5 -63t-36 -52.5t-52 -35.5t-62.5 -13zM366 1104
q-34 0 -63.5 13t-52 35.5t-35.5 52t-13 63.5t13 64t35 52t52 35t64 13t63.5 -13t52 -35.5t35.5 -52t13 -63.5q0 -33 -13.5 -63t-36 -52.5t-52 -35.5t-62.5 -13zM366 1476q-34 0 -64 13t-52 35t-35 52t-13 64t13 63.5t35.5 52t52 35.5t63.5 13q33 0 62.5 -13.5t52 -36t36 -52
t13.5 -62.5q0 -34 -13 -63.5t-35.5 -52t-52 -35.5t-63.5 -13zM366 1844q-34 0 -64 13t-52 35t-35 52t-13 64t13 63.5t35.5 52t52 35.5t63.5 13q33 0 62.5 -13.5t52 -36t36 -52t13.5 -62.5q0 -34 -13 -63.5t-35.5 -52t-52 -35.5t-63.5 -13zM734 732q-33 0 -63 13t-52.5 35.5
t-35.5 52.5t-13 63q0 34 13 63.5t35.5 52t52 35.5t63.5 13t64 -13t52 -35t35 -52t13 -64t-13 -63.5t-35.5 -52t-52 -35.5t-63.5 -13zM734 1844q-34 0 -63.5 13t-52 35.5t-35.5 52t-13 63.5q0 33 13 62.5t35.5 52t52.5 36t63 13.5q34 0 63.5 -13t52 -35.5t35.5 -52t13 -63.5
t-13 -64t-35 -52t-52 -35t-64 -13zM1102 732q-33 0 -63 13t-52.5 35.5t-35.5 52.5t-13 63q0 34 13 63.5t35.5 52t52 35.5t63.5 13t64 -13t52 -35t35 -52t13 -64t-13 -63.5t-35.5 -52t-52 -35.5t-63.5 -13zM1102 1844q-34 0 -63.5 13t-52 35.5t-35.5 52t-13 63.5
q0 33 13 62.5t35.5 52t52.5 36t63 13.5q34 0 63.5 -13t52 -35.5t35.5 -52t13 -63.5t-13 -64t-35 -52t-52 -35t-64 -13zM1470 732q-33 0 -63 13t-52.5 35.5t-35.5 52.5t-13 63q0 34 13 63.5t35.5 52t52 35.5t63.5 13t64 -13t52 -35t35 -52t13 -64t-13 -63.5t-35.5 -52
t-52 -35.5t-63.5 -13zM1470 1844q-34 0 -63.5 13t-52 35.5t-35.5 52t-13 63.5q0 33 13 62.5t35.5 52t52.5 36t63 13.5q34 0 63.5 -13t52 -35.5t35.5 -52t13 -63.5t-13 -64t-35 -52t-52 -35t-64 -13zM1842 1844q-34 0 -64 13t-52 35t-35 52t-13 64t13 63.5t35.5 52t52 35.5
t63.5 13q36 0 65.5 -12.5t50 -35t32 -53t11.5 -65.5q0 -36 -11.5 -65.5t-32 -51t-50 -33.5t-65.5 -12z" />
    <glyph glyph-name="G" unicode="G" 
d="M366 368q-34 0 -63.5 13t-52 35.5t-35.5 52t-13 63.5t13 64t35 52t52 35t64 13t63.5 -13t52 -35.5t35.5 -52t13 -63.5q0 -33 -13.5 -63t-36 -52.5t-52 -35.5t-62.5 -13zM366 736q-34 0 -63.5 13t-52 35.5t-35.5 52t-13 63.5t13 64t35 52t52 35t64 13t63.5 -13t52 -35.5
t35.5 -52t13 -63.5q0 -33 -13.5 -63t-36 -52.5t-52 -35.5t-62.5 -13zM366 1104q-34 0 -63.5 13t-52 35.5t-35.5 52t-13 63.5t13 64t35 52t52 35t64 13t63.5 -13t52 -35.5t35.5 -52t13 -63.5q0 -33 -13.5 -63t-36 -52.5t-52 -35.5t-62.5 -13zM366 1476q-34 0 -64 13t-52 35
t-35 52t-13 64t13 63.5t35.5 52t52 35.5t63.5 13q33 0 62.5 -13.5t52 -36t36 -52t13.5 -62.5q0 -34 -13 -63.5t-35.5 -52t-52 -35.5t-63.5 -13zM734 0q-34 0 -63.5 13t-52 35.5t-35.5 52t-13 63.5q0 33 13 62.5t35.5 52t52.5 36t63 13.5q34 0 63.5 -13t52 -35.5t35.5 -52
t13 -63.5t-13 -64t-35 -52t-52 -35t-64 -13zM734 1844q-34 0 -63.5 13t-52 35.5t-35.5 52t-13 63.5q0 33 13 62.5t35.5 52t52.5 36t63 13.5q34 0 63.5 -13t52 -35.5t35.5 -52t13 -63.5t-13 -64t-35 -52t-52 -35t-64 -13zM1102 0q-34 0 -63.5 13t-52 35.5t-35.5 52t-13 63.5
q0 33 13 62.5t35.5 52t52.5 36t63 13.5q34 0 63.5 -13t52 -35.5t35.5 -52t13 -63.5t-13 -64t-35 -52t-52 -35t-64 -13zM1102 1844q-34 0 -63.5 13t-52 35.5t-35.5 52t-13 63.5q0 33 13 62.5t35.5 52t52.5 36t63 13.5q34 0 63.5 -13t52 -35.5t35.5 -52t13 -63.5t-13 -64
t-35 -52t-52 -35t-64 -13zM1470 0q-34 0 -63.5 13t-52 35.5t-35.5 52t-13 63.5q0 33 13 62.5t35.5 52t52.5 36t63 13.5q34 0 63.5 -13t52 -35.5t35.5 -52t13 -63.5t-13 -64t-35 -52t-52 -35t-64 -13zM1470 1844q-34 0 -63.5 13t-52 35.5t-35.5 52t-13 63.5q0 33 13 62.5
t35.5 52t52.5 36t63 13.5q34 0 63.5 -13t52 -35.5t35.5 -52t13 -63.5t-13 -64t-35 -52t-52 -35t-64 -13zM1842 368q-34 0 -63.5 13t-52 35.5t-35.5 52t-13 63.5t13 64t35 52t52 35t64 13q36 0 65 -12.5t50 -34.5t32.5 -52t11.5 -65t-11.5 -65t-32.5 -52t-50 -34.5t-65 -12.5
zM1842 1476q-34 0 -64 13t-52 35t-35 52t-13 64t13 63.5t35.5 52t52 35.5t63.5 13q36 0 65.5 -12.5t50 -35t32 -53t11.5 -65.5q0 -36 -11.5 -65.5t-32 -51t-50 -33.5t-65.5 -12zM1470 736q-33 0 -63 13t-52.5 35.5t-35.5 52.5t-13 63q0 34 13 63.5t35.5 52t52 35.5t63.5 13
t64 -13t52 -35t35 -52t13 -64t-13 -63.5t-35.5 -52t-52 -35.5t-63.5 -13zM1842 736q-34 0 -63.5 13t-52 35.5t-35.5 52t-13 63.5t13 64t35 52t52 35t64 13q36 0 65 -12.5t50 -34.5t32.5 -52t11.5 -65t-11.5 -65t-32.5 -52t-50 -34.5t-65 -12.5z" />
    <glyph glyph-name="H" unicode="H" 
d="M366 0q-34 0 -64 13t-52 35t-35 52t-13 64t13 63.5t35.5 52t52 35.5t63.5 13q33 0 62.5 -13.5t52 -36t36 -52t13.5 -62.5q0 -34 -13 -63.5t-35.5 -52t-52 -35.5t-63.5 -13zM366 368q-34 0 -63.5 13t-52 35.5t-35.5 52t-13 63.5t13 64t35 52t52 35t64 13t63.5 -13
t52 -35.5t35.5 -52t13 -63.5q0 -33 -13.5 -63t-36 -52.5t-52 -35.5t-62.5 -13zM366 736q-34 0 -63.5 13t-52 35.5t-35.5 52t-13 63.5t13 64t35 52t52 35t64 13t63.5 -13t52 -35.5t35.5 -52t13 -63.5q0 -33 -13.5 -63t-36 -52.5t-52 -35.5t-62.5 -13zM366 1104
q-34 0 -63.5 13t-52 35.5t-35.5 52t-13 63.5t13 64t35 52t52 35t64 13t63.5 -13t52 -35.5t35.5 -52t13 -63.5q0 -33 -13.5 -63t-36 -52.5t-52 -35.5t-62.5 -13zM366 1476q-34 0 -64 13t-52 35t-35 52t-13 64t13 63.5t35.5 52t52 35.5t63.5 13q33 0 62.5 -13.5t52 -36t36 -52
t13.5 -62.5q0 -34 -13 -63.5t-35.5 -52t-52 -35.5t-63.5 -13zM366 1844q-34 0 -64 13t-52 35t-35 52t-13 64q0 36 12.5 65t34.5 50t52 32.5t65 11.5t65 -11.5t52 -32.5t34.5 -50t12.5 -65q0 -34 -13 -63.5t-35.5 -52t-52 -35.5t-63.5 -13zM734 1104q-33 0 -63 13t-52.5 35.5
t-35.5 52.5t-13 63q0 34 13 63.5t35.5 52t52 35.5t63.5 13t64 -13t52 -35t35 -52t13 -64t-13 -63.5t-35.5 -52t-52 -35.5t-63.5 -13zM1102 1104q-33 0 -63 13t-52.5 35.5t-35.5 52.5t-13 63q0 34 13 63.5t35.5 52t52 35.5t63.5 13t64 -13t52 -35t35 -52t13 -64t-13 -63.5
t-35.5 -52t-52 -35.5t-63.5 -13zM1470 1104q-33 0 -63 13t-52.5 35.5t-35.5 52.5t-13 63q0 34 13 63.5t35.5 52t52 35.5t63.5 13t64 -13t52 -35t35 -52t13 -64t-13 -63.5t-35.5 -52t-52 -35.5t-63.5 -13zM1842 0q-34 0 -64 13t-52 35t-35 52t-13 64t13 63.5t35.5 52t52 35.5
t63.5 13q36 0 65.5 -12.5t50 -35t32 -53t11.5 -65.5q0 -36 -11.5 -65.5t-32 -51t-50 -33.5t-65.5 -12zM1842 368q-34 0 -63.5 13t-52 35.5t-35.5 52t-13 63.5t13 64t35 52t52 35t64 13q36 0 65 -12.5t50 -34.5t32.5 -52t11.5 -65t-11.5 -65t-32.5 -52t-50 -34.5t-65 -12.5z
M1842 736q-34 0 -63.5 13t-52 35.5t-35.5 52t-13 63.5t13 64t35 52t52 35t64 13q36 0 65 -12.5t50 -34.5t32.5 -52t11.5 -65t-11.5 -65t-32.5 -52t-50 -34.5t-65 -12.5zM1842 1104q-34 0 -63.5 13t-52 35.5t-35.5 52t-13 63.5t13 64t35 52t52 35t64 13q36 0 65 -12.5
t50 -34.5t32.5 -52t11.5 -65t-11.5 -65t-32.5 -52t-50 -34.5t-65 -12.5zM1842 1476q-34 0 -64 13t-52 35t-35 52t-13 64t13 63.5t35.5 52t52 35.5t63.5 13q36 0 65.5 -12.5t50 -35t32 -53t11.5 -65.5q0 -36 -11.5 -65.5t-32 -51t-50 -33.5t-65.5 -12zM1842 1844
q-34 0 -64 13t-52 35t-35 52t-13 64q0 35 12 64.5t34 50.5t51.5 33t64.5 12q36 0 65.5 -12t50.5 -33.5t33 -51t12 -65.5t-11.5 -65.5t-32 -51t-50 -33.5t-65.5 -12z" />
    <glyph glyph-name="I" unicode="I" 
d="M734 0q-34 0 -63.5 13t-52 35.5t-35.5 52t-13 63.5q0 33 13 62.5t35.5 52t52.5 36t63 13.5q34 0 63.5 -13t52 -35.5t35.5 -52t13 -63.5t-13 -64t-35 -52t-52 -35t-64 -13zM734 1844q-34 0 -63.5 13t-52 35.5t-35.5 52t-13 63.5q0 36 12.5 65t34.5 50t52 32.5t65 11.5
t65 -11.5t52 -32.5t34.5 -50t12.5 -65q0 -34 -13 -64t-35 -52t-52 -35t-64 -13zM1102 0q-34 0 -63.5 13t-52 35.5t-35.5 52t-13 63.5q0 33 13 62.5t35.5 52t52.5 36t63 13.5q34 0 63.5 -13t52 -35.5t35.5 -52t13 -63.5t-13 -64t-35 -52t-52 -35t-64 -13zM1102 368
q-36 0 -65 12.5t-50 34.5t-32.5 52t-11.5 65t11.5 65t32.5 52t50 34.5t65 12.5q34 0 64 -13t52 -35t35 -52t13 -64t-13 -63.5t-35.5 -52t-52 -35.5t-63.5 -13zM1102 736q-36 0 -65 12.5t-50 34.5t-32.5 52t-11.5 65t11.5 65t32.5 52t50 34.5t65 12.5q34 0 64 -13t52 -35
t35 -52t13 -64t-13 -63.5t-35.5 -52t-52 -35.5t-63.5 -13zM1102 1104q-36 0 -65 12.5t-50 34.5t-32.5 52t-11.5 65t11.5 65t32.5 52t50 34.5t65 12.5q34 0 64 -13t52 -35t35 -52t13 -64t-13 -63.5t-35.5 -52t-52 -35.5t-63.5 -13zM1102 1476q-36 0 -65 12.5t-50 34.5
t-32.5 52t-11.5 65t11.5 65t32.5 52t50 34.5t65 12.5q34 0 63.5 -13t52 -35.5t35.5 -52t13 -63.5t-13 -64t-35 -52t-52 -35t-64 -13zM1102 1844q-34 0 -63.5 13t-52 35.5t-35.5 52t-13 63.5q0 36 12.5 65t34.5 50t52 32.5t65 11.5t65 -11.5t52 -32.5t34.5 -50t12.5 -65
q0 -34 -13 -64t-35 -52t-52 -35t-64 -13zM1470 0q-34 0 -63.5 13t-52 35.5t-35.5 52t-13 63.5q0 33 13 62.5t35.5 52t52.5 36t63 13.5q34 0 63.5 -13t52 -35.5t35.5 -52t13 -63.5t-13 -64t-35 -52t-52 -35t-64 -13zM1470 1844q-34 0 -63.5 13t-52 35.5t-35.5 52t-13 63.5
q0 36 12.5 65t34.5 50t52 32.5t65 11.5t65 -11.5t52 -32.5t34.5 -50t12.5 -65q0 -34 -13 -64t-35 -52t-52 -35t-64 -13z" />
    <glyph glyph-name="J" unicode="J" 
d="M366 368q-34 0 -63.5 13t-52 35.5t-35.5 52t-13 63.5q0 36 12.5 65.5t34.5 50.5t52 32.5t65 11.5t65 -11.5t52 -32.5t34.5 -50.5t12.5 -65.5q0 -33 -13.5 -63t-36 -52.5t-52 -35.5t-62.5 -13zM734 0q-34 0 -63.5 13t-52 35.5t-35.5 52t-13 63.5q0 33 13 62.5t35.5 52
t52.5 36t63 13.5q34 0 63.5 -13t52 -35.5t35.5 -52t13 -63.5t-13 -64t-35 -52t-52 -35t-64 -13zM734 1844q-34 0 -63.5 13t-52 35.5t-35.5 52t-13 63.5q0 36 12.5 65t34.5 50t52 32.5t65 11.5t65 -11.5t52 -32.5t34.5 -50t12.5 -65q0 -34 -13 -64t-35 -52t-52 -35t-64 -13z
M1102 0q-34 0 -63.5 13t-52 35.5t-35.5 52t-13 63.5q0 33 13 62.5t35.5 52t52.5 36t63 13.5q34 0 63.5 -13t52 -35.5t35.5 -52t13 -63.5t-13 -64t-35 -52t-52 -35t-64 -13zM1102 1844q-34 0 -63.5 13t-52 35.5t-35.5 52t-13 63.5q0 36 12.5 65t34.5 50t52 32.5t65 11.5
t65 -11.5t52 -32.5t34.5 -50t12.5 -65q0 -34 -13 -64t-35 -52t-52 -35t-64 -13zM1470 0q-34 0 -63.5 13t-52 35.5t-35.5 52t-13 63.5q0 33 13 62.5t35.5 52t52.5 36t63 13.5q34 0 63.5 -13t52 -35.5t35.5 -52t13 -63.5t-13 -64t-35 -52t-52 -35t-64 -13zM1470 1844
q-34 0 -63.5 13t-52 35.5t-35.5 52t-13 63.5q0 36 12.5 65t34.5 50t52 32.5t65 11.5t65 -11.5t52 -32.5t34.5 -50t12.5 -65q0 -34 -13 -64t-35 -52t-52 -35t-64 -13zM1842 368q-34 0 -63.5 13t-52 35.5t-35.5 52t-13 63.5t13 64t35 52t52 35t64 13q36 0 65 -12.5t50 -34.5
t32.5 -52t11.5 -65t-11.5 -65t-32.5 -52t-50 -34.5t-65 -12.5zM1842 736q-34 0 -63.5 13t-52 35.5t-35.5 52t-13 63.5t13 64t35 52t52 35t64 13q36 0 65 -12.5t50 -34.5t32.5 -52t11.5 -65t-11.5 -65t-32.5 -52t-50 -34.5t-65 -12.5zM1842 1104q-34 0 -63.5 13t-52 35.5
t-35.5 52t-13 63.5t13 64t35 52t52 35t64 13q36 0 65 -12.5t50 -34.5t32.5 -52t11.5 -65t-11.5 -65t-32.5 -52t-50 -34.5t-65 -12.5zM1842 1476q-34 0 -64 13t-52 35t-35 52t-13 64t13 63.5t35.5 52t52 35.5t63.5 13q36 0 65.5 -12.5t50 -35t32 -53t11.5 -65.5
q0 -36 -11.5 -65.5t-32 -51t-50 -33.5t-65.5 -12zM1842 1844q-34 0 -64 13t-52 35t-35 52t-13 64q0 35 12 64.5t34 50.5t51.5 33t64.5 12q36 0 65.5 -12t50.5 -33.5t33 -51t12 -65.5t-11.5 -65.5t-32 -51t-50 -33.5t-65.5 -12z" />
    <glyph glyph-name="K" unicode="K" 
d="M366 0q-34 0 -64 13t-52 35t-35 52t-13 64t13 63.5t35.5 52t52 35.5t63.5 13q33 0 62.5 -13.5t52 -36t36 -52t13.5 -62.5q0 -34 -13 -63.5t-35.5 -52t-52 -35.5t-63.5 -13zM366 368q-34 0 -63.5 13t-52 35.5t-35.5 52t-13 63.5t13 64t35 52t52 35t64 13t63.5 -13
t52 -35.5t35.5 -52t13 -63.5q0 -33 -13.5 -63t-36 -52.5t-52 -35.5t-62.5 -13zM366 736q-34 0 -63.5 13t-52 35.5t-35.5 52t-13 63.5t13 64t35 52t52 35t64 13t63.5 -13t52 -35.5t35.5 -52t13 -63.5q0 -33 -13.5 -63t-36 -52.5t-52 -35.5t-62.5 -13zM366 1104
q-34 0 -63.5 13t-52 35.5t-35.5 52t-13 63.5t13 64t35 52t52 35t64 13t63.5 -13t52 -35.5t35.5 -52t13 -63.5q0 -33 -13.5 -63t-36 -52.5t-52 -35.5t-62.5 -13zM366 1476q-34 0 -64 13t-52 35t-35 52t-13 64t13 63.5t35.5 52t52 35.5t63.5 13q33 0 62.5 -13.5t52 -36t36 -52
t13.5 -62.5q0 -34 -13 -63.5t-35.5 -52t-52 -35.5t-63.5 -13zM366 1844q-34 0 -64 13t-52 35t-35 52t-13 64q0 36 12.5 65t34.5 50t52 32.5t65 11.5t65 -11.5t52 -32.5t34.5 -50t12.5 -65q0 -34 -13 -63.5t-35.5 -52t-52 -35.5t-63.5 -13zM734 736q-33 0 -63 13t-52.5 35.5
t-35.5 52.5t-13 63q0 34 13 63.5t35.5 52t52 35.5t63.5 13t64 -13t52 -35t35 -52t13 -64t-13 -63.5t-35.5 -52t-52 -35.5t-63.5 -13zM1102 736q-33 0 -63 13t-52.5 35.5t-35.5 52.5t-13 63q0 34 13 63.5t35.5 52t52 35.5t63.5 13t64 -13t52 -35t35 -52t13 -64t-13 -63.5
t-35.5 -52t-52 -35.5t-63.5 -13zM1102 1104q-33 0 -63 13t-52.5 35.5t-35.5 52.5t-13 63q0 34 13 63.5t35.5 52t52 35.5t63.5 13t64 -13t52 -35t35 -52t13 -64t-13 -63.5t-35.5 -52t-52 -35.5t-63.5 -13zM1470 368q-33 0 -63 13t-52.5 35.5t-35.5 52.5t-13 63q0 34 13 63.5
t35.5 52t52 35.5t63.5 13t64 -13t52 -35t35 -52t13 -64t-13 -63.5t-35.5 -52t-52 -35.5t-63.5 -13zM1470 1476q-34 0 -63.5 13t-52 35.5t-35.5 52t-13 63.5q0 33 13 62.5t35.5 52t52.5 36t63 13.5q34 0 63.5 -13t52 -35.5t35.5 -52t13 -63.5t-13 -64t-35 -52t-52 -35
t-64 -13zM1842 0q-34 0 -64 13t-52 35t-35 52t-13 64t13 63.5t35.5 52t52 35.5t63.5 13q36 0 65.5 -12.5t50 -35t32 -53t11.5 -65.5q0 -36 -11.5 -65.5t-32 -51t-50 -33.5t-65.5 -12zM1842 1844q-34 0 -64 13t-52 35t-35 52t-13 64q0 35 12 64.5t34 50.5t51.5 33t64.5 12
q36 0 65.5 -12t50.5 -33.5t33 -51t12 -65.5t-11.5 -65.5t-32 -51t-50 -33.5t-65.5 -12z" />
    <glyph glyph-name="L" unicode="L" 
d="M366 0q-34 0 -64 13t-52 35t-35 52t-13 64t13 63.5t35.5 52t52 35.5t63.5 13q33 0 62.5 -13.5t52 -36t36 -52t13.5 -62.5q0 -34 -13 -63.5t-35.5 -52t-52 -35.5t-63.5 -13zM366 368q-34 0 -63.5 13t-52 35.5t-35.5 52t-13 63.5t13 64t35 52t52 35t64 13t63.5 -13
t52 -35.5t35.5 -52t13 -63.5q0 -33 -13.5 -63t-36 -52.5t-52 -35.5t-62.5 -13zM366 736q-34 0 -63.5 13t-52 35.5t-35.5 52t-13 63.5t13 64t35 52t52 35t64 13t63.5 -13t52 -35.5t35.5 -52t13 -63.5q0 -33 -13.5 -63t-36 -52.5t-52 -35.5t-62.5 -13zM366 1104
q-34 0 -63.5 13t-52 35.5t-35.5 52t-13 63.5t13 64t35 52t52 35t64 13t63.5 -13t52 -35.5t35.5 -52t13 -63.5q0 -33 -13.5 -63t-36 -52.5t-52 -35.5t-62.5 -13zM366 1476q-34 0 -64 13t-52 35t-35 52t-13 64t13 63.5t35.5 52t52 35.5t63.5 13q33 0 62.5 -13.5t52 -36t36 -52
t13.5 -62.5q0 -34 -13 -63.5t-35.5 -52t-52 -35.5t-63.5 -13zM366 1844q-34 0 -64 13t-52 35t-35 52t-13 64t13 63.5t35.5 52t52 35.5t63.5 13q33 0 62.5 -13.5t52 -36t36 -52t13.5 -62.5q0 -34 -13 -63.5t-35.5 -52t-52 -35.5t-63.5 -13zM734 0q-34 0 -63.5 13t-52 35.5
t-35.5 52t-13 63.5q0 33 13 62.5t35.5 52t52.5 36t63 13.5q34 0 63.5 -13t52 -35.5t35.5 -52t13 -63.5t-13 -64t-35 -52t-52 -35t-64 -13zM1102 0q-34 0 -63.5 13t-52 35.5t-35.5 52t-13 63.5q0 33 13 62.5t35.5 52t52.5 36t63 13.5q34 0 63.5 -13t52 -35.5t35.5 -52
t13 -63.5t-13 -64t-35 -52t-52 -35t-64 -13zM1470 0q-34 0 -63.5 13t-52 35.5t-35.5 52t-13 63.5q0 33 13 62.5t35.5 52t52.5 36t63 13.5q34 0 63.5 -13t52 -35.5t35.5 -52t13 -63.5t-13 -64t-35 -52t-52 -35t-64 -13zM1842 0q-34 0 -64 13t-52 35t-35 52t-13 64t13 63.5
t35.5 52t52 35.5t63.5 13q36 0 65.5 -12.5t50 -35t32 -53t11.5 -65.5q0 -36 -11.5 -65.5t-32 -51t-50 -33.5t-65.5 -12z" />
    <glyph glyph-name="M" unicode="M" 
d="M366 0q-34 0 -64 13t-52 35t-35 52t-13 64t13 63.5t35.5 52t52 35.5t63.5 13q36 0 65 -12.5t50 -34.5t32.5 -52t11.5 -65t-11.5 -65t-32.5 -52t-50 -34.5t-65 -12.5zM366 368q-34 0 -63.5 13t-52 35.5t-35.5 52t-13 63.5t13 64t35 52t52 35t64 13q36 0 65 -12.5t50 -34.5
t32.5 -52t11.5 -65t-11.5 -65t-32.5 -52t-50 -34.5t-65 -12.5zM366 736q-34 0 -63.5 13t-52 35.5t-35.5 52t-13 63.5t13 64t35 52t52 35t64 13q36 0 65 -12.5t50 -34.5t32.5 -52t11.5 -65t-11.5 -65t-32.5 -52t-50 -34.5t-65 -12.5zM366 1104q-34 0 -63.5 13t-52 35.5
t-35.5 52t-13 63.5t13 64t35 52t52 35t64 13t63.5 -13t52 -35.5t35.5 -52t13 -63.5q0 -33 -13.5 -63t-36 -52.5t-52 -35.5t-62.5 -13zM366 1476q-34 0 -64 13t-52 35t-35 52t-13 64t13 63.5t35.5 52t52 35.5t63.5 13q33 0 62.5 -13.5t52 -36t36 -52t13.5 -62.5
q0 -34 -13 -63.5t-35.5 -52t-52 -35.5t-63.5 -13zM366 1844q-34 0 -64 13t-52 35t-35 52t-13 64q0 36 12.5 65t34.5 50t52 32.5t65 11.5t65 -11.5t52 -32.5t34.5 -50t12.5 -65q0 -34 -13 -63.5t-35.5 -52t-52 -35.5t-63.5 -13zM734 1476q-34 0 -63.5 13t-52 35.5t-35.5 52
t-13 63.5q0 33 13 62.5t35.5 52t52.5 36t63 13.5q34 0 63.5 -13t52 -35.5t35.5 -52t13 -63.5t-13 -64t-35 -52t-52 -35t-64 -13zM1102 1104q-33 0 -63 13t-52.5 35.5t-35.5 52.5t-13 63q0 34 13 63.5t35.5 52t52 35.5t63.5 13t64 -13t52 -35t35 -52t13 -64t-13 -63.5
t-35.5 -52t-52 -35.5t-63.5 -13zM1470 1476q-34 0 -63.5 13t-52 35.5t-35.5 52t-13 63.5q0 33 13 62.5t35.5 52t52.5 36t63 13.5q34 0 63.5 -13t52 -35.5t35.5 -52t13 -63.5t-13 -64t-35 -52t-52 -35t-64 -13zM1842 0q-34 0 -64 13t-52 35t-35 52t-13 64t13 63.5t35.5 52
t52 35.5t63.5 13q36 0 65.5 -12.5t50 -35t32 -53t11.5 -65.5q0 -36 -11.5 -65.5t-32 -51t-50 -33.5t-65.5 -12zM1842 368q-34 0 -63.5 13t-52 35.5t-35.5 52t-13 63.5t13 64t35 52t52 35t64 13q36 0 65 -12.5t50 -34.5t32.5 -52t11.5 -65t-11.5 -65t-32.5 -52t-50 -34.5
t-65 -12.5zM1842 736q-34 0 -63.5 13t-52 35.5t-35.5 52t-13 63.5t13 64t35 52t52 35t64 13q36 0 65 -12.5t50 -34.5t32.5 -52t11.5 -65t-11.5 -65t-32.5 -52t-50 -34.5t-65 -12.5zM1842 1104q-34 0 -63.5 13t-52 35.5t-35.5 52t-13 63.5t13 64t35 52t52 35t64 13
q36 0 65 -12.5t50 -34.5t32.5 -52t11.5 -65t-11.5 -65t-32.5 -52t-50 -34.5t-65 -12.5zM1842 1476q-34 0 -64 13t-52 35t-35 52t-13 64t13 63.5t35.5 52t52 35.5t63.5 13q36 0 65.5 -12.5t50 -35t32 -53t11.5 -65.5q0 -36 -11.5 -65.5t-32 -51t-50 -33.5t-65.5 -12z
M1842 1844q-34 0 -64 13t-52 35t-35 52t-13 64q0 35 12 64.5t34 50.5t51.5 33t64.5 12q36 0 65.5 -12t50.5 -33.5t33 -51t12 -65.5t-11.5 -65.5t-32 -51t-50 -33.5t-65.5 -12z" />
    <glyph glyph-name="N" unicode="N" 
d="M366 0q-34 0 -64 13t-52 35t-35 52t-13 64t13 63.5t35.5 52t52 35.5t63.5 13q33 0 62.5 -13.5t52 -36t36 -52t13.5 -62.5q0 -34 -13 -63.5t-35.5 -52t-52 -35.5t-63.5 -13zM366 368q-34 0 -63.5 13t-52 35.5t-35.5 52t-13 63.5t13 64t35 52t52 35t64 13t63.5 -13
t52 -35.5t35.5 -52t13 -63.5q0 -33 -13.5 -63t-36 -52.5t-52 -35.5t-62.5 -13zM366 736q-34 0 -63.5 13t-52 35.5t-35.5 52t-13 63.5t13 64t35 52t52 35t64 13t63.5 -13t52 -35.5t35.5 -52t13 -63.5q0 -33 -13.5 -63t-36 -52.5t-52 -35.5t-62.5 -13zM366 1104
q-34 0 -63.5 13t-52 35.5t-35.5 52t-13 63.5t13 64t35 52t52 35t64 13t63.5 -13t52 -35.5t35.5 -52t13 -63.5q0 -33 -13.5 -63t-36 -52.5t-52 -35.5t-62.5 -13zM366 1476q-34 0 -64 13t-52 35t-35 52t-13 64t13 63.5t35.5 52t52 35.5t63.5 13q33 0 62.5 -13.5t52 -36t36 -52
t13.5 -62.5q0 -34 -13 -63.5t-35.5 -52t-52 -35.5t-63.5 -13zM366 1844q-34 0 -64 13t-52 35t-35 52t-13 64q0 36 12.5 65t34.5 50t52 32.5t65 11.5t65 -11.5t52 -32.5t34.5 -50t12.5 -65q0 -34 -13 -63.5t-35.5 -52t-52 -35.5t-63.5 -13zM734 1476q-34 0 -63.5 13t-52 35.5
t-35.5 52t-13 63.5q0 33 13 62.5t35.5 52t52.5 36t63 13.5q34 0 63.5 -13t52 -35.5t35.5 -52t13 -63.5t-13 -64t-35 -52t-52 -35t-64 -13zM1102 1104q-33 0 -63 13t-52.5 35.5t-35.5 52.5t-13 63q0 34 13 63.5t35.5 52t52 35.5t63.5 13t64 -13t52 -35t35 -52t13 -64
t-13 -63.5t-35.5 -52t-52 -35.5t-63.5 -13zM1470 736q-33 0 -63 13t-52.5 35.5t-35.5 52.5t-13 63q0 34 13 63.5t35.5 52t52 35.5t63.5 13t64 -13t52 -35t35 -52t13 -64t-13 -63.5t-35.5 -52t-52 -35.5t-63.5 -13zM1842 0q-34 0 -64 13t-52 35t-35 52t-13 64t13 63.5
t35.5 52t52 35.5t63.5 13q36 0 65.5 -12.5t50 -35t32 -53t11.5 -65.5q0 -36 -11.5 -65.5t-32 -51t-50 -33.5t-65.5 -12zM1842 368q-34 0 -63.5 13t-52 35.5t-35.5 52t-13 63.5t13 64t35 52t52 35t64 13q36 0 65 -12.5t50 -34.5t32.5 -52t11.5 -65t-11.5 -65t-32.5 -52
t-50 -34.5t-65 -12.5zM1842 736q-34 0 -63.5 13t-52 35.5t-35.5 52t-13 63.5t13 64t35 52t52 35t64 13q36 0 65 -12.5t50 -34.5t32.5 -52t11.5 -65t-11.5 -65t-32.5 -52t-50 -34.5t-65 -12.5zM1842 1104q-34 0 -63.5 13t-52 35.5t-35.5 52t-13 63.5t13 64t35 52t52 35t64 13
q36 0 65 -12.5t50 -34.5t32.5 -52t11.5 -65t-11.5 -65t-32.5 -52t-50 -34.5t-65 -12.5zM1842 1476q-34 0 -64 13t-52 35t-35 52t-13 64t13 63.5t35.5 52t52 35.5t63.5 13q36 0 65.5 -12.5t50 -35t32 -53t11.5 -65.5q0 -36 -11.5 -65.5t-32 -51t-50 -33.5t-65.5 -12z
M1842 1844q-34 0 -64 13t-52 35t-35 52t-13 64q0 35 12 64.5t34 50.5t51.5 33t64.5 12q36 0 65.5 -12t50.5 -33.5t33 -51.5t12 -65q0 -36 -11.5 -65.5t-32 -51t-50 -33.5t-65.5 -12z" />
    <glyph glyph-name="O" unicode="O" 
d="M366 368q-34 0 -63.5 13t-52 35.5t-35.5 52t-13 63.5t13 64t35 52t52 35t64 13t63.5 -13t52 -35.5t35.5 -52t13 -63.5q0 -33 -13.5 -63t-36 -52.5t-52 -35.5t-62.5 -13zM366 736q-34 0 -63.5 13t-52 35.5t-35.5 52t-13 63.5t13 64t35 52t52 35t64 13t63.5 -13t52 -35.5
t35.5 -52t13 -63.5q0 -33 -13.5 -63t-36 -52.5t-52 -35.5t-62.5 -13zM366 1104q-34 0 -63.5 13t-52 35.5t-35.5 52t-13 63.5t13 64t35 52t52 35t64 13t63.5 -13t52 -35.5t35.5 -52t13 -63.5q0 -33 -13.5 -63t-36 -52.5t-52 -35.5t-62.5 -13zM366 1476q-34 0 -64 13t-52 35
t-35 52t-13 64t13 63.5t35.5 52t52 35.5t63.5 13q33 0 62.5 -13.5t52 -36t36 -52t13.5 -62.5q0 -34 -13 -63.5t-35.5 -52t-52 -35.5t-63.5 -13zM734 0q-34 0 -63.5 13t-52 35.5t-35.5 52t-13 63.5q0 33 13 62.5t35.5 52t52.5 36t63 13.5q34 0 63.5 -13t52 -35.5t35.5 -52
t13 -63.5t-13 -64t-35 -52t-52 -35t-64 -13zM734 1844q-34 0 -63.5 13t-52 35.5t-35.5 52t-13 63.5q0 33 13 62.5t35.5 52t52.5 36t63 13.5q34 0 63.5 -13t52 -35.5t35.5 -52t13 -63.5t-13 -64t-35 -52t-52 -35t-64 -13zM1102 0q-34 0 -63.5 13t-52 35.5t-35.5 52t-13 63.5
q0 33 13 62.5t35.5 52t52.5 36t63 13.5q34 0 63.5 -13t52 -35.5t35.5 -52t13 -63.5t-13 -64t-35 -52t-52 -35t-64 -13zM1102 1844q-34 0 -63.5 13t-52 35.5t-35.5 52t-13 63.5q0 33 13 62.5t35.5 52t52.5 36t63 13.5q34 0 63.5 -13t52 -35.5t35.5 -52t13 -63.5t-13 -64
t-35 -52t-52 -35t-64 -13zM1470 0q-34 0 -63.5 13t-52 35.5t-35.5 52t-13 63.5q0 33 13 62.5t35.5 52t52.5 36t63 13.5q34 0 63.5 -13t52 -35.5t35.5 -52t13 -63.5t-13 -64t-35 -52t-52 -35t-64 -13zM1470 1844q-34 0 -63.5 13t-52 35.5t-35.5 52t-13 63.5q0 33 13 62.5
t35.5 52t52.5 36t63 13.5q34 0 63.5 -13t52 -35.5t35.5 -52t13 -63.5t-13 -64t-35 -52t-52 -35t-64 -13zM1842 368q-34 0 -63.5 13t-52 35.5t-35.5 52t-13 63.5t13 64t35 52t52 35t64 13q36 0 65 -12.5t50 -34.5t32.5 -52t11.5 -65t-11.5 -65t-32.5 -52t-50 -34.5t-65 -12.5
zM1842 736q-34 0 -63.5 13t-52 35.5t-35.5 52t-13 63.5t13 64t35 52t52 35t64 13q36 0 65 -12.5t50 -34.5t32.5 -52t11.5 -65t-11.5 -65t-32.5 -52t-50 -34.5t-65 -12.5zM1842 1104q-34 0 -63.5 13t-52 35.5t-35.5 52t-13 63.5t13 64t35 52t52 35t64 13q36 0 65 -12.5
t50 -34.5t32.5 -52t11.5 -65t-11.5 -65t-32.5 -52t-50 -34.5t-65 -12.5zM1842 1476q-34 0 -64 13t-52 35t-35 52t-13 64t13 63.5t35.5 52t52 35.5t63.5 13q36 0 65.5 -12.5t50 -35t32 -53t11.5 -65.5q0 -36 -11.5 -65.5t-32 -51t-50 -33.5t-65.5 -12z" />
    <glyph glyph-name="P" unicode="P" 
d="M1842 1436q36 0 65 -12.5t50 -34.5t32.5 -52t11.5 -65t-11.5 -65t-32.5 -52t-50 -34.5t-65 -12.5q-34 0 -64 13t-52 35t-35 52t-13 64t13 63.5t35.5 52t52 35.5t63.5 13zM1842 1804q36 0 65 -12.5t50 -34.5t32.5 -52t11.5 -65t-11.5 -65t-32.5 -52t-50 -34.5t-65 -12.5
q-34 0 -64 13t-52 35t-35 52t-13 64t13 63.5t35.5 52t52 35.5t63.5 13zM1470 1068q34 0 63.5 -13t52 -35.5t35.5 -52t13 -63.5t-13 -64t-35 -52t-52 -35t-64 -13t-63.5 13t-52 35.5t-35.5 52t-13 63.5q0 33 13 62.5t35.5 52t52.5 36t63 13.5zM1470 2172q34 0 64 -13t52 -35
t35 -52t13 -64t-13 -63.5t-35.5 -52t-52 -35.5t-63.5 -13q-33 0 -63 13t-52.5 35.5t-35.5 52.5t-13 63q0 34 13 63.5t35.5 52t52 35.5t63.5 13zM1102 1068q34 0 63.5 -13t52 -35.5t35.5 -52t13 -63.5t-13 -64t-35 -52t-52 -35t-64 -13t-63.5 13t-52 35.5t-35.5 52t-13 63.5
q0 33 13 62.5t35.5 52t52.5 36t63 13.5zM1102 2172q34 0 64 -13t52 -35t35 -52t13 -64t-13 -63.5t-35.5 -52t-52 -35.5t-63.5 -13q-33 0 -63 13t-52.5 35.5t-35.5 52.5t-13 63q0 34 13 63.5t35.5 52t52 35.5t63.5 13zM734 1068q34 0 63.5 -13t52 -35.5t35.5 -52t13 -63.5
t-13 -64t-35 -52t-52 -35t-64 -13t-63.5 13t-52 35.5t-35.5 52t-13 63.5q0 33 13 62.5t35.5 52t52.5 36t63 13.5zM734 2172q34 0 64 -13t52 -35t35 -52t13 -64t-13 -63.5t-35.5 -52t-52 -35.5t-63.5 -13q-33 0 -63 13t-52.5 35.5t-35.5 52.5t-13 63q0 34 13 63.5t35.5 52
t52 35.5t63.5 13zM366 328q34 0 63.5 -13t52 -35.5t35.5 -52t13 -63.5q0 -33 -13.5 -63t-36 -52.5t-52 -35.5t-62.5 -13q-34 0 -63.5 13t-52 35.5t-35.5 52t-13 63.5t13 64t35 52t52 35t64 13zM366 696q34 0 63.5 -13t52 -35.5t35.5 -52t13 -63.5q0 -33 -13.5 -63t-36 -52.5
t-52 -35.5t-62.5 -13q-34 0 -63.5 13t-52 35.5t-35.5 52t-13 63.5t13 64t35 52t52 35t64 13zM366 1068q33 0 62.5 -13.5t52 -36t36 -52t13.5 -62.5q0 -34 -13 -63.5t-35.5 -52t-52 -35.5t-63.5 -13t-64 13t-52 35t-35 52t-13 64t13 63.5t35.5 52t52 35.5t63.5 13zM366 1436
q33 0 62.5 -13.5t52 -36t36 -52t13.5 -62.5q0 -34 -13 -63.5t-35.5 -52t-52 -35.5t-63.5 -13t-64 13t-52 35t-35 52t-13 64t13 63.5t35.5 52t52 35.5t63.5 13zM366 1804q33 0 62.5 -13.5t52 -36t36 -52t13.5 -62.5q0 -34 -13 -63.5t-35.5 -52t-52 -35.5t-63.5 -13t-64 13
t-52 35t-35 52t-13 64t13 63.5t35.5 52t52 35.5t63.5 13zM366 2172q34 0 63.5 -13t52 -35.5t35.5 -52t13 -63.5q0 -33 -13.5 -63t-36 -52.5t-52 -35.5t-62.5 -13q-34 0 -63.5 13t-52 35.5t-35.5 52t-13 63.5t13 64t35 52t52 35t64 13z" />
    <glyph glyph-name="Q" unicode="Q" 
d="M366 368q-34 0 -63.5 13t-52 35.5t-35.5 52t-13 63.5t13 64t35 52t52 35t64 13t63.5 -13t52 -35.5t35.5 -52t13 -63.5q0 -33 -13.5 -63t-36 -52.5t-52 -35.5t-62.5 -13zM366 736q-34 0 -63.5 13t-52 35.5t-35.5 52t-13 63.5t13 64t35 52t52 35t64 13t63.5 -13t52 -35.5
t35.5 -52t13 -63.5q0 -33 -13.5 -63t-36 -52.5t-52 -35.5t-62.5 -13zM366 1104q-34 0 -63.5 13t-52 35.5t-35.5 52t-13 63.5t13 64t35 52t52 35t64 13t63.5 -13t52 -35.5t35.5 -52t13 -63.5q0 -33 -13.5 -63t-36 -52.5t-52 -35.5t-62.5 -13zM366 1476q-34 0 -64 13t-52 35
t-35 52t-13 64t13 63.5t35.5 52t52 35.5t63.5 13q33 0 62.5 -13.5t52 -36t36 -52t13.5 -62.5q0 -34 -13 -63.5t-35.5 -52t-52 -35.5t-63.5 -13zM734 0q-34 0 -63.5 13t-52 35.5t-35.5 52t-13 63.5q0 33 13 62.5t35.5 52t52.5 36t63 13.5q34 0 63.5 -13t52 -35.5t35.5 -52
t13 -63.5t-13 -64t-35 -52t-52 -35t-64 -13zM734 1844q-34 0 -63.5 13t-52 35.5t-35.5 52t-13 63.5q0 36 12.5 65t34.5 50t52 32.5t65 11.5t65 -11.5t52 -32.5t34.5 -50t12.5 -65q0 -34 -13 -64t-35 -52t-52 -35t-64 -13zM1102 0q-34 0 -63.5 13t-52 35.5t-35.5 52t-13 63.5
q0 33 13 62.5t35.5 52t52.5 36t63 13.5q34 0 63.5 -13t52 -35.5t35.5 -52t13 -63.5t-13 -64t-35 -52t-52 -35t-64 -13zM1102 736q-33 0 -63 13t-52.5 35.5t-35.5 52.5t-13 63q0 34 13 63.5t35.5 52t52 35.5t63.5 13t64 -13t52 -35t35 -52t13 -64t-13 -63.5t-35.5 -52
t-52 -35.5t-63.5 -13zM1102 1844q-34 0 -63.5 13t-52 35.5t-35.5 52t-13 63.5q0 36 12.5 65t34.5 50t52 32.5t65 11.5t65 -11.5t52 -32.5t34.5 -50t12.5 -65q0 -34 -13 -64t-35 -52t-52 -35t-64 -13zM1470 368q-33 0 -63 13t-52.5 35.5t-35.5 52.5t-13 63q0 34 13 63.5
t35.5 52t52 35.5t63.5 13t64 -13t52 -35t35 -52t13 -64t-13 -63.5t-35.5 -52t-52 -35.5t-63.5 -13zM1470 1844q-34 0 -63.5 13t-52 35.5t-35.5 52t-13 63.5q0 36 12.5 65t34.5 50t52 32.5t65 11.5t65 -11.5t52 -32.5t34.5 -50t12.5 -65q0 -34 -13 -64t-35 -52t-52 -35
t-64 -13zM1842 0q-34 0 -64 13t-52 35t-35 52t-13 64t13 63.5t35.5 52t52 35.5t63.5 13q36 0 65.5 -12.5t50 -35t32 -53t11.5 -65.5q0 -36 -11.5 -65.5t-32 -51t-50 -33.5t-65.5 -12zM1842 736q-34 0 -63.5 13t-52 35.5t-35.5 52t-13 63.5t13 64t35 52t52 35t64 13
q36 0 65 -12.5t50 -34.5t32.5 -52t11.5 -65t-11.5 -65t-32.5 -52t-50 -34.5t-65 -12.5zM1842 1104q-34 0 -63.5 13t-52 35.5t-35.5 52t-13 63.5t13 64t35 52t52 35t64 13q36 0 65 -12.5t50 -34.5t32.5 -52t11.5 -65t-11.5 -65t-32.5 -52t-50 -34.5t-65 -12.5zM1842 1476
q-34 0 -64 13t-52 35t-35 52t-13 64t13 63.5t35.5 52t52 35.5t63.5 13q36 0 65.5 -12.5t50 -35t32 -53t11.5 -65.5q0 -36 -11.5 -65.5t-32 -51t-50 -33.5t-65.5 -12z" />
    <glyph glyph-name="R" unicode="R" 
d="M366 0q-34 0 -64 13t-52 35t-35 52t-13 64t13 63.5t35.5 52t52 35.5t63.5 13q33 0 62.5 -13.5t52 -36t36 -52t13.5 -62.5q0 -34 -13 -63.5t-35.5 -52t-52 -35.5t-63.5 -13zM366 368q-34 0 -63.5 13t-52 35.5t-35.5 52t-13 63.5t13 64t35 52t52 35t64 13t63.5 -13
t52 -35.5t35.5 -52t13 -63.5q0 -33 -13.5 -63t-36 -52.5t-52 -35.5t-62.5 -13zM366 736q-34 0 -63.5 13t-52 35.5t-35.5 52t-13 63.5t13 64t35 52t52 35t64 13t63.5 -13t52 -35.5t35.5 -52t13 -63.5q0 -33 -13.5 -63t-36 -52.5t-52 -35.5t-62.5 -13zM366 1104
q-34 0 -63.5 13t-52 35.5t-35.5 52t-13 63.5t13 64t35 52t52 35t64 13t63.5 -13t52 -35.5t35.5 -52t13 -63.5q0 -33 -13.5 -63t-36 -52.5t-52 -35.5t-62.5 -13zM366 1476q-34 0 -64 13t-52 35t-35 52t-13 64t13 63.5t35.5 52t52 35.5t63.5 13q33 0 62.5 -13.5t52 -36t36 -52
t13.5 -62.5q0 -34 -13 -63.5t-35.5 -52t-52 -35.5t-63.5 -13zM366 1844q-34 0 -64 13t-52 35t-35 52t-13 64q0 36 12.5 65t34.5 50t52 32.5t65 11.5t65 -11.5t52 -32.5t34.5 -50t12.5 -65q0 -34 -13 -63.5t-35.5 -52t-52 -35.5t-63.5 -13zM734 736q-33 0 -63 13t-52.5 35.5
t-35.5 52.5t-13 63q0 34 13 63.5t35.5 52t52 35.5t63.5 13t64 -13t52 -35t35 -52t13 -64t-13 -63.5t-35.5 -52t-52 -35.5t-63.5 -13zM734 1844q-34 0 -63.5 13t-52 35.5t-35.5 52t-13 63.5q0 36 12.5 65t34.5 50t52 32.5t65 11.5t65 -11.5t52 -32.5t34.5 -50t12.5 -65
q0 -34 -13 -64t-35 -52t-52 -35t-64 -13zM1102 736q-33 0 -63 13t-52.5 35.5t-35.5 52.5t-13 63q0 34 13 63.5t35.5 52t52 35.5t63.5 13t64 -13t52 -35t35 -52t13 -64t-13 -63.5t-35.5 -52t-52 -35.5t-63.5 -13zM1102 1844q-34 0 -63.5 13t-52 35.5t-35.5 52t-13 63.5
q0 36 12.5 65t34.5 50t52 32.5t65 11.5t65 -11.5t52 -32.5t34.5 -50t12.5 -65q0 -34 -13 -64t-35 -52t-52 -35t-64 -13zM1470 368q-33 0 -63 13t-52.5 35.5t-35.5 52.5t-13 63q0 34 13 63.5t35.5 52t52 35.5t63.5 13t64 -13t52 -35t35 -52t13 -64t-13 -63.5t-35.5 -52
t-52 -35.5t-63.5 -13zM1470 736q-33 0 -63 13t-52.5 35.5t-35.5 52.5t-13 63q0 34 13 63.5t35.5 52t52 35.5t63.5 13t64 -13t52 -35t35 -52t13 -64t-13 -63.5t-35.5 -52t-52 -35.5t-63.5 -13zM1470 1844q-34 0 -63.5 13t-52 35.5t-35.5 52t-13 63.5q0 36 12.5 65t34.5 50
t52 32.5t65 11.5t65 -11.5t52 -32.5t34.5 -50t12.5 -65q0 -34 -13 -64t-35 -52t-52 -35t-64 -13zM1842 0q-34 0 -64 13t-52 35t-35 52t-13 64t13 63.5t35.5 52t52 35.5t63.5 13q36 0 65.5 -12.5t50 -35t32 -53t11.5 -65.5q0 -36 -11.5 -65.5t-32 -51t-50 -33.5t-65.5 -12z
M1842 1104q-34 0 -63.5 13t-52 35.5t-35.5 52t-13 63.5t13 64t35 52t52 35t64 13q36 0 65 -12.5t50 -34.5t32.5 -52t11.5 -65t-11.5 -65t-32.5 -52t-50 -34.5t-65 -12.5zM1842 1476q-34 0 -64 13t-52 35t-35 52t-13 64t13 63.5t35.5 52t52 35.5t63.5 13q36 0 65.5 -12.5
t50 -35t32 -53t11.5 -65.5q0 -36 -11.5 -65.5t-32 -51t-50 -33.5t-65.5 -12z" />
    <glyph glyph-name="S" unicode="S" 
d="M366 368q-34 0 -63.5 13t-52 35.5t-35.5 52t-13 63.5t13 64t35 52t52 35t64 13t63.5 -13t52 -35.5t35.5 -52t13 -63.5q0 -33 -13.5 -63t-36 -52.5t-52 -35.5t-62.5 -13zM366 1476q-34 0 -64 13t-52 35t-35 52t-13 64t13 63.5t35.5 52t52 35.5t63.5 13q33 0 62.5 -13.5
t52 -36t36 -52t13.5 -62.5q0 -34 -13 -63.5t-35.5 -52t-52 -35.5t-63.5 -13zM734 0q-34 0 -63.5 13t-52 35.5t-35.5 52t-13 63.5q0 33 13 62.5t35.5 52t52.5 36t63 13.5q34 0 63.5 -13t52 -35.5t35.5 -52t13 -63.5t-13 -64t-35 -52t-52 -35t-64 -13zM734 1104q-33 0 -63 13
t-52.5 35.5t-35.5 52.5t-13 63q0 34 13 63.5t35.5 52t52 35.5t63.5 13t64 -13t52 -35t35 -52t13 -64t-13 -63.5t-35.5 -52t-52 -35.5t-63.5 -13zM734 1844q-34 0 -63.5 13t-52 35.5t-35.5 52t-13 63.5q0 36 12.5 65t34.5 50t52 32.5t65 11.5t65 -11.5t52 -32.5t34.5 -50
t12.5 -65q0 -34 -13 -64t-35 -52t-52 -35t-64 -13zM1102 0q-34 0 -63.5 13t-52 35.5t-35.5 52t-13 63.5q0 33 13 62.5t35.5 52t52.5 36t63 13.5q34 0 63.5 -13t52 -35.5t35.5 -52t13 -63.5t-13 -64t-35 -52t-52 -35t-64 -13zM1102 1104q-33 0 -63 13t-52.5 35.5t-35.5 52.5
t-13 63q0 34 13 63.5t35.5 52t52 35.5t63.5 13t64 -13t52 -35t35 -52t13 -64t-13 -63.5t-35.5 -52t-52 -35.5t-63.5 -13zM1102 1844q-34 0 -63.5 13t-52 35.5t-35.5 52t-13 63.5q0 36 12.5 65t34.5 50t52 32.5t65 11.5t65 -11.5t52 -32.5t34.5 -50t12.5 -65q0 -34 -13 -64
t-35 -52t-52 -35t-64 -13zM1470 0q-34 0 -63.5 13t-52 35.5t-35.5 52t-13 63.5q0 33 13 62.5t35.5 52t52.5 36t63 13.5q34 0 63.5 -13t52 -35.5t35.5 -52t13 -63.5t-13 -64t-35 -52t-52 -35t-64 -13zM1470 1104q-33 0 -63 13t-52.5 35.5t-35.5 52.5t-13 63q0 34 13 63.5
t35.5 52t52 35.5t63.5 13t64 -13t52 -35t35 -52t13 -64t-13 -63.5t-35.5 -52t-52 -35.5t-63.5 -13zM1470 1844q-34 0 -63.5 13t-52 35.5t-35.5 52t-13 63.5q0 36 12.5 65t34.5 50t52 32.5t65 11.5t65 -11.5t52 -32.5t34.5 -50t12.5 -65q0 -34 -13 -64t-35 -52t-52 -35
t-64 -13zM1842 368q-34 0 -63.5 13t-52 35.5t-35.5 52t-13 63.5t13 64t35 52t52 35t64 13q36 0 65 -12.5t50 -34.5t32.5 -52t11.5 -65t-11.5 -65t-32.5 -52t-50 -34.5t-65 -12.5zM1842 736q-34 0 -63.5 13t-52 35.5t-35.5 52t-13 63.5t13 64t35 52t52 35t64 13
q36 0 65 -12.5t50 -34.5t32.5 -52t11.5 -65t-11.5 -65t-32.5 -52t-50 -34.5t-65 -12.5zM1842 1844q-34 0 -64 13t-52 35t-35 52t-13 64q0 35 12 64.5t34 50.5t51.5 33t64.5 12q36 0 65.5 -12t50.5 -33.5t33 -51t12 -65.5t-11.5 -65.5t-32 -51t-50 -33.5t-65.5 -12z" />
    <glyph glyph-name="T" unicode="T" 
d="M366 1844q-34 0 -64 13t-52 35t-35 52t-13 64q0 36 12.5 65t34.5 50t52 32.5t65 11.5t65 -11.5t52 -32.5t34.5 -50t12.5 -65q0 -34 -13 -63.5t-35.5 -52t-52 -35.5t-63.5 -13zM734 1844q-34 0 -63.5 13t-52 35.5t-35.5 52t-13 63.5q0 36 12.5 65t34.5 50t52 32.5t65 11.5
t65 -11.5t52 -32.5t34.5 -50t12.5 -65q0 -34 -13 -64t-35 -52t-52 -35t-64 -13zM1102 0q-34 0 -63.5 13t-52 35.5t-35.5 52t-13 63.5q0 33 13 62.5t35.5 52t52.5 36t63 13.5q34 0 63.5 -13t52 -35.5t35.5 -52t13 -63.5t-13 -64t-35 -52t-52 -35t-64 -13zM1102 368
q-33 0 -63 13t-52.5 35.5t-35.5 52.5t-13 63q0 34 13 63.5t35.5 52t52 35.5t63.5 13t64 -13t52 -35t35 -52t13 -64t-13 -63.5t-35.5 -52t-52 -35.5t-63.5 -13zM1102 736q-33 0 -63 13t-52.5 35.5t-35.5 52.5t-13 63q0 34 13 63.5t35.5 52t52 35.5t63.5 13t64 -13t52 -35
t35 -52t13 -64t-13 -63.5t-35.5 -52t-52 -35.5t-63.5 -13zM1102 1104q-33 0 -63 13t-52.5 35.5t-35.5 52.5t-13 63q0 34 13 63.5t35.5 52t52 35.5t63.5 13t64 -13t52 -35t35 -52t13 -64t-13 -63.5t-35.5 -52t-52 -35.5t-63.5 -13zM1102 1476q-34 0 -63.5 13t-52 35.5
t-35.5 52t-13 63.5q0 33 13 62.5t35.5 52t52.5 36t63 13.5q34 0 63.5 -13t52 -35.5t35.5 -52t13 -63.5t-13 -64t-35 -52t-52 -35t-64 -13zM1102 1844q-34 0 -63.5 13t-52 35.5t-35.5 52t-13 63.5q0 36 12.5 65t34.5 50t52 32.5t65 11.5t65 -11.5t52 -32.5t34.5 -50t12.5 -65
q0 -34 -13 -64t-35 -52t-52 -35t-64 -13zM1470 1844q-34 0 -63.5 13t-52 35.5t-35.5 52t-13 63.5q0 36 12.5 65t34.5 50t52 32.5t65 11.5t65 -11.5t52 -32.5t34.5 -50t12.5 -65q0 -34 -13 -64t-35 -52t-52 -35t-64 -13zM1842 1844q-34 0 -64 13t-52 35t-35 52t-13 64
q0 35 12 64.5t34 50.5t51.5 33t64.5 12q36 0 65.5 -12t50.5 -33.5t33 -51t12 -65.5t-11.5 -65.5t-32 -51t-50 -33.5t-65.5 -12z" />
    <glyph glyph-name="U" unicode="U" 
d="M366 368q-34 0 -63.5 13t-52 35.5t-35.5 52t-13 63.5t13 64t35 52t52 35t64 13t63.5 -13t52 -35.5t35.5 -52t13 -63.5q0 -33 -13.5 -63t-36 -52.5t-52 -35.5t-62.5 -13zM366 736q-34 0 -63.5 13t-52 35.5t-35.5 52t-13 63.5t13 64t35 52t52 35t64 13t63.5 -13t52 -35.5
t35.5 -52t13 -63.5q0 -33 -13.5 -63t-36 -52.5t-52 -35.5t-62.5 -13zM366 1104q-34 0 -63.5 13t-52 35.5t-35.5 52t-13 63.5t13 64t35 52t52 35t64 13t63.5 -13t52 -35.5t35.5 -52t13 -63.5q0 -33 -13.5 -63t-36 -52.5t-52 -35.5t-62.5 -13zM366 1476q-34 0 -64 13t-52 35
t-35 52t-13 64t13 63.5t35.5 52t52 35.5t63.5 13q33 0 62.5 -13.5t52 -36t36 -52t13.5 -62.5q0 -34 -13 -63.5t-35.5 -52t-52 -35.5t-63.5 -13zM366 1844q-34 0 -64 13t-52 35t-35 52t-13 64q0 36 12.5 65t34.5 50t52 32.5t65 11.5t65 -11.5t52 -32.5t34.5 -50t12.5 -65
q0 -34 -13 -63.5t-35.5 -52t-52 -35.5t-63.5 -13zM734 0q-34 0 -63.5 13t-52 35.5t-35.5 52t-13 63.5q0 33 13 62.5t35.5 52t52.5 36t63 13.5q34 0 63.5 -13t52 -35.5t35.5 -52t13 -63.5t-13 -64t-35 -52t-52 -35t-64 -13zM1102 0q-34 0 -63.5 13t-52 35.5t-35.5 52
t-13 63.5q0 33 13 62.5t35.5 52t52.5 36t63 13.5q34 0 63.5 -13t52 -35.5t35.5 -52t13 -63.5t-13 -64t-35 -52t-52 -35t-64 -13zM1470 0q-34 0 -63.5 13t-52 35.5t-35.5 52t-13 63.5q0 33 13 62.5t35.5 52t52.5 36t63 13.5q34 0 63.5 -13t52 -35.5t35.5 -52t13 -63.5
t-13 -64t-35 -52t-52 -35t-64 -13zM1842 368q-34 0 -63.5 13t-52 35.5t-35.5 52t-13 63.5t13 64t35 52t52 35t64 13q36 0 65 -12.5t50 -34.5t32.5 -52t11.5 -65t-11.5 -65t-32.5 -52t-50 -34.5t-65 -12.5zM1842 736q-34 0 -63.5 13t-52 35.5t-35.5 52t-13 63.5t13 64t35 52
t52 35t64 13q36 0 65 -12.5t50 -34.5t32.5 -52t11.5 -65t-11.5 -65t-32.5 -52t-50 -34.5t-65 -12.5zM1842 1104q-34 0 -63.5 13t-52 35.5t-35.5 52t-13 63.5t13 64t35 52t52 35t64 13q36 0 65 -12.5t50 -34.5t32.5 -52t11.5 -65t-11.5 -65t-32.5 -52t-50 -34.5t-65 -12.5z
M1842 1476q-34 0 -64 13t-52 35t-35 52t-13 64t13 63.5t35.5 52t52 35.5t63.5 13q36 0 65.5 -12.5t50 -35t32 -53t11.5 -65.5q0 -36 -11.5 -65.5t-32 -51t-50 -33.5t-65.5 -12zM1842 1844q-34 0 -64 13t-52 35t-35 52t-13 64q0 35 12 64.5t34 50.5t51.5 33t64.5 12
q36 0 65.5 -12t50.5 -33.5t33 -51t12 -65.5t-11.5 -65.5t-32 -51t-50 -33.5t-65.5 -12z" />
    <glyph glyph-name="V" unicode="V" 
d="M366 736q-34 0 -63.5 13t-52 35.5t-35.5 52t-13 63.5t13 64t35 52t52 35t64 13t63.5 -13t52 -35.5t35.5 -52t13 -63.5q0 -33 -13.5 -63t-36 -52.5t-52 -35.5t-62.5 -13zM366 1104q-34 0 -63.5 13t-52 35.5t-35.5 52t-13 63.5t13 64t35 52t52 35t64 13t63.5 -13t52 -35.5
t35.5 -52t13 -63.5q0 -33 -13.5 -63t-36 -52.5t-52 -35.5t-62.5 -13zM366 1476q-34 0 -64 13t-52 35t-35 52t-13 64t13 63.5t35.5 52t52 35.5t63.5 13q33 0 62.5 -13.5t52 -36t36 -52t13.5 -62.5q0 -34 -13 -63.5t-35.5 -52t-52 -35.5t-63.5 -13zM366 1844q-34 0 -64 13
t-52 35t-35 52t-13 64q0 36 12.5 65t34.5 50t52 32.5t65 11.5t65 -11.5t52 -32.5t34.5 -50t12.5 -65q0 -34 -13 -63.5t-35.5 -52t-52 -35.5t-63.5 -13zM734 368q-33 0 -63 13t-52.5 35.5t-35.5 52.5t-13 63q0 34 13 63.5t35.5 52t52 35.5t63.5 13t64 -13t52 -35t35 -52
t13 -64t-13 -63.5t-35.5 -52t-52 -35.5t-63.5 -13zM1102 0q-34 0 -63.5 13t-52 35.5t-35.5 52t-13 63.5q0 33 13 62.5t35.5 52t52.5 36t63 13.5q34 0 63.5 -13t52 -35.5t35.5 -52t13 -63.5t-13 -64t-35 -52t-52 -35t-64 -13zM1470 368q-33 0 -63 13t-52.5 35.5t-35.5 52.5
t-13 63q0 34 13 63.5t35.5 52t52 35.5t63.5 13t64 -13t52 -35t35 -52t13 -64t-13 -63.5t-35.5 -52t-52 -35.5t-63.5 -13zM1842 736q-34 0 -63.5 13t-52 35.5t-35.5 52t-13 63.5t13 64t35 52t52 35t64 13q36 0 65 -12.5t50 -34.5t32.5 -52t11.5 -65t-11.5 -65t-32.5 -52
t-50 -34.5t-65 -12.5zM1842 1104q-34 0 -63.5 13t-52 35.5t-35.5 52t-13 63.5t13 64t35 52t52 35t64 13q36 0 65 -12.5t50 -34.5t32.5 -52t11.5 -65t-11.5 -65t-32.5 -52t-50 -34.5t-65 -12.5zM1842 1476q-34 0 -64 13t-52 35t-35 52t-13 64t13 63.5t35.5 52t52 35.5
t63.5 13q36 0 65.5 -12.5t50 -35t32 -53t11.5 -65.5q0 -36 -11.5 -65.5t-32 -51t-50 -33.5t-65.5 -12zM1842 1844q-34 0 -64 13t-52 35t-35 52t-13 64q0 35 12 64.5t34 50.5t51.5 33t64.5 12q36 0 65.5 -12t50.5 -33.5t33 -51t12 -65.5t-11.5 -65.5t-32 -51t-50 -33.5
t-65.5 -12z" />
    <glyph glyph-name="W" unicode="W" 
d="M1842 324q36 0 65.5 -12t50 -33.5t32 -51t11.5 -65.5t-12 -65.5t-33 -51t-50.5 -33.5t-65.5 -12q-35 0 -64.5 12t-51.5 33t-34 50.5t-12 64.5q0 34 13 64t35 52t52 35t64 13zM1842 692q36 0 65.5 -12t50 -33.5t32 -51t11.5 -65.5q0 -35 -11.5 -65.5t-32 -53t-50 -35
t-65.5 -12.5q-34 0 -63.5 13t-52 35.5t-35.5 52t-13 63.5t13 64t35 52t52 35t64 13zM1842 1064q36 0 65 -12.5t50 -34.5t32.5 -52t11.5 -65t-11.5 -65t-32.5 -52t-50 -34.5t-65 -12.5q-34 0 -64 13t-52 35t-35 52t-13 64t13 63.5t35.5 52t52 35.5t63.5 13zM1842 1432
q36 0 65 -12.5t50 -34.5t32.5 -52t11.5 -65t-11.5 -65t-32.5 -52t-50 -34.5t-65 -12.5q-34 0 -64 13t-52 35t-35 52t-13 64t13 63.5t35.5 52t52 35.5t63.5 13zM1842 1800q36 0 65 -12.5t50 -34.5t32.5 -52t11.5 -65t-11.5 -65t-32.5 -52t-50 -34.5t-65 -12.5q-34 0 -64 13
t-52 35t-35 52t-13 64t13 63.5t35.5 52t52 35.5t63.5 13zM1842 2168q36 0 65.5 -12t50 -33.5t32 -51t11.5 -65.5q0 -35 -11.5 -65.5t-32 -53t-50 -35t-65.5 -12.5q-34 0 -63.5 13t-52 35.5t-35.5 52t-13 63.5t13 64t35 52t52 35t64 13zM1470 692q34 0 64 -13t52 -35t35 -52
t13 -64t-13 -63.5t-35.5 -52t-52 -35.5t-63.5 -13q-33 0 -63 13t-52.5 35.5t-35.5 52.5t-13 63q0 34 13 63.5t35.5 52t52 35.5t63.5 13zM1102 1064q34 0 63.5 -13t52 -35.5t35.5 -52t13 -63.5t-13 -64t-35 -52t-52 -35t-64 -13t-63.5 13t-52 35.5t-35.5 52t-13 63.5
q0 33 13 62.5t35.5 52t52.5 36t63 13.5zM734 692q34 0 64 -13t52 -35t35 -52t13 -64t-13 -63.5t-35.5 -52t-52 -35.5t-63.5 -13q-33 0 -63 13t-52.5 35.5t-35.5 52.5t-13 63q0 34 13 63.5t35.5 52t52 35.5t63.5 13zM366 324q34 0 63.5 -13t52 -35.5t35.5 -52t13 -63.5
q0 -36 -12.5 -65t-34.5 -50t-52 -32.5t-65 -11.5t-65 11.5t-52 32.5t-34.5 50t-12.5 65q0 34 13 64t35 52t52 35t64 13zM366 692q34 0 63.5 -13t52 -35.5t35.5 -52t13 -63.5q0 -33 -13.5 -63t-36 -52.5t-52 -35.5t-62.5 -13q-34 0 -63.5 13t-52 35.5t-35.5 52t-13 63.5
t13 64t35 52t52 35t64 13zM366 1064q33 0 62.5 -13.5t52 -36t36 -52t13.5 -62.5q0 -34 -13 -63.5t-35.5 -52t-52 -35.5t-63.5 -13t-64 13t-52 35t-35 52t-13 64t13 63.5t35.5 52t52 35.5t63.5 13zM366 1432q36 0 65 -12.5t50 -34.5t32.5 -52t11.5 -65t-11.5 -65t-32.5 -52
t-50 -34.5t-65 -12.5q-34 0 -64 13t-52 35t-35 52t-13 64t13 63.5t35.5 52t52 35.5t63.5 13zM366 1800q36 0 65 -12.5t50 -34.5t32.5 -52t11.5 -65t-11.5 -65t-32.5 -52t-50 -34.5t-65 -12.5q-34 0 -64 13t-52 35t-35 52t-13 64t13 63.5t35.5 52t52 35.5t63.5 13zM366 2168
q36 0 65 -12.5t50 -34.5t32.5 -52t11.5 -65t-11.5 -65t-32.5 -52t-50 -34.5t-65 -12.5q-34 0 -63.5 13t-52 35.5t-35.5 52t-13 63.5t13 64t35 52t52 35t64 13z" />
    <glyph glyph-name="X" unicode="X" 
d="M366 0q-34 0 -64 13t-52 35t-35 52t-13 64t13 63.5t35.5 52t52 35.5t63.5 13q33 0 62.5 -13.5t52 -36t36 -52t13.5 -62.5q0 -34 -13 -63.5t-35.5 -52t-52 -35.5t-63.5 -13zM366 1844q-34 0 -64 13t-52 35t-35 52t-13 64q0 36 12.5 65t34.5 50t52 32.5t65 11.5t65 -11.5
t52 -32.5t34.5 -50t12.5 -65q0 -34 -13 -63.5t-35.5 -52t-52 -35.5t-63.5 -13zM734 368q-33 0 -63 13t-52.5 35.5t-35.5 52.5t-13 63q0 34 13 63.5t35.5 52t52 35.5t63.5 13t64 -13t52 -35t35 -52t13 -64t-13 -63.5t-35.5 -52t-52 -35.5t-63.5 -13zM734 1476q-34 0 -63.5 13
t-52 35.5t-35.5 52t-13 63.5q0 33 13 62.5t35.5 52t52.5 36t63 13.5q34 0 63.5 -13t52 -35.5t35.5 -52t13 -63.5t-13 -64t-35 -52t-52 -35t-64 -13zM1102 736q-33 0 -63 13t-52.5 35.5t-35.5 52.5t-13 63q0 34 13 63.5t35.5 52t52 35.5t63.5 13t64 -13t52 -35t35 -52t13 -64
t-13 -63.5t-35.5 -52t-52 -35.5t-63.5 -13zM1102 1104q-33 0 -63 13t-52.5 35.5t-35.5 52.5t-13 63q0 34 13 63.5t35.5 52t52 35.5t63.5 13t64 -13t52 -35t35 -52t13 -64t-13 -63.5t-35.5 -52t-52 -35.5t-63.5 -13zM1470 368q-33 0 -63 13t-52.5 35.5t-35.5 52.5t-13 63
q0 34 13 63.5t35.5 52t52 35.5t63.5 13t64 -13t52 -35t35 -52t13 -64t-13 -63.5t-35.5 -52t-52 -35.5t-63.5 -13zM1470 1476q-34 0 -63.5 13t-52 35.5t-35.5 52t-13 63.5q0 33 13 62.5t35.5 52t52.5 36t63 13.5q34 0 63.5 -13t52 -35.5t35.5 -52t13 -63.5t-13 -64t-35 -52
t-52 -35t-64 -13zM1842 0q-34 0 -64 13t-52 35t-35 52t-13 64t13 63.5t35.5 52t52 35.5t63.5 13q36 0 65.5 -12.5t50 -35t32 -53t11.5 -65.5q0 -36 -11.5 -65.5t-32 -51t-50 -33.5t-65.5 -12zM1842 1844q-34 0 -64 13t-52 35t-35 52t-13 64q0 35 12 64.5t34 50.5t51.5 33
t64.5 12q36 0 65.5 -12t50.5 -33.5t33 -51t12 -65.5t-11.5 -65.5t-32 -51t-50 -33.5t-65.5 -12z" />
    <glyph glyph-name="Y" unicode="Y" 
d="M366 1476q-34 0 -64 13t-52 35t-35 52t-13 64t13 63.5t35.5 52t52 35.5t63.5 13q33 0 62.5 -13.5t52 -36t36 -52t13.5 -62.5q0 -34 -13 -63.5t-35.5 -52t-52 -35.5t-63.5 -13zM366 1844q-34 0 -64 13t-52 35t-35 52t-13 64q0 36 12.5 65t34.5 50t52 32.5t65 11.5
t65 -11.5t52 -32.5t34.5 -50t12.5 -65q0 -34 -13 -63.5t-35.5 -52t-52 -35.5t-63.5 -13zM734 1104q-33 0 -63 13t-52.5 35.5t-35.5 52.5t-13 63q0 34 13 63.5t35.5 52t52 35.5t63.5 13t64 -13t52 -35t35 -52t13 -64t-13 -63.5t-35.5 -52t-52 -35.5t-63.5 -13zM1102 0
q-34 0 -63.5 13t-52 35.5t-35.5 52t-13 63.5q0 33 13 62.5t35.5 52t52.5 36t63 13.5q34 0 63.5 -13t52 -35.5t35.5 -52t13 -63.5t-13 -64t-35 -52t-52 -35t-64 -13zM1102 368q-33 0 -63 13t-52.5 35.5t-35.5 52.5t-13 63q0 34 13 63.5t35.5 52t52 35.5t63.5 13t64 -13
t52 -35t35 -52t13 -64t-13 -63.5t-35.5 -52t-52 -35.5t-63.5 -13zM1102 736q-33 0 -63 13t-52.5 35.5t-35.5 52.5t-13 63q0 34 13 63.5t35.5 52t52 35.5t63.5 13t64 -13t52 -35t35 -52t13 -64t-13 -63.5t-35.5 -52t-52 -35.5t-63.5 -13zM1470 1104q-33 0 -63 13t-52.5 35.5
t-35.5 52.5t-13 63q0 34 13 63.5t35.5 52t52 35.5t63.5 13t64 -13t52 -35t35 -52t13 -64t-13 -63.5t-35.5 -52t-52 -35.5t-63.5 -13zM1842 1476q-34 0 -64 13t-52 35t-35 52t-13 64t13 63.5t35.5 52t52 35.5t63.5 13q36 0 65.5 -12.5t50 -35t32 -53t11.5 -65.5
q0 -36 -11.5 -65.5t-32 -51t-50 -33.5t-65.5 -12zM1842 1844q-34 0 -64 13t-52 35t-35 52t-13 64q0 35 12 64.5t34 50.5t51.5 33t64.5 12q36 0 65.5 -12t50.5 -33.5t33 -51t12 -65.5t-11.5 -65.5t-32 -51t-50 -33.5t-65.5 -12z" />
    <glyph glyph-name="Z" unicode="Z" 
d="M366 0q-34 0 -64 13t-52 35t-35 52t-13 64t13 63.5t35.5 52t52 35.5t63.5 13q33 0 62.5 -13.5t52 -36t36 -52t13.5 -62.5q0 -34 -13 -63.5t-35.5 -52t-52 -35.5t-63.5 -13zM366 368q-34 0 -63.5 13t-52 35.5t-35.5 52t-13 63.5t13 64t35 52t52 35t64 13t63.5 -13
t52 -35.5t35.5 -52t13 -63.5q0 -33 -13.5 -63t-36 -52.5t-52 -35.5t-62.5 -13zM366 1844q-34 0 -64 13t-52 35t-35 52t-13 64q0 36 12.5 65t34.5 50t52 32.5t65 11.5t65 -11.5t52 -32.5t34.5 -50t12.5 -65q0 -34 -13 -63.5t-35.5 -52t-52 -35.5t-63.5 -13zM734 0
q-34 0 -63.5 13t-52 35.5t-35.5 52t-13 63.5q0 33 13 62.5t35.5 52t52.5 36t63 13.5q34 0 63.5 -13t52 -35.5t35.5 -52t13 -63.5t-13 -64t-35 -52t-52 -35t-64 -13zM734 736q-33 0 -63 13t-52.5 35.5t-35.5 52.5t-13 63q0 34 13 63.5t35.5 52t52 35.5t63.5 13t64 -13t52 -35
t35 -52t13 -64t-13 -63.5t-35.5 -52t-52 -35.5t-63.5 -13zM734 1104q-33 0 -63 13t-52.5 35.5t-35.5 52.5t-13 63q0 34 13 63.5t35.5 52t52 35.5t63.5 13t64 -13t52 -35t35 -52t13 -64t-13 -63.5t-35.5 -52t-52 -35.5t-63.5 -13zM734 1844q-34 0 -63.5 13t-52 35.5t-35.5 52
t-13 63.5q0 36 12.5 65t34.5 50t52 32.5t65 11.5t65 -11.5t52 -32.5t34.5 -50t12.5 -65q0 -34 -13 -64t-35 -52t-52 -35t-64 -13zM1102 0q-34 0 -63.5 13t-52 35.5t-35.5 52t-13 63.5q0 33 13 62.5t35.5 52t52.5 36t63 13.5q34 0 63.5 -13t52 -35.5t35.5 -52t13 -63.5
t-13 -64t-35 -52t-52 -35t-64 -13zM1102 1104q-33 0 -63 13t-52.5 35.5t-35.5 52.5t-13 63q0 34 13 63.5t35.5 52t52 35.5t63.5 13t64 -13t52 -35t35 -52t13 -64t-13 -63.5t-35.5 -52t-52 -35.5t-63.5 -13zM1102 1844q-34 0 -63.5 13t-52 35.5t-35.5 52t-13 63.5
q0 36 12.5 65t34.5 50t52 32.5t65 11.5t65 -11.5t52 -32.5t34.5 -50t12.5 -65q0 -34 -13 -64t-35 -52t-52 -35t-64 -13zM1470 0q-34 0 -63.5 13t-52 35.5t-35.5 52t-13 63.5q0 33 13 62.5t35.5 52t52.5 36t63 13.5q34 0 63.5 -13t52 -35.5t35.5 -52t13 -63.5t-13 -64
t-35 -52t-52 -35t-64 -13zM1470 1104q-33 0 -63 13t-52.5 35.5t-35.5 52.5t-13 63q0 34 13 63.5t35.5 52t52 35.5t63.5 13t64 -13t52 -35t35 -52t13 -64t-13 -63.5t-35.5 -52t-52 -35.5t-63.5 -13zM1470 1476q-34 0 -63.5 13t-52 35.5t-35.5 52t-13 63.5q0 33 13 62.5
t35.5 52t52.5 36t63 13.5q34 0 63.5 -13t52 -35.5t35.5 -52t13 -63.5t-13 -64t-35 -52t-52 -35t-64 -13zM1470 1844q-34 0 -63.5 13t-52 35.5t-35.5 52t-13 63.5q0 36 12.5 65t34.5 50t52 32.5t65 11.5t65 -11.5t52 -32.5t34.5 -50t12.5 -65q0 -34 -13 -64t-35 -52t-52 -35
t-64 -13zM1842 0q-34 0 -64 13t-52 35t-35 52t-13 64t13 63.5t35.5 52t52 35.5t63.5 13q36 0 65.5 -12.5t50 -35t32 -53t11.5 -65.5q0 -36 -11.5 -65.5t-32 -51t-50 -33.5t-65.5 -12zM1842 1844q-34 0 -64 13t-52 35t-35 52t-13 64q0 35 12 64.5t34 50.5t51.5 33t64.5 12
q36 0 65.5 -12t50.5 -33.5t33 -51t12 -65.5t-11.5 -65.5t-32 -51t-50 -33.5t-65.5 -12z" />
    <glyph glyph-name="bracketleft" unicode="[" 
d="M734 0q-34 0 -63.5 13t-52 35.5t-35.5 52t-13 63.5q0 33 13 62.5t35.5 52t52.5 36t63 13.5q34 0 63.5 -13t52 -35.5t35.5 -52t13 -63.5t-13 -64t-35 -52t-52 -35t-64 -13zM734 368q-33 0 -63 13t-52.5 35.5t-35.5 52.5t-13 63q0 34 13 63.5t35.5 52t52 35.5t63.5 13
q53 0 88.5 -24.5t53.5 -60.5t18 -79t-18 -79t-53.5 -60.5t-88.5 -24.5zM734 736q-33 0 -63 13t-52.5 35.5t-35.5 52.5t-13 63q0 34 13 63.5t35.5 52t52 35.5t63.5 13q53 0 88.5 -24.5t53.5 -60.5t18 -79t-18 -79t-53.5 -60.5t-88.5 -24.5zM734 1104q-33 0 -63 13t-52.5 35.5
t-35.5 52.5t-13 63q0 34 13 63.5t35.5 52t52 35.5t63.5 13q53 0 88.5 -24.5t53.5 -60.5t18 -79t-18 -79t-53.5 -60.5t-88.5 -24.5zM734 1840q-34 0 -63.5 13t-52 35.5t-35.5 52t-13 63.5q0 33 13 62.5t35.5 52t52.5 36t63 13.5q53 0 88.5 -24.5t53.5 -60.5t18 -79t-18 -79
t-53.5 -60.5t-88.5 -24.5zM734 2208q-34 0 -63.5 13t-52 35.5t-35.5 52t-13 63.5q0 36 12.5 65t34.5 50t52 32.5t65 11.5t65 -11.5t52 -32.5t34.5 -50t12.5 -65q0 -34 -13 -64t-35 -52t-52 -35t-64 -13zM1102 0q-34 0 -63.5 13t-52 35.5t-35.5 52t-13 63.5q0 33 13 62.5
t35.5 52t52.5 36t63 13.5q34 0 63.5 -13t52 -35.5t35.5 -52t13 -63.5t-13 -64t-35 -52t-52 -35t-64 -13zM1102 2208q-34 0 -63.5 13t-52 35.5t-35.5 52t-13 63.5q0 36 12.5 65t34.5 50t52 32.5t65 11.5t65 -11.5t52 -32.5t34.5 -50t12.5 -65q0 -34 -13 -64t-35 -52t-52 -35
t-64 -13zM734 1476q-34 0 -63.5 13t-52 35.5t-35.5 52t-13 63.5q0 33 13 62.5t35.5 52t52.5 36t63 13.5q53 0 88.5 -24.5t53.5 -60.5t18 -79t-18 -79t-53.5 -60.5t-88.5 -24.5z" />
    <glyph glyph-name="backslash" unicode="\" 
d="M361 2203q-36 0 -65.5 12t-50 33.5t-32 51t-11.5 65.5t12 65.5t33 51t50.5 33.5t65.5 12q35 0 64.5 -12t51.5 -33t34 -50.5t12 -64.5q0 -34 -13 -64t-35 -52t-52 -35t-64 -13zM733 1476q-34 0 -64 13t-52 35t-35 52t-13 64t13 63.5t35.5 52t52 35.5t63.5 13
q33 0 62.5 -13.5t52 -36t36 -52t13.5 -62.5q0 -34 -13 -63.5t-35.5 -52t-52 -35.5t-63.5 -13zM1101 1104q-34 0 -63.5 13t-52 35.5t-35.5 52t-13 63.5t13 64t35 52t52 35t64 13t63.5 -13t52 -35.5t35.5 -52t13 -63.5q0 -33 -13.5 -63t-36 -52.5t-52 -35.5t-62.5 -13z
M1469 736q-34 0 -63.5 13t-52 35.5t-35.5 52t-13 63.5t13 64t35 52t52 35t64 13t63.5 -13t52 -35.5t35.5 -52t13 -63.5q0 -33 -13.5 -63t-36 -52.5t-52 -35.5t-62.5 -13zM1837 368q-33 0 -63 13t-52.5 35.5t-35.5 52.5t-13 63q0 34 13 63.5t35.5 52t52 35.5t63.5 13t64 -13
t52 -35t35 -52t13 -64t-13 -63.5t-35.5 -52t-52 -35.5t-63.5 -13zM1837 0q-34 0 -63.5 13t-52 35.5t-35.5 52t-13 63.5q0 33 13 62.5t35.5 52t52.5 36t63 13.5q34 0 63.5 -13t52 -35.5t35.5 -52t13 -63.5t-13 -64t-35 -52t-52 -35t-64 -13zM361 1844q-36 0 -65.5 12
t-50 33.5t-32 51t-11.5 65.5t12 65.5t33 51t50.5 33.5t65.5 12q35 0 64.5 -12t51.5 -33t34 -50.5t12 -64.5q0 -34 -13 -64t-35 -52t-52 -35t-64 -13z" />
    <glyph glyph-name="bracketright" unicode="]" 
d="M1102 0q-34 0 -63.5 13t-52 35.5t-35.5 52t-13 63.5q0 33 13 62.5t35.5 52t52.5 36t63 13.5q34 0 63.5 -13t52 -35.5t35.5 -52t13 -63.5t-13 -64t-35 -52t-52 -35t-64 -13zM1102 2211q-34 0 -63.5 13t-52 35.5t-35.5 52t-13 63.5q0 36 12.5 65t34.5 50t52 32.5t65 11.5
t65 -11.5t52 -32.5t34.5 -50t12.5 -65q0 -34 -13 -64t-35 -52t-52 -35t-64 -13zM1470 0q-34 0 -63.5 13t-52 35.5t-35.5 52t-13 63.5q0 33 13 62.5t35.5 52t52.5 36t63 13.5q34 0 63.5 -13t52 -35.5t35.5 -52t13 -63.5t-13 -64t-35 -52t-52 -35t-64 -13zM1470 368
q-33 0 -63 13t-52.5 35.5t-35.5 52.5t-13 63q0 34 13 63.5t35.5 52t52 35.5t63.5 13t64 -13t52 -35t35 -52t13 -64t-13 -63.5t-35.5 -52t-52 -35.5t-63.5 -13zM1470 736q-33 0 -63 13t-52.5 35.5t-35.5 52.5t-13 63q0 34 13 63.5t35.5 52t52 35.5t63.5 13t64 -13t52 -35
t35 -52t13 -64t-13 -63.5t-35.5 -52t-52 -35.5t-63.5 -13zM1470 1104q-33 0 -63 13t-52.5 35.5t-35.5 52.5t-13 63q0 34 13 63.5t35.5 52t52 35.5t63.5 13t64 -13t52 -35t35 -52t13 -64t-13 -63.5t-35.5 -52t-52 -35.5t-63.5 -13zM1470 1843q-34 0 -63.5 13t-52 35.5
t-35.5 52t-13 63.5q0 33 13 62.5t35.5 52t52.5 36t63 13.5q34 0 63.5 -13t52 -35.5t35.5 -52t13 -63.5t-13 -64t-35 -52t-52 -35t-64 -13zM1470 2211q-34 0 -63.5 13t-52 35.5t-35.5 52t-13 63.5q0 36 12.5 65t34.5 50t52 32.5t65 11.5t65 -11.5t52 -32.5t34.5 -50t12.5 -65
q0 -34 -13 -64t-35 -52t-52 -35t-64 -13zM1470 1476q-34 0 -63.5 13t-52 35.5t-35.5 52t-13 63.5q0 33 13 62.5t35.5 52t52.5 36t63 13.5q34 0 63.5 -13t52 -35.5t35.5 -52t13 -63.5t-13 -64t-35 -52t-52 -35t-64 -13z" />
    <glyph glyph-name="asciicircum" unicode="^" 
d="M366 1104q-34 0 -63.5 13t-52 35.5t-35.5 52t-13 63.5t13 64t35 52t52 35t64 13t63.5 -13t52 -35.5t35.5 -52t13 -63.5q0 -33 -13.5 -63t-36 -52.5t-52 -35.5t-62.5 -13zM734 1476q-34 0 -63.5 13t-52 35.5t-35.5 52t-13 63.5q0 33 13 62.5t35.5 52t52.5 36t63 13.5
q34 0 63.5 -13t52 -35.5t35.5 -52t13 -63.5t-13 -64t-35 -52t-52 -35t-64 -13zM1102 1844q-34 0 -63.5 13t-52 35.5t-35.5 52t-13 63.5q0 36 12.5 65t34.5 50t52 32.5t65 11.5t65 -11.5t52 -32.5t34.5 -50t12.5 -65q0 -34 -13 -64t-35 -52t-52 -35t-64 -13zM1470 1476
q-34 0 -63.5 13t-52 35.5t-35.5 52t-13 63.5q0 33 13 62.5t35.5 52t52.5 36t63 13.5q34 0 63.5 -13t52 -35.5t35.5 -52t13 -63.5t-13 -64t-35 -52t-52 -35t-64 -13zM1842 1104q-34 0 -63.5 13t-52 35.5t-35.5 52t-13 63.5t13 64t35 52t52 35t64 13q36 0 65 -12.5t50 -34.5
t32.5 -52t11.5 -65t-11.5 -65t-32.5 -52t-50 -34.5t-65 -12.5z" />
    <glyph glyph-name="underscore" unicode="_" 
d="M366 0q-34 0 -64 13t-52 35t-35 52t-13 64t13 63.5t35.5 52t52 35.5t63.5 13q33 0 62.5 -13.5t52 -36t36 -52t13.5 -62.5q0 -34 -13 -63.5t-35.5 -52t-52 -35.5t-63.5 -13zM734 0q-34 0 -63.5 13t-52 35.5t-35.5 52t-13 63.5q0 33 13 62.5t35.5 52t52.5 36t63 13.5
q34 0 63.5 -13t52 -35.5t35.5 -52t13 -63.5t-13 -64t-35 -52t-52 -35t-64 -13zM1102 0q-34 0 -63.5 13t-52 35.5t-35.5 52t-13 63.5q0 33 13 62.5t35.5 52t52.5 36t63 13.5q34 0 63.5 -13t52 -35.5t35.5 -52t13 -63.5t-13 -64t-35 -52t-52 -35t-64 -13zM1470 0
q-34 0 -63.5 13t-52 35.5t-35.5 52t-13 63.5q0 33 13 62.5t35.5 52t52.5 36t63 13.5q34 0 63.5 -13t52 -35.5t35.5 -52t13 -63.5t-13 -64t-35 -52t-52 -35t-64 -13zM1842 0q-34 0 -64 13t-52 35t-35 52t-13 64t13 63.5t35.5 52t52 35.5t63.5 13q36 0 65.5 -12.5t50 -35
t32 -53t11.5 -65.5q0 -36 -11.5 -65.5t-32 -51t-50 -33.5t-65.5 -12z" />
    <glyph glyph-name="a" unicode="a" 
d="M366 0q-34 0 -64 13t-52 35t-35 52t-13 64t13 63.5t35.5 52t52 35.5t63.5 13q33 0 62.5 -13.5t52 -36t36 -52t13.5 -62.5q0 -34 -13 -63.5t-35.5 -52t-52 -35.5t-63.5 -13zM366 368q-34 0 -63.5 13t-52 35.5t-35.5 52t-13 63.5t13 64t35 52t52 35t64 13t63.5 -13
t52 -35.5t35.5 -52t13 -63.5q0 -33 -13.5 -63t-36 -52.5t-52 -35.5t-62.5 -13zM366 736q-34 0 -63.5 13t-52 35.5t-35.5 52t-13 63.5t13 64t35 52t52 35t64 13t63.5 -13t52 -35.5t35.5 -52t13 -63.5q0 -33 -13.5 -63t-36 -52.5t-52 -35.5t-62.5 -13zM366 1104
q-34 0 -63.5 13t-52 35.5t-35.5 52t-13 63.5t13 64t35 52t52 35t64 13t63.5 -13t52 -35.5t35.5 -52t13 -63.5q0 -33 -13.5 -63t-36 -52.5t-52 -35.5t-62.5 -13zM366 1476q-34 0 -64 13t-52 35t-35 52t-13 64t13 63.5t35.5 52t52 35.5t63.5 13q33 0 62.5 -13.5t52 -36t36 -52
t13.5 -62.5q0 -34 -13 -63.5t-35.5 -52t-52 -35.5t-63.5 -13zM734 736q-33 0 -63 13t-52.5 35.5t-35.5 52.5t-13 63q0 34 13 63.5t35.5 52t52 35.5t63.5 13t64 -13t52 -35t35 -52t13 -64t-13 -63.5t-35.5 -52t-52 -35.5t-63.5 -13zM734 1844q-34 0 -63.5 13t-52 35.5
t-35.5 52t-13 63.5q0 33 13 62.5t35.5 52t52.5 36t63 13.5q34 0 63.5 -13t52 -35.5t35.5 -52t13 -63.5t-13 -64t-35 -52t-52 -35t-64 -13zM1102 736q-33 0 -63 13t-52.5 35.5t-35.5 52.5t-13 63q0 34 13 63.5t35.5 52t52 35.5t63.5 13t64 -13t52 -35t35 -52t13 -64
t-13 -63.5t-35.5 -52t-52 -35.5t-63.5 -13zM1102 1844q-34 0 -63.5 13t-52 35.5t-35.5 52t-13 63.5q0 33 13 62.5t35.5 52t52.5 36t63 13.5q34 0 63.5 -13t52 -35.5t35.5 -52t13 -63.5t-13 -64t-35 -52t-52 -35t-64 -13zM1470 736q-33 0 -63 13t-52.5 35.5t-35.5 52.5
t-13 63q0 34 13 63.5t35.5 52t52 35.5t63.5 13t64 -13t52 -35t35 -52t13 -64t-13 -63.5t-35.5 -52t-52 -35.5t-63.5 -13zM1470 1844q-34 0 -63.5 13t-52 35.5t-35.5 52t-13 63.5q0 33 13 62.5t35.5 52t52.5 36t63 13.5q34 0 63.5 -13t52 -35.5t35.5 -52t13 -63.5t-13 -64
t-35 -52t-52 -35t-64 -13zM1842 0q-34 0 -64 13t-52 35t-35 52t-13 64t13 63.5t35.5 52t52 35.5t63.5 13q36 0 65.5 -12.5t50 -35t32 -53t11.5 -65.5q0 -36 -11.5 -65.5t-32 -51t-50 -33.5t-65.5 -12zM1842 368q-34 0 -63.5 13t-52 35.5t-35.5 52t-13 63.5t13 64t35 52
t52 35t64 13q36 0 65 -12.5t50 -34.5t32.5 -52t11.5 -65t-11.5 -65t-32.5 -52t-50 -34.5t-65 -12.5zM1842 736q-34 0 -63.5 13t-52 35.5t-35.5 52t-13 63.5t13 64t35 52t52 35t64 13q36 0 65 -12.5t50 -34.5t32.5 -52t11.5 -65t-11.5 -65t-32.5 -52t-50 -34.5t-65 -12.5z
M1842 1104q-34 0 -63.5 13t-52 35.5t-35.5 52t-13 63.5t13 64t35 52t52 35t64 13q36 0 65 -12.5t50 -34.5t32.5 -52t11.5 -65t-11.5 -65t-32.5 -52t-50 -34.5t-65 -12.5zM1842 1476q-34 0 -64 13t-52 35t-35 52t-13 64t13 63.5t35.5 52t52 35.5t63.5 13q36 0 65.5 -12.5
t50 -35t32 -53t11.5 -65.5q0 -36 -11.5 -65.5t-32 -51t-50 -33.5t-65.5 -12z" />
    <glyph glyph-name="b" unicode="b" 
d="M366 0q-34 0 -64 13t-52 35t-35 52t-13 64t13 63.5t35.5 52t52 35.5t63.5 13q33 0 62.5 -13.5t52 -36t36 -52t13.5 -62.5q0 -34 -13 -63.5t-35.5 -52t-52 -35.5t-63.5 -13zM366 368q-34 0 -63.5 13t-52 35.5t-35.5 52t-13 63.5t13 64t35 52t52 35t64 13t63.5 -13
t52 -35.5t35.5 -52t13 -63.5q0 -33 -13.5 -63t-36 -52.5t-52 -35.5t-62.5 -13zM366 736q-34 0 -63.5 13t-52 35.5t-35.5 52t-13 63.5t13 64t35 52t52 35t64 13t63.5 -13t52 -35.5t35.5 -52t13 -63.5q0 -33 -13.5 -63t-36 -52.5t-52 -35.5t-62.5 -13zM366 1104
q-34 0 -63.5 13t-52 35.5t-35.5 52t-13 63.5t13 64t35 52t52 35t64 13t63.5 -13t52 -35.5t35.5 -52t13 -63.5q0 -33 -13.5 -63t-36 -52.5t-52 -35.5t-62.5 -13zM366 1476q-34 0 -64 13t-52 35t-35 52t-13 64t13 63.5t35.5 52t52 35.5t63.5 13q33 0 62.5 -13.5t52 -36t36 -52
t13.5 -62.5q0 -34 -13 -63.5t-35.5 -52t-52 -35.5t-63.5 -13zM366 1844q-34 0 -64 13t-52 35t-35 52t-13 64t13 63.5t35.5 52t52 35.5t63.5 13q33 0 62.5 -13.5t52 -36t36 -52t13.5 -62.5q0 -34 -13 -63.5t-35.5 -52t-52 -35.5t-63.5 -13zM734 0q-34 0 -63.5 13t-52 35.5
t-35.5 52t-13 63.5q0 33 13 62.5t35.5 52t52.5 36t63 13.5q34 0 63.5 -13t52 -35.5t35.5 -52t13 -63.5t-13 -64t-35 -52t-52 -35t-64 -13zM734 1104q-33 0 -63 13t-52.5 35.5t-35.5 52.5t-13 63q0 34 13 63.5t35.5 52t52 35.5t63.5 13t64 -13t52 -35t35 -52t13 -64
t-13 -63.5t-35.5 -52t-52 -35.5t-63.5 -13zM734 1844q-34 0 -63.5 13t-52 35.5t-35.5 52t-13 63.5q0 33 13 62.5t35.5 52t52.5 36t63 13.5q34 0 63.5 -13t52 -35.5t35.5 -52t13 -63.5t-13 -64t-35 -52t-52 -35t-64 -13zM1102 0q-34 0 -63.5 13t-52 35.5t-35.5 52t-13 63.5
q0 33 13 62.5t35.5 52t52.5 36t63 13.5q34 0 63.5 -13t52 -35.5t35.5 -52t13 -63.5t-13 -64t-35 -52t-52 -35t-64 -13zM1102 1104q-33 0 -63 13t-52.5 35.5t-35.5 52.5t-13 63q0 34 13 63.5t35.5 52t52 35.5t63.5 13t64 -13t52 -35t35 -52t13 -64t-13 -63.5t-35.5 -52
t-52 -35.5t-63.5 -13zM1102 1844q-34 0 -63.5 13t-52 35.5t-35.5 52t-13 63.5q0 33 13 62.5t35.5 52t52.5 36t63 13.5q34 0 63.5 -13t52 -35.5t35.5 -52t13 -63.5t-13 -64t-35 -52t-52 -35t-64 -13zM1470 0q-34 0 -63.5 13t-52 35.5t-35.5 52t-13 63.5q0 33 13 62.5t35.5 52
t52.5 36t63 13.5q34 0 63.5 -13t52 -35.5t35.5 -52t13 -63.5t-13 -64t-35 -52t-52 -35t-64 -13zM1470 1104q-33 0 -63 13t-52.5 35.5t-35.5 52.5t-13 63q0 34 13 63.5t35.5 52t52 35.5t63.5 13t64 -13t52 -35t35 -52t13 -64t-13 -63.5t-35.5 -52t-52 -35.5t-63.5 -13z
M1470 1844q-34 0 -63.5 13t-52 35.5t-35.5 52t-13 63.5q0 33 13 62.5t35.5 52t52.5 36t63 13.5q34 0 63.5 -13t52 -35.5t35.5 -52t13 -63.5t-13 -64t-35 -52t-52 -35t-64 -13zM1842 368q-34 0 -63.5 13t-52 35.5t-35.5 52t-13 63.5t13 64t35 52t52 35t64 13q36 0 65 -12.5
t50 -34.5t32.5 -52t11.5 -65t-11.5 -65t-32.5 -52t-50 -34.5t-65 -12.5zM1842 736q-34 0 -63.5 13t-52 35.5t-35.5 52t-13 63.5t13 64t35 52t52 35t64 13q36 0 65 -12.5t50 -34.5t32.5 -52t11.5 -65t-11.5 -65t-32.5 -52t-50 -34.5t-65 -12.5zM1842 1476q-34 0 -64 13
t-52 35t-35 52t-13 64t13 63.5t35.5 52t52 35.5t63.5 13q36 0 65.5 -12.5t50 -35t32 -53t11.5 -65.5q0 -36 -11.5 -65.5t-32 -51t-50 -33.5t-65.5 -12z" />
    <glyph glyph-name="c" unicode="c" 
d="M366 368q-34 0 -63.5 13t-52 35.5t-35.5 52t-13 63.5t13 64t35 52t52 35t64 13t63.5 -13t52 -35.5t35.5 -52t13 -63.5q0 -33 -13.5 -63t-36 -52.5t-52 -35.5t-62.5 -13zM366 736q-34 0 -63.5 13t-52 35.5t-35.5 52t-13 63.5t13 64t35 52t52 35t64 13t63.5 -13t52 -35.5
t35.5 -52t13 -63.5q0 -33 -13.5 -63t-36 -52.5t-52 -35.5t-62.5 -13zM366 1104q-34 0 -63.5 13t-52 35.5t-35.5 52t-13 63.5t13 64t35 52t52 35t64 13t63.5 -13t52 -35.5t35.5 -52t13 -63.5q0 -33 -13.5 -63t-36 -52.5t-52 -35.5t-62.5 -13zM366 1476q-34 0 -64 13t-52 35
t-35 52t-13 64t13 63.5t35.5 52t52 35.5t63.5 13q33 0 62.5 -13.5t52 -36t36 -52t13.5 -62.5q0 -34 -13 -63.5t-35.5 -52t-52 -35.5t-63.5 -13zM734 0q-34 0 -63.5 13t-52 35.5t-35.5 52t-13 63.5q0 33 13 62.5t35.5 52t52.5 36t63 13.5q34 0 63.5 -13t52 -35.5t35.5 -52
t13 -63.5t-13 -64t-35 -52t-52 -35t-64 -13zM734 1844q-34 0 -63.5 13t-52 35.5t-35.5 52t-13 63.5q0 33 13 62.5t35.5 52t52.5 36t63 13.5q34 0 63.5 -13t52 -35.5t35.5 -52t13 -63.5t-13 -64t-35 -52t-52 -35t-64 -13zM1102 0q-34 0 -63.5 13t-52 35.5t-35.5 52t-13 63.5
q0 33 13 62.5t35.5 52t52.5 36t63 13.5q34 0 63.5 -13t52 -35.5t35.5 -52t13 -63.5t-13 -64t-35 -52t-52 -35t-64 -13zM1102 1844q-34 0 -63.5 13t-52 35.5t-35.5 52t-13 63.5q0 33 13 62.5t35.5 52t52.5 36t63 13.5q34 0 63.5 -13t52 -35.5t35.5 -52t13 -63.5t-13 -64
t-35 -52t-52 -35t-64 -13zM1470 0q-34 0 -63.5 13t-52 35.5t-35.5 52t-13 63.5q0 33 13 62.5t35.5 52t52.5 36t63 13.5q34 0 63.5 -13t52 -35.5t35.5 -52t13 -63.5t-13 -64t-35 -52t-52 -35t-64 -13zM1470 1844q-34 0 -63.5 13t-52 35.5t-35.5 52t-13 63.5q0 33 13 62.5
t35.5 52t52.5 36t63 13.5q34 0 63.5 -13t52 -35.5t35.5 -52t13 -63.5t-13 -64t-35 -52t-52 -35t-64 -13zM1842 368q-34 0 -63.5 13t-52 35.5t-35.5 52t-13 63.5t13 64t35 52t52 35t64 13q36 0 65 -12.5t50 -34.5t32.5 -52t11.5 -65t-11.5 -65t-32.5 -52t-50 -34.5t-65 -12.5
zM1842 1476q-34 0 -64 13t-52 35t-35 52t-13 64t13 63.5t35.5 52t52 35.5t63.5 13q36 0 65.5 -12.5t50 -35t32 -53t11.5 -65.5q0 -36 -11.5 -65.5t-32 -51t-50 -33.5t-65.5 -12z" />
    <glyph glyph-name="d" unicode="d" 
d="M366 0q-34 0 -64 13t-52 35t-35 52t-13 64t13 63.5t35.5 52t52 35.5t63.5 13q33 0 62.5 -13.5t52 -36t36 -52t13.5 -62.5q0 -34 -13 -63.5t-35.5 -52t-52 -35.5t-63.5 -13zM366 368q-34 0 -63.5 13t-52 35.5t-35.5 52t-13 63.5t13 64t35 52t52 35t64 13t63.5 -13
t52 -35.5t35.5 -52t13 -63.5q0 -33 -13.5 -63t-36 -52.5t-52 -35.5t-62.5 -13zM366 736q-34 0 -63.5 13t-52 35.5t-35.5 52t-13 63.5t13 64t35 52t52 35t64 13t63.5 -13t52 -35.5t35.5 -52t13 -63.5q0 -33 -13.5 -63t-36 -52.5t-52 -35.5t-62.5 -13zM366 1104
q-34 0 -63.5 13t-52 35.5t-35.5 52t-13 63.5t13 64t35 52t52 35t64 13t63.5 -13t52 -35.5t35.5 -52t13 -63.5q0 -33 -13.5 -63t-36 -52.5t-52 -35.5t-62.5 -13zM366 1476q-34 0 -64 13t-52 35t-35 52t-13 64t13 63.5t35.5 52t52 35.5t63.5 13q33 0 62.5 -13.5t52 -36t36 -52
t13.5 -62.5q0 -34 -13 -63.5t-35.5 -52t-52 -35.5t-63.5 -13zM366 1844q-34 0 -64 13t-52 35t-35 52t-13 64t13 63.5t35.5 52t52 35.5t63.5 13q33 0 62.5 -13.5t52 -36t36 -52t13.5 -62.5q0 -34 -13 -63.5t-35.5 -52t-52 -35.5t-63.5 -13zM734 0q-34 0 -63.5 13t-52 35.5
t-35.5 52t-13 63.5q0 33 13 62.5t35.5 52t52.5 36t63 13.5q34 0 63.5 -13t52 -35.5t35.5 -52t13 -63.5t-13 -64t-35 -52t-52 -35t-64 -13zM734 1844q-34 0 -63.5 13t-52 35.5t-35.5 52t-13 63.5q0 33 13 62.5t35.5 52t52.5 36t63 13.5q34 0 63.5 -13t52 -35.5t35.5 -52
t13 -63.5t-13 -64t-35 -52t-52 -35t-64 -13zM1102 0q-34 0 -63.5 13t-52 35.5t-35.5 52t-13 63.5q0 33 13 62.5t35.5 52t52.5 36t63 13.5q34 0 63.5 -13t52 -35.5t35.5 -52t13 -63.5t-13 -64t-35 -52t-52 -35t-64 -13zM1102 1844q-34 0 -63.5 13t-52 35.5t-35.5 52t-13 63.5
q0 33 13 62.5t35.5 52t52.5 36t63 13.5q34 0 63.5 -13t52 -35.5t35.5 -52t13 -63.5t-13 -64t-35 -52t-52 -35t-64 -13zM1470 0q-34 0 -63.5 13t-52 35.5t-35.5 52t-13 63.5q0 33 13 62.5t35.5 52t52.5 36t63 13.5q34 0 63.5 -13t52 -35.5t35.5 -52t13 -63.5t-13 -64t-35 -52
t-52 -35t-64 -13zM1470 1844q-34 0 -63.5 13t-52 35.5t-35.5 52t-13 63.5q0 33 13 62.5t35.5 52t52.5 36t63 13.5q34 0 63.5 -13t52 -35.5t35.5 -52t13 -63.5t-13 -64t-35 -52t-52 -35t-64 -13zM1842 368q-34 0 -63.5 13t-52 35.5t-35.5 52t-13 63.5t13 64t35 52t52 35
t64 13q36 0 65 -12.5t50 -34.5t32.5 -52t11.5 -65t-11.5 -65t-32.5 -52t-50 -34.5t-65 -12.5zM1842 736q-34 0 -63.5 13t-52 35.5t-35.5 52t-13 63.5t13 64t35 52t52 35t64 13q36 0 65 -12.5t50 -34.5t32.5 -52t11.5 -65t-11.5 -65t-32.5 -52t-50 -34.5t-65 -12.5z
M1842 1104q-34 0 -63.5 13t-52 35.5t-35.5 52t-13 63.5t13 64t35 52t52 35t64 13q36 0 65 -12.5t50 -34.5t32.5 -52t11.5 -65t-11.5 -65t-32.5 -52t-50 -34.5t-65 -12.5zM1842 1476q-34 0 -64 13t-52 35t-35 52t-13 64t13 63.5t35.5 52t52 35.5t63.5 13q36 0 65.5 -12.5
t50 -35t32 -53t11.5 -65.5q0 -36 -11.5 -65.5t-32 -51t-50 -33.5t-65.5 -12z" />
    <glyph glyph-name="e" unicode="e" 
d="M366 0q-34 0 -64 13t-52 35t-35 52t-13 64t13 63.5t35.5 52t52 35.5t63.5 13q33 0 62.5 -13.5t52 -36t36 -52t13.5 -62.5q0 -34 -13 -63.5t-35.5 -52t-52 -35.5t-63.5 -13zM366 368q-34 0 -63.5 13t-52 35.5t-35.5 52t-13 63.5t13 64t35 52t52 35t64 13t63.5 -13
t52 -35.5t35.5 -52t13 -63.5q0 -33 -13.5 -63t-36 -52.5t-52 -35.5t-62.5 -13zM366 736q-34 0 -63.5 13t-52 35.5t-35.5 52t-13 63.5t13 64t35 52t52 35t64 13t63.5 -13t52 -35.5t35.5 -52t13 -63.5q0 -33 -13.5 -63t-36 -52.5t-52 -35.5t-62.5 -13zM366 1104
q-34 0 -63.5 13t-52 35.5t-35.5 52t-13 63.5t13 64t35 52t52 35t64 13t63.5 -13t52 -35.5t35.5 -52t13 -63.5q0 -33 -13.5 -63t-36 -52.5t-52 -35.5t-62.5 -13zM366 1476q-34 0 -64 13t-52 35t-35 52t-13 64t13 63.5t35.5 52t52 35.5t63.5 13q33 0 62.5 -13.5t52 -36t36 -52
t13.5 -62.5q0 -34 -13 -63.5t-35.5 -52t-52 -35.5t-63.5 -13zM366 1844q-34 0 -64 13t-52 35t-35 52t-13 64t13 63.5t35.5 52t52 35.5t63.5 13q33 0 62.5 -13.5t52 -36t36 -52t13.5 -62.5q0 -34 -13 -63.5t-35.5 -52t-52 -35.5t-63.5 -13zM734 0q-34 0 -63.5 13t-52 35.5
t-35.5 52t-13 63.5q0 33 13 62.5t35.5 52t52.5 36t63 13.5q34 0 63.5 -13t52 -35.5t35.5 -52t13 -63.5t-13 -64t-35 -52t-52 -35t-64 -13zM734 1104q-33 0 -63 13t-52.5 35.5t-35.5 52.5t-13 63q0 34 13 63.5t35.5 52t52 35.5t63.5 13t64 -13t52 -35t35 -52t13 -64
t-13 -63.5t-35.5 -52t-52 -35.5t-63.5 -13zM734 1844q-34 0 -63.5 13t-52 35.5t-35.5 52t-13 63.5q0 33 13 62.5t35.5 52t52.5 36t63 13.5q34 0 63.5 -13t52 -35.5t35.5 -52t13 -63.5t-13 -64t-35 -52t-52 -35t-64 -13zM1102 0q-34 0 -63.5 13t-52 35.5t-35.5 52t-13 63.5
q0 33 13 62.5t35.5 52t52.5 36t63 13.5q34 0 63.5 -13t52 -35.5t35.5 -52t13 -63.5t-13 -64t-35 -52t-52 -35t-64 -13zM1102 1104q-33 0 -63 13t-52.5 35.5t-35.5 52.5t-13 63q0 34 13 63.5t35.5 52t52 35.5t63.5 13t64 -13t52 -35t35 -52t13 -64t-13 -63.5t-35.5 -52
t-52 -35.5t-63.5 -13zM1102 1844q-34 0 -63.5 13t-52 35.5t-35.5 52t-13 63.5q0 33 13 62.5t35.5 52t52.5 36t63 13.5q34 0 63.5 -13t52 -35.5t35.5 -52t13 -63.5t-13 -64t-35 -52t-52 -35t-64 -13zM1470 0q-34 0 -63.5 13t-52 35.5t-35.5 52t-13 63.5q0 33 13 62.5t35.5 52
t52.5 36t63 13.5q34 0 63.5 -13t52 -35.5t35.5 -52t13 -63.5t-13 -64t-35 -52t-52 -35t-64 -13zM1470 1104q-33 0 -63 13t-52.5 35.5t-35.5 52.5t-13 63q0 34 13 63.5t35.5 52t52 35.5t63.5 13t64 -13t52 -35t35 -52t13 -64t-13 -63.5t-35.5 -52t-52 -35.5t-63.5 -13z
M1470 1844q-34 0 -63.5 13t-52 35.5t-35.5 52t-13 63.5q0 33 13 62.5t35.5 52t52.5 36t63 13.5q34 0 63.5 -13t52 -35.5t35.5 -52t13 -63.5t-13 -64t-35 -52t-52 -35t-64 -13zM1842 0q-34 0 -64 13t-52 35t-35 52t-13 64t13 63.5t35.5 52t52 35.5t63.5 13q36 0 65.5 -12.5
t50 -35t32 -53t11.5 -65.5q0 -36 -11.5 -65.5t-32 -51t-50 -33.5t-65.5 -12zM1842 1844q-34 0 -64 13t-52 35t-35 52t-13 64t13 63.5t35.5 52t52 35.5t63.5 13q36 0 65.5 -12.5t50 -35t32 -53t11.5 -65.5q0 -36 -11.5 -65.5t-32 -51t-50 -33.5t-65.5 -12z" />
    <glyph glyph-name="f" unicode="f" 
d="M366 0q-34 0 -64 13t-52 35t-35 52t-13 64t13 63.5t35.5 52t52 35.5t63.5 13q33 0 62.5 -13.5t52 -36t36 -52t13.5 -62.5q0 -34 -13 -63.5t-35.5 -52t-52 -35.5t-63.5 -13zM366 368q-34 0 -63.5 13t-52 35.5t-35.5 52t-13 63.5t13 64t35 52t52 35t64 13t63.5 -13
t52 -35.5t35.5 -52t13 -63.5q0 -33 -13.5 -63t-36 -52.5t-52 -35.5t-62.5 -13zM366 736q-34 0 -63.5 13t-52 35.5t-35.5 52t-13 63.5t13 64t35 52t52 35t64 13t63.5 -13t52 -35.5t35.5 -52t13 -63.5q0 -33 -13.5 -63t-36 -52.5t-52 -35.5t-62.5 -13zM366 1104
q-34 0 -63.5 13t-52 35.5t-35.5 52t-13 63.5t13 64t35 52t52 35t64 13t63.5 -13t52 -35.5t35.5 -52t13 -63.5q0 -33 -13.5 -63t-36 -52.5t-52 -35.5t-62.5 -13zM366 1476q-34 0 -64 13t-52 35t-35 52t-13 64t13 63.5t35.5 52t52 35.5t63.5 13q33 0 62.5 -13.5t52 -36t36 -52
t13.5 -62.5q0 -34 -13 -63.5t-35.5 -52t-52 -35.5t-63.5 -13zM366 1844q-34 0 -64 13t-52 35t-35 52t-13 64t13 63.5t35.5 52t52 35.5t63.5 13q33 0 62.5 -13.5t52 -36t36 -52t13.5 -62.5q0 -34 -13 -63.5t-35.5 -52t-52 -35.5t-63.5 -13zM734 732q-33 0 -63 13t-52.5 35.5
t-35.5 52.5t-13 63q0 34 13 63.5t35.5 52t52 35.5t63.5 13t64 -13t52 -35t35 -52t13 -64t-13 -63.5t-35.5 -52t-52 -35.5t-63.5 -13zM734 1844q-34 0 -63.5 13t-52 35.5t-35.5 52t-13 63.5q0 33 13 62.5t35.5 52t52.5 36t63 13.5q34 0 63.5 -13t52 -35.5t35.5 -52t13 -63.5
t-13 -64t-35 -52t-52 -35t-64 -13zM1102 732q-33 0 -63 13t-52.5 35.5t-35.5 52.5t-13 63q0 34 13 63.5t35.5 52t52 35.5t63.5 13t64 -13t52 -35t35 -52t13 -64t-13 -63.5t-35.5 -52t-52 -35.5t-63.5 -13zM1102 1844q-34 0 -63.5 13t-52 35.5t-35.5 52t-13 63.5
q0 33 13 62.5t35.5 52t52.5 36t63 13.5q34 0 63.5 -13t52 -35.5t35.5 -52t13 -63.5t-13 -64t-35 -52t-52 -35t-64 -13zM1470 732q-33 0 -63 13t-52.5 35.5t-35.5 52.5t-13 63q0 34 13 63.5t35.5 52t52 35.5t63.5 13t64 -13t52 -35t35 -52t13 -64t-13 -63.5t-35.5 -52
t-52 -35.5t-63.5 -13zM1470 1844q-34 0 -63.5 13t-52 35.5t-35.5 52t-13 63.5q0 33 13 62.5t35.5 52t52.5 36t63 13.5q34 0 63.5 -13t52 -35.5t35.5 -52t13 -63.5t-13 -64t-35 -52t-52 -35t-64 -13zM1842 1844q-34 0 -64 13t-52 35t-35 52t-13 64t13 63.5t35.5 52t52 35.5
t63.5 13q36 0 65.5 -12.5t50 -35t32 -53t11.5 -65.5q0 -36 -11.5 -65.5t-32 -51t-50 -33.5t-65.5 -12z" />
    <glyph glyph-name="g" unicode="g" 
d="M366 368q-34 0 -63.5 13t-52 35.5t-35.5 52t-13 63.5t13 64t35 52t52 35t64 13t63.5 -13t52 -35.5t35.5 -52t13 -63.5q0 -33 -13.5 -63t-36 -52.5t-52 -35.5t-62.5 -13zM366 736q-34 0 -63.5 13t-52 35.5t-35.5 52t-13 63.5t13 64t35 52t52 35t64 13t63.5 -13t52 -35.5
t35.5 -52t13 -63.5q0 -33 -13.5 -63t-36 -52.5t-52 -35.5t-62.5 -13zM366 1104q-34 0 -63.5 13t-52 35.5t-35.5 52t-13 63.5t13 64t35 52t52 35t64 13t63.5 -13t52 -35.5t35.5 -52t13 -63.5q0 -33 -13.5 -63t-36 -52.5t-52 -35.5t-62.5 -13zM366 1476q-34 0 -64 13t-52 35
t-35 52t-13 64t13 63.5t35.5 52t52 35.5t63.5 13q33 0 62.5 -13.5t52 -36t36 -52t13.5 -62.5q0 -34 -13 -63.5t-35.5 -52t-52 -35.5t-63.5 -13zM734 0q-34 0 -63.5 13t-52 35.5t-35.5 52t-13 63.5q0 33 13 62.5t35.5 52t52.5 36t63 13.5q34 0 63.5 -13t52 -35.5t35.5 -52
t13 -63.5t-13 -64t-35 -52t-52 -35t-64 -13zM734 1844q-34 0 -63.5 13t-52 35.5t-35.5 52t-13 63.5q0 33 13 62.5t35.5 52t52.5 36t63 13.5q34 0 63.5 -13t52 -35.5t35.5 -52t13 -63.5t-13 -64t-35 -52t-52 -35t-64 -13zM1102 0q-34 0 -63.5 13t-52 35.5t-35.5 52t-13 63.5
q0 33 13 62.5t35.5 52t52.5 36t63 13.5q34 0 63.5 -13t52 -35.5t35.5 -52t13 -63.5t-13 -64t-35 -52t-52 -35t-64 -13zM1102 1844q-34 0 -63.5 13t-52 35.5t-35.5 52t-13 63.5q0 33 13 62.5t35.5 52t52.5 36t63 13.5q34 0 63.5 -13t52 -35.5t35.5 -52t13 -63.5t-13 -64
t-35 -52t-52 -35t-64 -13zM1470 0q-34 0 -63.5 13t-52 35.5t-35.5 52t-13 63.5q0 33 13 62.5t35.5 52t52.5 36t63 13.5q34 0 63.5 -13t52 -35.5t35.5 -52t13 -63.5t-13 -64t-35 -52t-52 -35t-64 -13zM1470 1844q-34 0 -63.5 13t-52 35.5t-35.5 52t-13 63.5q0 33 13 62.5
t35.5 52t52.5 36t63 13.5q34 0 63.5 -13t52 -35.5t35.5 -52t13 -63.5t-13 -64t-35 -52t-52 -35t-64 -13zM1842 368q-34 0 -63.5 13t-52 35.5t-35.5 52t-13 63.5t13 64t35 52t52 35t64 13q36 0 65 -12.5t50 -34.5t32.5 -52t11.5 -65t-11.5 -65t-32.5 -52t-50 -34.5t-65 -12.5
zM1842 1476q-34 0 -64 13t-52 35t-35 52t-13 64t13 63.5t35.5 52t52 35.5t63.5 13q36 0 65.5 -12.5t50 -35t32 -53t11.5 -65.5q0 -36 -11.5 -65.5t-32 -51t-50 -33.5t-65.5 -12zM1470 736q-33 0 -63 13t-52.5 35.5t-35.5 52.5t-13 63q0 34 13 63.5t35.5 52t52 35.5t63.5 13
t64 -13t52 -35t35 -52t13 -64t-13 -63.5t-35.5 -52t-52 -35.5t-63.5 -13zM1842 736q-34 0 -63.5 13t-52 35.5t-35.5 52t-13 63.5t13 64t35 52t52 35t64 13q36 0 65 -12.5t50 -34.5t32.5 -52t11.5 -65t-11.5 -65t-32.5 -52t-50 -34.5t-65 -12.5z" />
    <glyph glyph-name="h" unicode="h" 
d="M366 0q-34 0 -64 13t-52 35t-35 52t-13 64t13 63.5t35.5 52t52 35.5t63.5 13q33 0 62.5 -13.5t52 -36t36 -52t13.5 -62.5q0 -34 -13 -63.5t-35.5 -52t-52 -35.5t-63.5 -13zM366 368q-34 0 -63.5 13t-52 35.5t-35.5 52t-13 63.5t13 64t35 52t52 35t64 13t63.5 -13
t52 -35.5t35.5 -52t13 -63.5q0 -33 -13.5 -63t-36 -52.5t-52 -35.5t-62.5 -13zM366 736q-34 0 -63.5 13t-52 35.5t-35.5 52t-13 63.5t13 64t35 52t52 35t64 13t63.5 -13t52 -35.5t35.5 -52t13 -63.5q0 -33 -13.5 -63t-36 -52.5t-52 -35.5t-62.5 -13zM366 1104
q-34 0 -63.5 13t-52 35.5t-35.5 52t-13 63.5t13 64t35 52t52 35t64 13t63.5 -13t52 -35.5t35.5 -52t13 -63.5q0 -33 -13.5 -63t-36 -52.5t-52 -35.5t-62.5 -13zM366 1476q-34 0 -64 13t-52 35t-35 52t-13 64t13 63.5t35.5 52t52 35.5t63.5 13q33 0 62.5 -13.5t52 -36t36 -52
t13.5 -62.5q0 -34 -13 -63.5t-35.5 -52t-52 -35.5t-63.5 -13zM366 1844q-34 0 -64 13t-52 35t-35 52t-13 64q0 36 12.5 65t34.5 50t52 32.5t65 11.5t65 -11.5t52 -32.5t34.5 -50t12.5 -65q0 -34 -13 -63.5t-35.5 -52t-52 -35.5t-63.5 -13zM734 1104q-33 0 -63 13t-52.5 35.5
t-35.5 52.5t-13 63q0 34 13 63.5t35.5 52t52 35.5t63.5 13t64 -13t52 -35t35 -52t13 -64t-13 -63.5t-35.5 -52t-52 -35.5t-63.5 -13zM1102 1104q-33 0 -63 13t-52.5 35.5t-35.5 52.5t-13 63q0 34 13 63.5t35.5 52t52 35.5t63.5 13t64 -13t52 -35t35 -52t13 -64t-13 -63.5
t-35.5 -52t-52 -35.5t-63.5 -13zM1470 1104q-33 0 -63 13t-52.5 35.5t-35.5 52.5t-13 63q0 34 13 63.5t35.5 52t52 35.5t63.5 13t64 -13t52 -35t35 -52t13 -64t-13 -63.5t-35.5 -52t-52 -35.5t-63.5 -13zM1842 0q-34 0 -64 13t-52 35t-35 52t-13 64t13 63.5t35.5 52t52 35.5
t63.5 13q36 0 65.5 -12.5t50 -35t32 -53t11.5 -65.5q0 -36 -11.5 -65.5t-32 -51t-50 -33.5t-65.5 -12zM1842 368q-34 0 -63.5 13t-52 35.5t-35.5 52t-13 63.5t13 64t35 52t52 35t64 13q36 0 65 -12.5t50 -34.5t32.5 -52t11.5 -65t-11.5 -65t-32.5 -52t-50 -34.5t-65 -12.5z
M1842 736q-34 0 -63.5 13t-52 35.5t-35.5 52t-13 63.5t13 64t35 52t52 35t64 13q36 0 65 -12.5t50 -34.5t32.5 -52t11.5 -65t-11.5 -65t-32.5 -52t-50 -34.5t-65 -12.5zM1842 1104q-34 0 -63.5 13t-52 35.5t-35.5 52t-13 63.5t13 64t35 52t52 35t64 13q36 0 65 -12.5
t50 -34.5t32.5 -52t11.5 -65t-11.5 -65t-32.5 -52t-50 -34.5t-65 -12.5zM1842 1476q-34 0 -64 13t-52 35t-35 52t-13 64t13 63.5t35.5 52t52 35.5t63.5 13q36 0 65.5 -12.5t50 -35t32 -53t11.5 -65.5q0 -36 -11.5 -65.5t-32 -51t-50 -33.5t-65.5 -12zM1842 1844
q-34 0 -64 13t-52 35t-35 52t-13 64q0 35 12 64.5t34 50.5t51.5 33t64.5 12q36 0 65.5 -12t50.5 -33.5t33 -51t12 -65.5t-11.5 -65.5t-32 -51t-50 -33.5t-65.5 -12z" />
    <glyph glyph-name="i" unicode="i" 
d="M734 0q-34 0 -63.5 13t-52 35.5t-35.5 52t-13 63.5q0 33 13 62.5t35.5 52t52.5 36t63 13.5q34 0 63.5 -13t52 -35.5t35.5 -52t13 -63.5t-13 -64t-35 -52t-52 -35t-64 -13zM734 1844q-34 0 -63.5 13t-52 35.5t-35.5 52t-13 63.5q0 36 12.5 65t34.5 50t52 32.5t65 11.5
t65 -11.5t52 -32.5t34.5 -50t12.5 -65q0 -34 -13 -64t-35 -52t-52 -35t-64 -13zM1102 0q-34 0 -63.5 13t-52 35.5t-35.5 52t-13 63.5q0 33 13 62.5t35.5 52t52.5 36t63 13.5q34 0 63.5 -13t52 -35.5t35.5 -52t13 -63.5t-13 -64t-35 -52t-52 -35t-64 -13zM1102 368
q-36 0 -65 12.5t-50 34.5t-32.5 52t-11.5 65t11.5 65t32.5 52t50 34.5t65 12.5q34 0 64 -13t52 -35t35 -52t13 -64t-13 -63.5t-35.5 -52t-52 -35.5t-63.5 -13zM1102 736q-36 0 -65 12.5t-50 34.5t-32.5 52t-11.5 65t11.5 65t32.5 52t50 34.5t65 12.5q34 0 64 -13t52 -35
t35 -52t13 -64t-13 -63.5t-35.5 -52t-52 -35.5t-63.5 -13zM1102 1104q-36 0 -65 12.5t-50 34.5t-32.5 52t-11.5 65t11.5 65t32.5 52t50 34.5t65 12.5q34 0 64 -13t52 -35t35 -52t13 -64t-13 -63.5t-35.5 -52t-52 -35.5t-63.5 -13zM1102 1476q-36 0 -65 12.5t-50 34.5
t-32.5 52t-11.5 65t11.5 65t32.5 52t50 34.5t65 12.5q34 0 63.5 -13t52 -35.5t35.5 -52t13 -63.5t-13 -64t-35 -52t-52 -35t-64 -13zM1102 1844q-34 0 -63.5 13t-52 35.5t-35.5 52t-13 63.5q0 36 12.5 65t34.5 50t52 32.5t65 11.5t65 -11.5t52 -32.5t34.5 -50t12.5 -65
q0 -34 -13 -64t-35 -52t-52 -35t-64 -13zM1470 0q-34 0 -63.5 13t-52 35.5t-35.5 52t-13 63.5q0 33 13 62.5t35.5 52t52.5 36t63 13.5q34 0 63.5 -13t52 -35.5t35.5 -52t13 -63.5t-13 -64t-35 -52t-52 -35t-64 -13zM1470 1844q-34 0 -63.5 13t-52 35.5t-35.5 52t-13 63.5
q0 36 12.5 65t34.5 50t52 32.5t65 11.5t65 -11.5t52 -32.5t34.5 -50t12.5 -65q0 -34 -13 -64t-35 -52t-52 -35t-64 -13z" />
    <glyph glyph-name="j" unicode="j" 
d="M366 368q-34 0 -63.5 13t-52 35.5t-35.5 52t-13 63.5q0 36 12.5 65.5t34.5 50.5t52 32.5t65 11.5t65 -11.5t52 -32.5t34.5 -50.5t12.5 -65.5q0 -33 -13.5 -63t-36 -52.5t-52 -35.5t-62.5 -13zM734 0q-34 0 -63.5 13t-52 35.5t-35.5 52t-13 63.5q0 33 13 62.5t35.5 52
t52.5 36t63 13.5q34 0 63.5 -13t52 -35.5t35.5 -52t13 -63.5t-13 -64t-35 -52t-52 -35t-64 -13zM734 1844q-34 0 -63.5 13t-52 35.5t-35.5 52t-13 63.5q0 36 12.5 65t34.5 50t52 32.5t65 11.5t65 -11.5t52 -32.5t34.5 -50t12.5 -65q0 -34 -13 -64t-35 -52t-52 -35t-64 -13z
M1102 0q-34 0 -63.5 13t-52 35.5t-35.5 52t-13 63.5q0 33 13 62.5t35.5 52t52.5 36t63 13.5q34 0 63.5 -13t52 -35.5t35.5 -52t13 -63.5t-13 -64t-35 -52t-52 -35t-64 -13zM1102 1844q-34 0 -63.5 13t-52 35.5t-35.5 52t-13 63.5q0 36 12.5 65t34.5 50t52 32.5t65 11.5
t65 -11.5t52 -32.5t34.5 -50t12.5 -65q0 -34 -13 -64t-35 -52t-52 -35t-64 -13zM1470 0q-34 0 -63.5 13t-52 35.5t-35.5 52t-13 63.5q0 33 13 62.5t35.5 52t52.5 36t63 13.5q34 0 63.5 -13t52 -35.5t35.5 -52t13 -63.5t-13 -64t-35 -52t-52 -35t-64 -13zM1470 1844
q-34 0 -63.5 13t-52 35.5t-35.5 52t-13 63.5q0 36 12.5 65t34.5 50t52 32.5t65 11.5t65 -11.5t52 -32.5t34.5 -50t12.5 -65q0 -34 -13 -64t-35 -52t-52 -35t-64 -13zM1842 368q-34 0 -63.5 13t-52 35.5t-35.5 52t-13 63.5t13 64t35 52t52 35t64 13q36 0 65 -12.5t50 -34.5
t32.5 -52t11.5 -65t-11.5 -65t-32.5 -52t-50 -34.5t-65 -12.5zM1842 736q-34 0 -63.5 13t-52 35.5t-35.5 52t-13 63.5t13 64t35 52t52 35t64 13q36 0 65 -12.5t50 -34.5t32.5 -52t11.5 -65t-11.5 -65t-32.5 -52t-50 -34.5t-65 -12.5zM1842 1104q-34 0 -63.5 13t-52 35.5
t-35.5 52t-13 63.5t13 64t35 52t52 35t64 13q36 0 65 -12.5t50 -34.5t32.5 -52t11.5 -65t-11.5 -65t-32.5 -52t-50 -34.5t-65 -12.5zM1842 1476q-34 0 -64 13t-52 35t-35 52t-13 64t13 63.5t35.5 52t52 35.5t63.5 13q36 0 65.5 -12.5t50 -35t32 -53t11.5 -65.5
q0 -36 -11.5 -65.5t-32 -51t-50 -33.5t-65.5 -12zM1842 1844q-34 0 -64 13t-52 35t-35 52t-13 64q0 35 12 64.5t34 50.5t51.5 33t64.5 12q36 0 65.5 -12t50.5 -33.5t33 -51t12 -65.5t-11.5 -65.5t-32 -51t-50 -33.5t-65.5 -12z" />
    <glyph glyph-name="k" unicode="k" 
d="M366 0q-34 0 -64 13t-52 35t-35 52t-13 64t13 63.5t35.5 52t52 35.5t63.5 13q33 0 62.5 -13.5t52 -36t36 -52t13.5 -62.5q0 -34 -13 -63.5t-35.5 -52t-52 -35.5t-63.5 -13zM366 368q-34 0 -63.5 13t-52 35.5t-35.5 52t-13 63.5t13 64t35 52t52 35t64 13t63.5 -13
t52 -35.5t35.5 -52t13 -63.5q0 -33 -13.5 -63t-36 -52.5t-52 -35.5t-62.5 -13zM366 736q-34 0 -63.5 13t-52 35.5t-35.5 52t-13 63.5t13 64t35 52t52 35t64 13t63.5 -13t52 -35.5t35.5 -52t13 -63.5q0 -33 -13.5 -63t-36 -52.5t-52 -35.5t-62.5 -13zM366 1104
q-34 0 -63.5 13t-52 35.5t-35.5 52t-13 63.5t13 64t35 52t52 35t64 13t63.5 -13t52 -35.5t35.5 -52t13 -63.5q0 -33 -13.5 -63t-36 -52.5t-52 -35.5t-62.5 -13zM366 1476q-34 0 -64 13t-52 35t-35 52t-13 64t13 63.5t35.5 52t52 35.5t63.5 13q33 0 62.5 -13.5t52 -36t36 -52
t13.5 -62.5q0 -34 -13 -63.5t-35.5 -52t-52 -35.5t-63.5 -13zM366 1844q-34 0 -64 13t-52 35t-35 52t-13 64q0 36 12.5 65t34.5 50t52 32.5t65 11.5t65 -11.5t52 -32.5t34.5 -50t12.5 -65q0 -34 -13 -63.5t-35.5 -52t-52 -35.5t-63.5 -13zM734 736q-33 0 -63 13t-52.5 35.5
t-35.5 52.5t-13 63q0 34 13 63.5t35.5 52t52 35.5t63.5 13t64 -13t52 -35t35 -52t13 -64t-13 -63.5t-35.5 -52t-52 -35.5t-63.5 -13zM1102 736q-33 0 -63 13t-52.5 35.5t-35.5 52.5t-13 63q0 34 13 63.5t35.5 52t52 35.5t63.5 13t64 -13t52 -35t35 -52t13 -64t-13 -63.5
t-35.5 -52t-52 -35.5t-63.5 -13zM1102 1104q-33 0 -63 13t-52.5 35.5t-35.5 52.5t-13 63q0 34 13 63.5t35.5 52t52 35.5t63.5 13t64 -13t52 -35t35 -52t13 -64t-13 -63.5t-35.5 -52t-52 -35.5t-63.5 -13zM1470 368q-33 0 -63 13t-52.5 35.5t-35.5 52.5t-13 63q0 34 13 63.5
t35.5 52t52 35.5t63.5 13t64 -13t52 -35t35 -52t13 -64t-13 -63.5t-35.5 -52t-52 -35.5t-63.5 -13zM1470 1476q-34 0 -63.5 13t-52 35.5t-35.5 52t-13 63.5q0 33 13 62.5t35.5 52t52.5 36t63 13.5q34 0 63.5 -13t52 -35.5t35.5 -52t13 -63.5t-13 -64t-35 -52t-52 -35
t-64 -13zM1842 0q-34 0 -64 13t-52 35t-35 52t-13 64t13 63.5t35.5 52t52 35.5t63.5 13q36 0 65.5 -12.5t50 -35t32 -53t11.5 -65.5q0 -36 -11.5 -65.5t-32 -51t-50 -33.5t-65.5 -12zM1842 1844q-34 0 -64 13t-52 35t-35 52t-13 64q0 35 12 64.5t34 50.5t51.5 33t64.5 12
q36 0 65.5 -12t50.5 -33.5t33 -51t12 -65.5t-11.5 -65.5t-32 -51t-50 -33.5t-65.5 -12z" />
    <glyph glyph-name="l" unicode="l" 
d="M366 0q-34 0 -64 13t-52 35t-35 52t-13 64t13 63.5t35.5 52t52 35.5t63.5 13q33 0 62.5 -13.5t52 -36t36 -52t13.5 -62.5q0 -34 -13 -63.5t-35.5 -52t-52 -35.5t-63.5 -13zM366 368q-34 0 -63.5 13t-52 35.5t-35.5 52t-13 63.5t13 64t35 52t52 35t64 13t63.5 -13
t52 -35.5t35.5 -52t13 -63.5q0 -33 -13.5 -63t-36 -52.5t-52 -35.5t-62.5 -13zM366 736q-34 0 -63.5 13t-52 35.5t-35.5 52t-13 63.5t13 64t35 52t52 35t64 13t63.5 -13t52 -35.5t35.5 -52t13 -63.5q0 -33 -13.5 -63t-36 -52.5t-52 -35.5t-62.5 -13zM366 1104
q-34 0 -63.5 13t-52 35.5t-35.5 52t-13 63.5t13 64t35 52t52 35t64 13t63.5 -13t52 -35.5t35.5 -52t13 -63.5q0 -33 -13.5 -63t-36 -52.5t-52 -35.5t-62.5 -13zM366 1476q-34 0 -64 13t-52 35t-35 52t-13 64t13 63.5t35.5 52t52 35.5t63.5 13q33 0 62.5 -13.5t52 -36t36 -52
t13.5 -62.5q0 -34 -13 -63.5t-35.5 -52t-52 -35.5t-63.5 -13zM366 1844q-34 0 -64 13t-52 35t-35 52t-13 64t13 63.5t35.5 52t52 35.5t63.5 13q33 0 62.5 -13.5t52 -36t36 -52t13.5 -62.5q0 -34 -13 -63.5t-35.5 -52t-52 -35.5t-63.5 -13zM734 0q-34 0 -63.5 13t-52 35.5
t-35.5 52t-13 63.5q0 33 13 62.5t35.5 52t52.5 36t63 13.5q34 0 63.5 -13t52 -35.5t35.5 -52t13 -63.5t-13 -64t-35 -52t-52 -35t-64 -13zM1102 0q-34 0 -63.5 13t-52 35.5t-35.5 52t-13 63.5q0 33 13 62.5t35.5 52t52.5 36t63 13.5q34 0 63.5 -13t52 -35.5t35.5 -52
t13 -63.5t-13 -64t-35 -52t-52 -35t-64 -13zM1470 0q-34 0 -63.5 13t-52 35.5t-35.5 52t-13 63.5q0 33 13 62.5t35.5 52t52.5 36t63 13.5q34 0 63.5 -13t52 -35.5t35.5 -52t13 -63.5t-13 -64t-35 -52t-52 -35t-64 -13zM1842 0q-34 0 -64 13t-52 35t-35 52t-13 64t13 63.5
t35.5 52t52 35.5t63.5 13q36 0 65.5 -12.5t50 -35t32 -53t11.5 -65.5q0 -36 -11.5 -65.5t-32 -51t-50 -33.5t-65.5 -12z" />
    <glyph glyph-name="m" unicode="m" 
d="M366 0q-34 0 -64 13t-52 35t-35 52t-13 64t13 63.5t35.5 52t52 35.5t63.5 13q36 0 65 -12.5t50 -34.5t32.5 -52t11.5 -65t-11.5 -65t-32.5 -52t-50 -34.5t-65 -12.5zM366 368q-34 0 -63.5 13t-52 35.5t-35.5 52t-13 63.5t13 64t35 52t52 35t64 13q36 0 65 -12.5t50 -34.5
t32.5 -52t11.5 -65t-11.5 -65t-32.5 -52t-50 -34.5t-65 -12.5zM366 736q-34 0 -63.5 13t-52 35.5t-35.5 52t-13 63.5t13 64t35 52t52 35t64 13q36 0 65 -12.5t50 -34.5t32.5 -52t11.5 -65t-11.5 -65t-32.5 -52t-50 -34.5t-65 -12.5zM366 1104q-34 0 -63.5 13t-52 35.5
t-35.5 52t-13 63.5t13 64t35 52t52 35t64 13t63.5 -13t52 -35.5t35.5 -52t13 -63.5q0 -33 -13.5 -63t-36 -52.5t-52 -35.5t-62.5 -13zM366 1476q-34 0 -64 13t-52 35t-35 52t-13 64t13 63.5t35.5 52t52 35.5t63.5 13q33 0 62.5 -13.5t52 -36t36 -52t13.5 -62.5
q0 -34 -13 -63.5t-35.5 -52t-52 -35.5t-63.5 -13zM366 1844q-34 0 -64 13t-52 35t-35 52t-13 64q0 36 12.5 65t34.5 50t52 32.5t65 11.5t65 -11.5t52 -32.5t34.5 -50t12.5 -65q0 -34 -13 -63.5t-35.5 -52t-52 -35.5t-63.5 -13zM734 1476q-34 0 -63.5 13t-52 35.5t-35.5 52
t-13 63.5q0 33 13 62.5t35.5 52t52.5 36t63 13.5q34 0 63.5 -13t52 -35.5t35.5 -52t13 -63.5t-13 -64t-35 -52t-52 -35t-64 -13zM1102 1104q-33 0 -63 13t-52.5 35.5t-35.5 52.5t-13 63q0 34 13 63.5t35.5 52t52 35.5t63.5 13t64 -13t52 -35t35 -52t13 -64t-13 -63.5
t-35.5 -52t-52 -35.5t-63.5 -13zM1470 1476q-34 0 -63.5 13t-52 35.5t-35.5 52t-13 63.5q0 33 13 62.5t35.5 52t52.5 36t63 13.5q34 0 63.5 -13t52 -35.5t35.5 -52t13 -63.5t-13 -64t-35 -52t-52 -35t-64 -13zM1842 0q-34 0 -64 13t-52 35t-35 52t-13 64t13 63.5t35.5 52
t52 35.5t63.5 13q36 0 65.5 -12.5t50 -35t32 -53t11.5 -65.5q0 -36 -11.5 -65.5t-32 -51t-50 -33.5t-65.5 -12zM1842 368q-34 0 -63.5 13t-52 35.5t-35.5 52t-13 63.5t13 64t35 52t52 35t64 13q36 0 65 -12.5t50 -34.5t32.5 -52t11.5 -65t-11.5 -65t-32.5 -52t-50 -34.5
t-65 -12.5zM1842 736q-34 0 -63.5 13t-52 35.5t-35.5 52t-13 63.5t13 64t35 52t52 35t64 13q36 0 65 -12.5t50 -34.5t32.5 -52t11.5 -65t-11.5 -65t-32.5 -52t-50 -34.5t-65 -12.5zM1842 1104q-34 0 -63.5 13t-52 35.5t-35.5 52t-13 63.5t13 64t35 52t52 35t64 13
q36 0 65 -12.5t50 -34.5t32.5 -52t11.5 -65t-11.5 -65t-32.5 -52t-50 -34.5t-65 -12.5zM1842 1476q-34 0 -64 13t-52 35t-35 52t-13 64t13 63.5t35.5 52t52 35.5t63.5 13q36 0 65.5 -12.5t50 -35t32 -53t11.5 -65.5q0 -36 -11.5 -65.5t-32 -51t-50 -33.5t-65.5 -12z
M1842 1844q-34 0 -64 13t-52 35t-35 52t-13 64q0 35 12 64.5t34 50.5t51.5 33t64.5 12q36 0 65.5 -12t50.5 -33.5t33 -51t12 -65.5t-11.5 -65.5t-32 -51t-50 -33.5t-65.5 -12z" />
    <glyph glyph-name="n" unicode="n" 
d="M366 0q-34 0 -64 13t-52 35t-35 52t-13 64t13 63.5t35.5 52t52 35.5t63.5 13q33 0 62.5 -13.5t52 -36t36 -52t13.5 -62.5q0 -34 -13 -63.5t-35.5 -52t-52 -35.5t-63.5 -13zM366 368q-34 0 -63.5 13t-52 35.5t-35.5 52t-13 63.5t13 64t35 52t52 35t64 13t63.5 -13
t52 -35.5t35.5 -52t13 -63.5q0 -33 -13.5 -63t-36 -52.5t-52 -35.5t-62.5 -13zM366 736q-34 0 -63.5 13t-52 35.5t-35.5 52t-13 63.5t13 64t35 52t52 35t64 13t63.5 -13t52 -35.5t35.5 -52t13 -63.5q0 -33 -13.5 -63t-36 -52.5t-52 -35.5t-62.5 -13zM366 1104
q-34 0 -63.5 13t-52 35.5t-35.5 52t-13 63.5t13 64t35 52t52 35t64 13t63.5 -13t52 -35.5t35.5 -52t13 -63.5q0 -33 -13.5 -63t-36 -52.5t-52 -35.5t-62.5 -13zM366 1476q-34 0 -64 13t-52 35t-35 52t-13 64t13 63.5t35.5 52t52 35.5t63.5 13q33 0 62.5 -13.5t52 -36t36 -52
t13.5 -62.5q0 -34 -13 -63.5t-35.5 -52t-52 -35.5t-63.5 -13zM366 1844q-34 0 -64 13t-52 35t-35 52t-13 64q0 36 12.5 65t34.5 50t52 32.5t65 11.5t65 -11.5t52 -32.5t34.5 -50t12.5 -65q0 -34 -13 -63.5t-35.5 -52t-52 -35.5t-63.5 -13zM734 1476q-34 0 -63.5 13t-52 35.5
t-35.5 52t-13 63.5q0 33 13 62.5t35.5 52t52.5 36t63 13.5q34 0 63.5 -13t52 -35.5t35.5 -52t13 -63.5t-13 -64t-35 -52t-52 -35t-64 -13zM1102 1104q-33 0 -63 13t-52.5 35.5t-35.5 52.5t-13 63q0 34 13 63.5t35.5 52t52 35.5t63.5 13t64 -13t52 -35t35 -52t13 -64
t-13 -63.5t-35.5 -52t-52 -35.5t-63.5 -13zM1470 736q-33 0 -63 13t-52.5 35.5t-35.5 52.5t-13 63q0 34 13 63.5t35.5 52t52 35.5t63.5 13t64 -13t52 -35t35 -52t13 -64t-13 -63.5t-35.5 -52t-52 -35.5t-63.5 -13zM1842 0q-34 0 -64 13t-52 35t-35 52t-13 64t13 63.5
t35.5 52t52 35.5t63.5 13q36 0 65.5 -12.5t50 -35t32 -53t11.5 -65.5q0 -36 -11.5 -65.5t-32 -51t-50 -33.5t-65.5 -12zM1842 368q-34 0 -63.5 13t-52 35.5t-35.5 52t-13 63.5t13 64t35 52t52 35t64 13q36 0 65 -12.5t50 -34.5t32.5 -52t11.5 -65t-11.5 -65t-32.5 -52
t-50 -34.5t-65 -12.5zM1842 736q-34 0 -63.5 13t-52 35.5t-35.5 52t-13 63.5t13 64t35 52t52 35t64 13q36 0 65 -12.5t50 -34.5t32.5 -52t11.5 -65t-11.5 -65t-32.5 -52t-50 -34.5t-65 -12.5zM1842 1104q-34 0 -63.5 13t-52 35.5t-35.5 52t-13 63.5t13 64t35 52t52 35t64 13
q36 0 65 -12.5t50 -34.5t32.5 -52t11.5 -65t-11.5 -65t-32.5 -52t-50 -34.5t-65 -12.5zM1842 1476q-34 0 -64 13t-52 35t-35 52t-13 64t13 63.5t35.5 52t52 35.5t63.5 13q36 0 65.5 -12.5t50 -35t32 -53t11.5 -65.5q0 -36 -11.5 -65.5t-32 -51t-50 -33.5t-65.5 -12z
M1842 1844q-34 0 -64 13t-52 35t-35 52t-13 64q0 35 12 64.5t34 50.5t51.5 33t64.5 12q36 0 65.5 -12t50.5 -33.5t33 -51.5t12 -65q0 -36 -11.5 -65.5t-32 -51t-50 -33.5t-65.5 -12z" />
    <glyph glyph-name="o" unicode="o" 
d="M366 368q-34 0 -63.5 13t-52 35.5t-35.5 52t-13 63.5t13 64t35 52t52 35t64 13t63.5 -13t52 -35.5t35.5 -52t13 -63.5q0 -33 -13.5 -63t-36 -52.5t-52 -35.5t-62.5 -13zM366 736q-34 0 -63.5 13t-52 35.5t-35.5 52t-13 63.5t13 64t35 52t52 35t64 13t63.5 -13t52 -35.5
t35.5 -52t13 -63.5q0 -33 -13.5 -63t-36 -52.5t-52 -35.5t-62.5 -13zM366 1104q-34 0 -63.5 13t-52 35.5t-35.5 52t-13 63.5t13 64t35 52t52 35t64 13t63.5 -13t52 -35.5t35.5 -52t13 -63.5q0 -33 -13.5 -63t-36 -52.5t-52 -35.5t-62.5 -13zM366 1476q-34 0 -64 13t-52 35
t-35 52t-13 64t13 63.5t35.5 52t52 35.5t63.5 13q33 0 62.5 -13.5t52 -36t36 -52t13.5 -62.5q0 -34 -13 -63.5t-35.5 -52t-52 -35.5t-63.5 -13zM734 0q-34 0 -63.5 13t-52 35.5t-35.5 52t-13 63.5q0 33 13 62.5t35.5 52t52.5 36t63 13.5q34 0 63.5 -13t52 -35.5t35.5 -52
t13 -63.5t-13 -64t-35 -52t-52 -35t-64 -13zM734 1844q-34 0 -63.5 13t-52 35.5t-35.5 52t-13 63.5q0 33 13 62.5t35.5 52t52.5 36t63 13.5q34 0 63.5 -13t52 -35.5t35.5 -52t13 -63.5t-13 -64t-35 -52t-52 -35t-64 -13zM1102 0q-34 0 -63.5 13t-52 35.5t-35.5 52t-13 63.5
q0 33 13 62.5t35.5 52t52.5 36t63 13.5q34 0 63.5 -13t52 -35.5t35.5 -52t13 -63.5t-13 -64t-35 -52t-52 -35t-64 -13zM1102 1844q-34 0 -63.5 13t-52 35.5t-35.5 52t-13 63.5q0 33 13 62.5t35.5 52t52.5 36t63 13.5q34 0 63.5 -13t52 -35.5t35.5 -52t13 -63.5t-13 -64
t-35 -52t-52 -35t-64 -13zM1470 0q-34 0 -63.5 13t-52 35.5t-35.5 52t-13 63.5q0 33 13 62.5t35.5 52t52.5 36t63 13.5q34 0 63.5 -13t52 -35.5t35.5 -52t13 -63.5t-13 -64t-35 -52t-52 -35t-64 -13zM1470 1844q-34 0 -63.5 13t-52 35.5t-35.5 52t-13 63.5q0 33 13 62.5
t35.5 52t52.5 36t63 13.5q34 0 63.5 -13t52 -35.5t35.5 -52t13 -63.5t-13 -64t-35 -52t-52 -35t-64 -13zM1842 368q-34 0 -63.5 13t-52 35.5t-35.5 52t-13 63.5t13 64t35 52t52 35t64 13q36 0 65 -12.5t50 -34.5t32.5 -52t11.5 -65t-11.5 -65t-32.5 -52t-50 -34.5t-65 -12.5
zM1842 736q-34 0 -63.5 13t-52 35.5t-35.5 52t-13 63.5t13 64t35 52t52 35t64 13q36 0 65 -12.5t50 -34.5t32.5 -52t11.5 -65t-11.5 -65t-32.5 -52t-50 -34.5t-65 -12.5zM1842 1104q-34 0 -63.5 13t-52 35.5t-35.5 52t-13 63.5t13 64t35 52t52 35t64 13q36 0 65 -12.5
t50 -34.5t32.5 -52t11.5 -65t-11.5 -65t-32.5 -52t-50 -34.5t-65 -12.5zM1842 1476q-34 0 -64 13t-52 35t-35 52t-13 64t13 63.5t35.5 52t52 35.5t63.5 13q36 0 65.5 -12.5t50 -35t32 -53t11.5 -65.5q0 -36 -11.5 -65.5t-32 -51t-50 -33.5t-65.5 -12z" />
    <glyph glyph-name="p" unicode="p" 
d="M1842 1436q36 0 65 -12.5t50 -34.5t32.5 -52t11.5 -65t-11.5 -65t-32.5 -52t-50 -34.5t-65 -12.5q-34 0 -64 13t-52 35t-35 52t-13 64t13 63.5t35.5 52t52 35.5t63.5 13zM1842 1804q36 0 65 -12.5t50 -34.5t32.5 -52t11.5 -65t-11.5 -65t-32.5 -52t-50 -34.5t-65 -12.5
q-34 0 -64 13t-52 35t-35 52t-13 64t13 63.5t35.5 52t52 35.5t63.5 13zM1470 1068q34 0 63.5 -13t52 -35.5t35.5 -52t13 -63.5t-13 -64t-35 -52t-52 -35t-64 -13t-63.5 13t-52 35.5t-35.5 52t-13 63.5q0 33 13 62.5t35.5 52t52.5 36t63 13.5zM1470 2172q34 0 64 -13t52 -35
t35 -52t13 -64t-13 -63.5t-35.5 -52t-52 -35.5t-63.5 -13q-33 0 -63 13t-52.5 35.5t-35.5 52.5t-13 63q0 34 13 63.5t35.5 52t52 35.5t63.5 13zM1102 1068q34 0 63.5 -13t52 -35.5t35.5 -52t13 -63.5t-13 -64t-35 -52t-52 -35t-64 -13t-63.5 13t-52 35.5t-35.5 52t-13 63.5
q0 33 13 62.5t35.5 52t52.5 36t63 13.5zM1102 2172q34 0 64 -13t52 -35t35 -52t13 -64t-13 -63.5t-35.5 -52t-52 -35.5t-63.5 -13q-33 0 -63 13t-52.5 35.5t-35.5 52.5t-13 63q0 34 13 63.5t35.5 52t52 35.5t63.5 13zM734 1068q34 0 63.5 -13t52 -35.5t35.5 -52t13 -63.5
t-13 -64t-35 -52t-52 -35t-64 -13t-63.5 13t-52 35.5t-35.5 52t-13 63.5q0 33 13 62.5t35.5 52t52.5 36t63 13.5zM734 2172q34 0 64 -13t52 -35t35 -52t13 -64t-13 -63.5t-35.5 -52t-52 -35.5t-63.5 -13q-33 0 -63 13t-52.5 35.5t-35.5 52.5t-13 63q0 34 13 63.5t35.5 52
t52 35.5t63.5 13zM366 328q34 0 63.5 -13t52 -35.5t35.5 -52t13 -63.5q0 -33 -13.5 -63t-36 -52.5t-52 -35.5t-62.5 -13q-34 0 -63.5 13t-52 35.5t-35.5 52t-13 63.5t13 64t35 52t52 35t64 13zM366 696q34 0 63.5 -13t52 -35.5t35.5 -52t13 -63.5q0 -33 -13.5 -63t-36 -52.5
t-52 -35.5t-62.5 -13q-34 0 -63.5 13t-52 35.5t-35.5 52t-13 63.5t13 64t35 52t52 35t64 13zM366 1068q33 0 62.5 -13.5t52 -36t36 -52t13.5 -62.5q0 -34 -13 -63.5t-35.5 -52t-52 -35.5t-63.5 -13t-64 13t-52 35t-35 52t-13 64t13 63.5t35.5 52t52 35.5t63.5 13zM366 1436
q33 0 62.5 -13.5t52 -36t36 -52t13.5 -62.5q0 -34 -13 -63.5t-35.5 -52t-52 -35.5t-63.5 -13t-64 13t-52 35t-35 52t-13 64t13 63.5t35.5 52t52 35.5t63.5 13zM366 1804q33 0 62.5 -13.5t52 -36t36 -52t13.5 -62.5q0 -34 -13 -63.5t-35.5 -52t-52 -35.5t-63.5 -13t-64 13
t-52 35t-35 52t-13 64t13 63.5t35.5 52t52 35.5t63.5 13zM366 2172q34 0 63.5 -13t52 -35.5t35.5 -52t13 -63.5q0 -33 -13.5 -63t-36 -52.5t-52 -35.5t-62.5 -13q-34 0 -63.5 13t-52 35.5t-35.5 52t-13 63.5t13 64t35 52t52 35t64 13z" />
    <glyph glyph-name="q" unicode="q" 
d="M366 368q-34 0 -63.5 13t-52 35.5t-35.5 52t-13 63.5t13 64t35 52t52 35t64 13t63.5 -13t52 -35.5t35.5 -52t13 -63.5q0 -33 -13.5 -63t-36 -52.5t-52 -35.5t-62.5 -13zM366 736q-34 0 -63.5 13t-52 35.5t-35.5 52t-13 63.5t13 64t35 52t52 35t64 13t63.5 -13t52 -35.5
t35.5 -52t13 -63.5q0 -33 -13.5 -63t-36 -52.5t-52 -35.5t-62.5 -13zM366 1104q-34 0 -63.5 13t-52 35.5t-35.5 52t-13 63.5t13 64t35 52t52 35t64 13t63.5 -13t52 -35.5t35.5 -52t13 -63.5q0 -33 -13.5 -63t-36 -52.5t-52 -35.5t-62.5 -13zM366 1476q-34 0 -64 13t-52 35
t-35 52t-13 64t13 63.5t35.5 52t52 35.5t63.5 13q33 0 62.5 -13.5t52 -36t36 -52t13.5 -62.5q0 -34 -13 -63.5t-35.5 -52t-52 -35.5t-63.5 -13zM734 0q-34 0 -63.5 13t-52 35.5t-35.5 52t-13 63.5q0 33 13 62.5t35.5 52t52.5 36t63 13.5q34 0 63.5 -13t52 -35.5t35.5 -52
t13 -63.5t-13 -64t-35 -52t-52 -35t-64 -13zM734 1844q-34 0 -63.5 13t-52 35.5t-35.5 52t-13 63.5q0 36 12.5 65t34.5 50t52 32.5t65 11.5t65 -11.5t52 -32.5t34.5 -50t12.5 -65q0 -34 -13 -64t-35 -52t-52 -35t-64 -13zM1102 0q-34 0 -63.5 13t-52 35.5t-35.5 52t-13 63.5
q0 33 13 62.5t35.5 52t52.5 36t63 13.5q34 0 63.5 -13t52 -35.5t35.5 -52t13 -63.5t-13 -64t-35 -52t-52 -35t-64 -13zM1102 736q-33 0 -63 13t-52.5 35.5t-35.5 52.5t-13 63q0 34 13 63.5t35.5 52t52 35.5t63.5 13t64 -13t52 -35t35 -52t13 -64t-13 -63.5t-35.5 -52
t-52 -35.5t-63.5 -13zM1102 1844q-34 0 -63.5 13t-52 35.5t-35.5 52t-13 63.5q0 36 12.5 65t34.5 50t52 32.5t65 11.5t65 -11.5t52 -32.5t34.5 -50t12.5 -65q0 -34 -13 -64t-35 -52t-52 -35t-64 -13zM1470 368q-33 0 -63 13t-52.5 35.5t-35.5 52.5t-13 63q0 34 13 63.5
t35.5 52t52 35.5t63.5 13t64 -13t52 -35t35 -52t13 -64t-13 -63.5t-35.5 -52t-52 -35.5t-63.5 -13zM1470 1844q-34 0 -63.5 13t-52 35.5t-35.5 52t-13 63.5q0 36 12.5 65t34.5 50t52 32.5t65 11.5t65 -11.5t52 -32.5t34.5 -50t12.5 -65q0 -34 -13 -64t-35 -52t-52 -35
t-64 -13zM1842 0q-34 0 -64 13t-52 35t-35 52t-13 64t13 63.5t35.5 52t52 35.5t63.5 13q36 0 65.5 -12.5t50 -35t32 -53t11.5 -65.5q0 -36 -11.5 -65.5t-32 -51t-50 -33.5t-65.5 -12zM1842 736q-34 0 -63.5 13t-52 35.5t-35.5 52t-13 63.5t13 64t35 52t52 35t64 13
q36 0 65 -12.5t50 -34.5t32.5 -52t11.5 -65t-11.5 -65t-32.5 -52t-50 -34.5t-65 -12.5zM1842 1104q-34 0 -63.5 13t-52 35.5t-35.5 52t-13 63.5t13 64t35 52t52 35t64 13q36 0 65 -12.5t50 -34.5t32.5 -52t11.5 -65t-11.5 -65t-32.5 -52t-50 -34.5t-65 -12.5zM1842 1476
q-34 0 -64 13t-52 35t-35 52t-13 64t13 63.5t35.5 52t52 35.5t63.5 13q36 0 65.5 -12.5t50 -35t32 -53t11.5 -65.5q0 -36 -11.5 -65.5t-32 -51t-50 -33.5t-65.5 -12z" />
    <glyph glyph-name="r" unicode="r" 
d="M366 0q-34 0 -64 13t-52 35t-35 52t-13 64t13 63.5t35.5 52t52 35.5t63.5 13q33 0 62.5 -13.5t52 -36t36 -52t13.5 -62.5q0 -34 -13 -63.5t-35.5 -52t-52 -35.5t-63.5 -13zM366 368q-34 0 -63.5 13t-52 35.5t-35.5 52t-13 63.5t13 64t35 52t52 35t64 13t63.5 -13
t52 -35.5t35.5 -52t13 -63.5q0 -33 -13.5 -63t-36 -52.5t-52 -35.5t-62.5 -13zM366 736q-34 0 -63.5 13t-52 35.5t-35.5 52t-13 63.5t13 64t35 52t52 35t64 13t63.5 -13t52 -35.5t35.5 -52t13 -63.5q0 -33 -13.5 -63t-36 -52.5t-52 -35.5t-62.5 -13zM366 1104
q-34 0 -63.5 13t-52 35.5t-35.5 52t-13 63.5t13 64t35 52t52 35t64 13t63.5 -13t52 -35.5t35.5 -52t13 -63.5q0 -33 -13.5 -63t-36 -52.5t-52 -35.5t-62.5 -13zM366 1476q-34 0 -64 13t-52 35t-35 52t-13 64t13 63.5t35.5 52t52 35.5t63.5 13q33 0 62.5 -13.5t52 -36t36 -52
t13.5 -62.5q0 -34 -13 -63.5t-35.5 -52t-52 -35.5t-63.5 -13zM366 1844q-34 0 -64 13t-52 35t-35 52t-13 64q0 36 12.5 65t34.5 50t52 32.5t65 11.5t65 -11.5t52 -32.5t34.5 -50t12.5 -65q0 -34 -13 -63.5t-35.5 -52t-52 -35.5t-63.5 -13zM734 736q-33 0 -63 13t-52.5 35.5
t-35.5 52.5t-13 63q0 34 13 63.5t35.5 52t52 35.5t63.5 13t64 -13t52 -35t35 -52t13 -64t-13 -63.5t-35.5 -52t-52 -35.5t-63.5 -13zM734 1844q-34 0 -63.5 13t-52 35.5t-35.5 52t-13 63.5q0 36 12.5 65t34.5 50t52 32.5t65 11.5t65 -11.5t52 -32.5t34.5 -50t12.5 -65
q0 -34 -13 -64t-35 -52t-52 -35t-64 -13zM1102 736q-33 0 -63 13t-52.5 35.5t-35.5 52.5t-13 63q0 34 13 63.5t35.5 52t52 35.5t63.5 13t64 -13t52 -35t35 -52t13 -64t-13 -63.5t-35.5 -52t-52 -35.5t-63.5 -13zM1102 1844q-34 0 -63.5 13t-52 35.5t-35.5 52t-13 63.5
q0 36 12.5 65t34.5 50t52 32.5t65 11.5t65 -11.5t52 -32.5t34.5 -50t12.5 -65q0 -34 -13 -64t-35 -52t-52 -35t-64 -13zM1470 368q-33 0 -63 13t-52.5 35.5t-35.5 52.5t-13 63q0 34 13 63.5t35.5 52t52 35.5t63.5 13t64 -13t52 -35t35 -52t13 -64t-13 -63.5t-35.5 -52
t-52 -35.5t-63.5 -13zM1470 736q-33 0 -63 13t-52.5 35.5t-35.5 52.5t-13 63q0 34 13 63.5t35.5 52t52 35.5t63.5 13t64 -13t52 -35t35 -52t13 -64t-13 -63.5t-35.5 -52t-52 -35.5t-63.5 -13zM1470 1844q-34 0 -63.5 13t-52 35.5t-35.5 52t-13 63.5q0 36 12.5 65t34.5 50
t52 32.5t65 11.5t65 -11.5t52 -32.5t34.5 -50t12.5 -65q0 -34 -13 -64t-35 -52t-52 -35t-64 -13zM1842 0q-34 0 -64 13t-52 35t-35 52t-13 64t13 63.5t35.5 52t52 35.5t63.5 13q36 0 65.5 -12.5t50 -35t32 -53t11.5 -65.5q0 -36 -11.5 -65.5t-32 -51t-50 -33.5t-65.5 -12z
M1842 1104q-34 0 -63.5 13t-52 35.5t-35.5 52t-13 63.5t13 64t35 52t52 35t64 13q36 0 65 -12.5t50 -34.5t32.5 -52t11.5 -65t-11.5 -65t-32.5 -52t-50 -34.5t-65 -12.5zM1842 1476q-34 0 -64 13t-52 35t-35 52t-13 64t13 63.5t35.5 52t52 35.5t63.5 13q36 0 65.5 -12.5
t50 -35t32 -53t11.5 -65.5q0 -36 -11.5 -65.5t-32 -51t-50 -33.5t-65.5 -12z" />
    <glyph glyph-name="s" unicode="s" 
d="M366 368q-34 0 -63.5 13t-52 35.5t-35.5 52t-13 63.5t13 64t35 52t52 35t64 13t63.5 -13t52 -35.5t35.5 -52t13 -63.5q0 -33 -13.5 -63t-36 -52.5t-52 -35.5t-62.5 -13zM366 1476q-34 0 -64 13t-52 35t-35 52t-13 64t13 63.5t35.5 52t52 35.5t63.5 13q33 0 62.5 -13.5
t52 -36t36 -52t13.5 -62.5q0 -34 -13 -63.5t-35.5 -52t-52 -35.5t-63.5 -13zM734 0q-34 0 -63.5 13t-52 35.5t-35.5 52t-13 63.5q0 33 13 62.5t35.5 52t52.5 36t63 13.5q34 0 63.5 -13t52 -35.5t35.5 -52t13 -63.5t-13 -64t-35 -52t-52 -35t-64 -13zM734 1104q-33 0 -63 13
t-52.5 35.5t-35.5 52.5t-13 63q0 34 13 63.5t35.5 52t52 35.5t63.5 13t64 -13t52 -35t35 -52t13 -64t-13 -63.5t-35.5 -52t-52 -35.5t-63.5 -13zM734 1844q-34 0 -63.5 13t-52 35.5t-35.5 52t-13 63.5q0 36 12.5 65t34.5 50t52 32.5t65 11.5t65 -11.5t52 -32.5t34.5 -50
t12.5 -65q0 -34 -13 -64t-35 -52t-52 -35t-64 -13zM1102 0q-34 0 -63.5 13t-52 35.5t-35.5 52t-13 63.5q0 33 13 62.5t35.5 52t52.5 36t63 13.5q34 0 63.5 -13t52 -35.5t35.5 -52t13 -63.5t-13 -64t-35 -52t-52 -35t-64 -13zM1102 1104q-33 0 -63 13t-52.5 35.5t-35.5 52.5
t-13 63q0 34 13 63.5t35.5 52t52 35.5t63.5 13t64 -13t52 -35t35 -52t13 -64t-13 -63.5t-35.5 -52t-52 -35.5t-63.5 -13zM1102 1844q-34 0 -63.5 13t-52 35.5t-35.5 52t-13 63.5q0 36 12.5 65t34.5 50t52 32.5t65 11.5t65 -11.5t52 -32.5t34.5 -50t12.5 -65q0 -34 -13 -64
t-35 -52t-52 -35t-64 -13zM1470 0q-34 0 -63.5 13t-52 35.5t-35.5 52t-13 63.5q0 33 13 62.5t35.5 52t52.5 36t63 13.5q34 0 63.5 -13t52 -35.5t35.5 -52t13 -63.5t-13 -64t-35 -52t-52 -35t-64 -13zM1470 1104q-33 0 -63 13t-52.5 35.5t-35.5 52.5t-13 63q0 34 13 63.5
t35.5 52t52 35.5t63.5 13t64 -13t52 -35t35 -52t13 -64t-13 -63.5t-35.5 -52t-52 -35.5t-63.5 -13zM1470 1844q-34 0 -63.5 13t-52 35.5t-35.5 52t-13 63.5q0 36 12.5 65t34.5 50t52 32.5t65 11.5t65 -11.5t52 -32.5t34.5 -50t12.5 -65q0 -34 -13 -64t-35 -52t-52 -35
t-64 -13zM1842 368q-34 0 -63.5 13t-52 35.5t-35.5 52t-13 63.5t13 64t35 52t52 35t64 13q36 0 65 -12.5t50 -34.5t32.5 -52t11.5 -65t-11.5 -65t-32.5 -52t-50 -34.5t-65 -12.5zM1842 736q-34 0 -63.5 13t-52 35.5t-35.5 52t-13 63.5t13 64t35 52t52 35t64 13
q36 0 65 -12.5t50 -34.5t32.5 -52t11.5 -65t-11.5 -65t-32.5 -52t-50 -34.5t-65 -12.5zM1842 1844q-34 0 -64 13t-52 35t-35 52t-13 64q0 35 12 64.5t34 50.5t51.5 33t64.5 12q36 0 65.5 -12t50.5 -33.5t33 -51t12 -65.5t-11.5 -65.5t-32 -51t-50 -33.5t-65.5 -12z" />
    <glyph glyph-name="t" unicode="t" 
d="M366 1844q-34 0 -64 13t-52 35t-35 52t-13 64q0 36 12.5 65t34.5 50t52 32.5t65 11.5t65 -11.5t52 -32.5t34.5 -50t12.5 -65q0 -34 -13 -63.5t-35.5 -52t-52 -35.5t-63.5 -13zM734 1844q-34 0 -63.5 13t-52 35.5t-35.5 52t-13 63.5q0 36 12.5 65t34.5 50t52 32.5t65 11.5
t65 -11.5t52 -32.5t34.5 -50t12.5 -65q0 -34 -13 -64t-35 -52t-52 -35t-64 -13zM1102 0q-34 0 -63.5 13t-52 35.5t-35.5 52t-13 63.5q0 33 13 62.5t35.5 52t52.5 36t63 13.5q34 0 63.5 -13t52 -35.5t35.5 -52t13 -63.5t-13 -64t-35 -52t-52 -35t-64 -13zM1102 368
q-33 0 -63 13t-52.5 35.5t-35.5 52.5t-13 63q0 34 13 63.5t35.5 52t52 35.5t63.5 13t64 -13t52 -35t35 -52t13 -64t-13 -63.5t-35.5 -52t-52 -35.5t-63.5 -13zM1102 736q-33 0 -63 13t-52.5 35.5t-35.5 52.5t-13 63q0 34 13 63.5t35.5 52t52 35.5t63.5 13t64 -13t52 -35
t35 -52t13 -64t-13 -63.5t-35.5 -52t-52 -35.5t-63.5 -13zM1102 1104q-33 0 -63 13t-52.5 35.5t-35.5 52.5t-13 63q0 34 13 63.5t35.5 52t52 35.5t63.5 13t64 -13t52 -35t35 -52t13 -64t-13 -63.5t-35.5 -52t-52 -35.5t-63.5 -13zM1102 1476q-34 0 -63.5 13t-52 35.5
t-35.5 52t-13 63.5q0 33 13 62.5t35.5 52t52.5 36t63 13.5q34 0 63.5 -13t52 -35.5t35.5 -52t13 -63.5t-13 -64t-35 -52t-52 -35t-64 -13zM1102 1844q-34 0 -63.5 13t-52 35.5t-35.5 52t-13 63.5q0 36 12.5 65t34.5 50t52 32.5t65 11.5t65 -11.5t52 -32.5t34.5 -50t12.5 -65
q0 -34 -13 -64t-35 -52t-52 -35t-64 -13zM1470 1844q-34 0 -63.5 13t-52 35.5t-35.5 52t-13 63.5q0 36 12.5 65t34.5 50t52 32.5t65 11.5t65 -11.5t52 -32.5t34.5 -50t12.5 -65q0 -34 -13 -64t-35 -52t-52 -35t-64 -13zM1842 1844q-34 0 -64 13t-52 35t-35 52t-13 64
q0 35 12 64.5t34 50.5t51.5 33t64.5 12q36 0 65.5 -12t50.5 -33.5t33 -51t12 -65.5t-11.5 -65.5t-32 -51t-50 -33.5t-65.5 -12z" />
    <glyph glyph-name="u" unicode="u" 
d="M366 368q-34 0 -63.5 13t-52 35.5t-35.5 52t-13 63.5t13 64t35 52t52 35t64 13t63.5 -13t52 -35.5t35.5 -52t13 -63.5q0 -33 -13.5 -63t-36 -52.5t-52 -35.5t-62.5 -13zM366 736q-34 0 -63.5 13t-52 35.5t-35.5 52t-13 63.5t13 64t35 52t52 35t64 13t63.5 -13t52 -35.5
t35.5 -52t13 -63.5q0 -33 -13.5 -63t-36 -52.5t-52 -35.5t-62.5 -13zM366 1104q-34 0 -63.5 13t-52 35.5t-35.5 52t-13 63.5t13 64t35 52t52 35t64 13t63.5 -13t52 -35.5t35.5 -52t13 -63.5q0 -33 -13.5 -63t-36 -52.5t-52 -35.5t-62.5 -13zM366 1476q-34 0 -64 13t-52 35
t-35 52t-13 64t13 63.5t35.5 52t52 35.5t63.5 13q33 0 62.5 -13.5t52 -36t36 -52t13.5 -62.5q0 -34 -13 -63.5t-35.5 -52t-52 -35.5t-63.5 -13zM366 1844q-34 0 -64 13t-52 35t-35 52t-13 64q0 36 12.5 65t34.5 50t52 32.5t65 11.5t65 -11.5t52 -32.5t34.5 -50t12.5 -65
q0 -34 -13 -63.5t-35.5 -52t-52 -35.5t-63.5 -13zM734 0q-34 0 -63.5 13t-52 35.5t-35.5 52t-13 63.5q0 33 13 62.5t35.5 52t52.5 36t63 13.5q34 0 63.5 -13t52 -35.5t35.5 -52t13 -63.5t-13 -64t-35 -52t-52 -35t-64 -13zM1102 0q-34 0 -63.5 13t-52 35.5t-35.5 52
t-13 63.5q0 33 13 62.5t35.5 52t52.5 36t63 13.5q34 0 63.5 -13t52 -35.5t35.5 -52t13 -63.5t-13 -64t-35 -52t-52 -35t-64 -13zM1470 0q-34 0 -63.5 13t-52 35.5t-35.5 52t-13 63.5q0 33 13 62.5t35.5 52t52.5 36t63 13.5q34 0 63.5 -13t52 -35.5t35.5 -52t13 -63.5
t-13 -64t-35 -52t-52 -35t-64 -13zM1842 368q-34 0 -63.5 13t-52 35.5t-35.5 52t-13 63.5t13 64t35 52t52 35t64 13q36 0 65 -12.5t50 -34.5t32.5 -52t11.5 -65t-11.5 -65t-32.5 -52t-50 -34.5t-65 -12.5zM1842 736q-34 0 -63.5 13t-52 35.5t-35.5 52t-13 63.5t13 64t35 52
t52 35t64 13q36 0 65 -12.5t50 -34.5t32.5 -52t11.5 -65t-11.5 -65t-32.5 -52t-50 -34.5t-65 -12.5zM1842 1104q-34 0 -63.5 13t-52 35.5t-35.5 52t-13 63.5t13 64t35 52t52 35t64 13q36 0 65 -12.5t50 -34.5t32.5 -52t11.5 -65t-11.5 -65t-32.5 -52t-50 -34.5t-65 -12.5z
M1842 1476q-34 0 -64 13t-52 35t-35 52t-13 64t13 63.5t35.5 52t52 35.5t63.5 13q36 0 65.5 -12.5t50 -35t32 -53t11.5 -65.5q0 -36 -11.5 -65.5t-32 -51t-50 -33.5t-65.5 -12zM1842 1844q-34 0 -64 13t-52 35t-35 52t-13 64q0 35 12 64.5t34 50.5t51.5 33t64.5 12
q36 0 65.5 -12t50.5 -33.5t33 -51t12 -65.5t-11.5 -65.5t-32 -51t-50 -33.5t-65.5 -12z" />
    <glyph glyph-name="v" unicode="v" 
d="M366 736q-34 0 -63.5 13t-52 35.5t-35.5 52t-13 63.5t13 64t35 52t52 35t64 13t63.5 -13t52 -35.5t35.5 -52t13 -63.5q0 -33 -13.5 -63t-36 -52.5t-52 -35.5t-62.5 -13zM366 1104q-34 0 -63.5 13t-52 35.5t-35.5 52t-13 63.5t13 64t35 52t52 35t64 13t63.5 -13t52 -35.5
t35.5 -52t13 -63.5q0 -33 -13.5 -63t-36 -52.5t-52 -35.5t-62.5 -13zM366 1476q-34 0 -64 13t-52 35t-35 52t-13 64t13 63.5t35.5 52t52 35.5t63.5 13q33 0 62.5 -13.5t52 -36t36 -52t13.5 -62.5q0 -34 -13 -63.5t-35.5 -52t-52 -35.5t-63.5 -13zM366 1844q-34 0 -64 13
t-52 35t-35 52t-13 64q0 36 12.5 65t34.5 50t52 32.5t65 11.5t65 -11.5t52 -32.5t34.5 -50t12.5 -65q0 -34 -13 -63.5t-35.5 -52t-52 -35.5t-63.5 -13zM734 368q-33 0 -63 13t-52.5 35.5t-35.5 52.5t-13 63q0 34 13 63.5t35.5 52t52 35.5t63.5 13t64 -13t52 -35t35 -52
t13 -64t-13 -63.5t-35.5 -52t-52 -35.5t-63.5 -13zM1102 0q-34 0 -63.5 13t-52 35.5t-35.5 52t-13 63.5q0 33 13 62.5t35.5 52t52.5 36t63 13.5q34 0 63.5 -13t52 -35.5t35.5 -52t13 -63.5t-13 -64t-35 -52t-52 -35t-64 -13zM1470 368q-33 0 -63 13t-52.5 35.5t-35.5 52.5
t-13 63q0 34 13 63.5t35.5 52t52 35.5t63.5 13t64 -13t52 -35t35 -52t13 -64t-13 -63.5t-35.5 -52t-52 -35.5t-63.5 -13zM1842 736q-34 0 -63.5 13t-52 35.5t-35.5 52t-13 63.5t13 64t35 52t52 35t64 13q36 0 65 -12.5t50 -34.5t32.5 -52t11.5 -65t-11.5 -65t-32.5 -52
t-50 -34.5t-65 -12.5zM1842 1104q-34 0 -63.5 13t-52 35.5t-35.5 52t-13 63.5t13 64t35 52t52 35t64 13q36 0 65 -12.5t50 -34.5t32.5 -52t11.5 -65t-11.5 -65t-32.5 -52t-50 -34.5t-65 -12.5zM1842 1476q-34 0 -64 13t-52 35t-35 52t-13 64t13 63.5t35.5 52t52 35.5
t63.5 13q36 0 65.5 -12.5t50 -35t32 -53t11.5 -65.5q0 -36 -11.5 -65.5t-32 -51t-50 -33.5t-65.5 -12zM1842 1844q-34 0 -64 13t-52 35t-35 52t-13 64q0 35 12 64.5t34 50.5t51.5 33t64.5 12q36 0 65.5 -12t50.5 -33.5t33 -51t12 -65.5t-11.5 -65.5t-32 -51t-50 -33.5
t-65.5 -12z" />
    <glyph glyph-name="w" unicode="w" 
d="M1842 324q36 0 65.5 -12t50 -33.5t32 -51t11.5 -65.5t-12 -65.5t-33 -51t-50.5 -33.5t-65.5 -12q-35 0 -64.5 12t-51.5 33t-34 50.5t-12 64.5q0 34 13 64t35 52t52 35t64 13zM1842 692q36 0 65.5 -12t50 -33.5t32 -51t11.5 -65.5q0 -35 -11.5 -65.5t-32 -53t-50 -35
t-65.5 -12.5q-34 0 -63.5 13t-52 35.5t-35.5 52t-13 63.5t13 64t35 52t52 35t64 13zM1842 1064q36 0 65 -12.5t50 -34.5t32.5 -52t11.5 -65t-11.5 -65t-32.5 -52t-50 -34.5t-65 -12.5q-34 0 -64 13t-52 35t-35 52t-13 64t13 63.5t35.5 52t52 35.5t63.5 13zM1842 1432
q36 0 65 -12.5t50 -34.5t32.5 -52t11.5 -65t-11.5 -65t-32.5 -52t-50 -34.5t-65 -12.5q-34 0 -64 13t-52 35t-35 52t-13 64t13 63.5t35.5 52t52 35.5t63.5 13zM1842 1800q36 0 65 -12.5t50 -34.5t32.5 -52t11.5 -65t-11.5 -65t-32.5 -52t-50 -34.5t-65 -12.5q-34 0 -64 13
t-52 35t-35 52t-13 64t13 63.5t35.5 52t52 35.5t63.5 13zM1842 2168q36 0 65.5 -12t50 -33.5t32 -51t11.5 -65.5q0 -35 -11.5 -65.5t-32 -53t-50 -35t-65.5 -12.5q-34 0 -63.5 13t-52 35.5t-35.5 52t-13 63.5t13 64t35 52t52 35t64 13zM1470 692q34 0 64 -13t52 -35t35 -52
t13 -64t-13 -63.5t-35.5 -52t-52 -35.5t-63.5 -13q-33 0 -63 13t-52.5 35.5t-35.5 52.5t-13 63q0 34 13 63.5t35.5 52t52 35.5t63.5 13zM1102 1064q34 0 63.5 -13t52 -35.5t35.5 -52t13 -63.5t-13 -64t-35 -52t-52 -35t-64 -13t-63.5 13t-52 35.5t-35.5 52t-13 63.5
q0 33 13 62.5t35.5 52t52.5 36t63 13.5zM734 692q34 0 64 -13t52 -35t35 -52t13 -64t-13 -63.5t-35.5 -52t-52 -35.5t-63.5 -13q-33 0 -63 13t-52.5 35.5t-35.5 52.5t-13 63q0 34 13 63.5t35.5 52t52 35.5t63.5 13zM366 324q34 0 63.5 -13t52 -35.5t35.5 -52t13 -63.5
q0 -36 -12.5 -65t-34.5 -50t-52 -32.5t-65 -11.5t-65 11.5t-52 32.5t-34.5 50t-12.5 65q0 34 13 64t35 52t52 35t64 13zM366 692q34 0 63.5 -13t52 -35.5t35.5 -52t13 -63.5q0 -33 -13.5 -63t-36 -52.5t-52 -35.5t-62.5 -13q-34 0 -63.5 13t-52 35.5t-35.5 52t-13 63.5
t13 64t35 52t52 35t64 13zM366 1064q33 0 62.5 -13.5t52 -36t36 -52t13.5 -62.5q0 -34 -13 -63.5t-35.5 -52t-52 -35.5t-63.5 -13t-64 13t-52 35t-35 52t-13 64t13 63.5t35.5 52t52 35.5t63.5 13zM366 1432q36 0 65 -12.5t50 -34.5t32.5 -52t11.5 -65t-11.5 -65t-32.5 -52
t-50 -34.5t-65 -12.5q-34 0 -64 13t-52 35t-35 52t-13 64t13 63.5t35.5 52t52 35.5t63.5 13zM366 1800q36 0 65 -12.5t50 -34.5t32.5 -52t11.5 -65t-11.5 -65t-32.5 -52t-50 -34.5t-65 -12.5q-34 0 -64 13t-52 35t-35 52t-13 64t13 63.5t35.5 52t52 35.5t63.5 13zM366 2168
q36 0 65 -12.5t50 -34.5t32.5 -52t11.5 -65t-11.5 -65t-32.5 -52t-50 -34.5t-65 -12.5q-34 0 -63.5 13t-52 35.5t-35.5 52t-13 63.5t13 64t35 52t52 35t64 13z" />
    <glyph glyph-name="x" unicode="x" 
d="M366 0q-34 0 -64 13t-52 35t-35 52t-13 64t13 63.5t35.5 52t52 35.5t63.5 13q33 0 62.5 -13.5t52 -36t36 -52t13.5 -62.5q0 -34 -13 -63.5t-35.5 -52t-52 -35.5t-63.5 -13zM366 1844q-34 0 -64 13t-52 35t-35 52t-13 64q0 36 12.5 65t34.5 50t52 32.5t65 11.5t65 -11.5
t52 -32.5t34.5 -50t12.5 -65q0 -34 -13 -63.5t-35.5 -52t-52 -35.5t-63.5 -13zM734 368q-33 0 -63 13t-52.5 35.5t-35.5 52.5t-13 63q0 34 13 63.5t35.5 52t52 35.5t63.5 13t64 -13t52 -35t35 -52t13 -64t-13 -63.5t-35.5 -52t-52 -35.5t-63.5 -13zM734 1476q-34 0 -63.5 13
t-52 35.5t-35.5 52t-13 63.5q0 33 13 62.5t35.5 52t52.5 36t63 13.5q34 0 63.5 -13t52 -35.5t35.5 -52t13 -63.5t-13 -64t-35 -52t-52 -35t-64 -13zM1102 736q-33 0 -63 13t-52.5 35.5t-35.5 52.5t-13 63q0 34 13 63.5t35.5 52t52 35.5t63.5 13t64 -13t52 -35t35 -52t13 -64
t-13 -63.5t-35.5 -52t-52 -35.5t-63.5 -13zM1102 1104q-33 0 -63 13t-52.5 35.5t-35.5 52.5t-13 63q0 34 13 63.5t35.5 52t52 35.5t63.5 13t64 -13t52 -35t35 -52t13 -64t-13 -63.5t-35.5 -52t-52 -35.5t-63.5 -13zM1470 368q-33 0 -63 13t-52.5 35.5t-35.5 52.5t-13 63
q0 34 13 63.5t35.5 52t52 35.5t63.5 13t64 -13t52 -35t35 -52t13 -64t-13 -63.5t-35.5 -52t-52 -35.5t-63.5 -13zM1470 1476q-34 0 -63.5 13t-52 35.5t-35.5 52t-13 63.5q0 33 13 62.5t35.5 52t52.5 36t63 13.5q34 0 63.5 -13t52 -35.5t35.5 -52t13 -63.5t-13 -64t-35 -52
t-52 -35t-64 -13zM1842 0q-34 0 -64 13t-52 35t-35 52t-13 64t13 63.5t35.5 52t52 35.5t63.5 13q36 0 65.5 -12.5t50 -35t32 -53t11.5 -65.5q0 -36 -11.5 -65.5t-32 -51t-50 -33.5t-65.5 -12zM1842 1844q-34 0 -64 13t-52 35t-35 52t-13 64q0 35 12 64.5t34 50.5t51.5 33
t64.5 12q36 0 65.5 -12t50.5 -33.5t33 -51t12 -65.5t-11.5 -65.5t-32 -51t-50 -33.5t-65.5 -12z" />
    <glyph glyph-name="y" unicode="y" 
d="M366 1476q-34 0 -64 13t-52 35t-35 52t-13 64t13 63.5t35.5 52t52 35.5t63.5 13q33 0 62.5 -13.5t52 -36t36 -52t13.5 -62.5q0 -34 -13 -63.5t-35.5 -52t-52 -35.5t-63.5 -13zM366 1844q-34 0 -64 13t-52 35t-35 52t-13 64q0 36 12.5 65t34.5 50t52 32.5t65 11.5
t65 -11.5t52 -32.5t34.5 -50t12.5 -65q0 -34 -13 -63.5t-35.5 -52t-52 -35.5t-63.5 -13zM734 1104q-33 0 -63 13t-52.5 35.5t-35.5 52.5t-13 63q0 34 13 63.5t35.5 52t52 35.5t63.5 13t64 -13t52 -35t35 -52t13 -64t-13 -63.5t-35.5 -52t-52 -35.5t-63.5 -13zM1102 0
q-34 0 -63.5 13t-52 35.5t-35.5 52t-13 63.5q0 33 13 62.5t35.5 52t52.5 36t63 13.5q34 0 63.5 -13t52 -35.5t35.5 -52t13 -63.5t-13 -64t-35 -52t-52 -35t-64 -13zM1102 368q-33 0 -63 13t-52.5 35.5t-35.5 52.5t-13 63q0 34 13 63.5t35.5 52t52 35.5t63.5 13t64 -13
t52 -35t35 -52t13 -64t-13 -63.5t-35.5 -52t-52 -35.5t-63.5 -13zM1102 736q-33 0 -63 13t-52.5 35.5t-35.5 52.5t-13 63q0 34 13 63.5t35.5 52t52 35.5t63.5 13t64 -13t52 -35t35 -52t13 -64t-13 -63.5t-35.5 -52t-52 -35.5t-63.5 -13zM1470 1104q-33 0 -63 13t-52.5 35.5
t-35.5 52.5t-13 63q0 34 13 63.5t35.5 52t52 35.5t63.5 13t64 -13t52 -35t35 -52t13 -64t-13 -63.5t-35.5 -52t-52 -35.5t-63.5 -13zM1842 1476q-34 0 -64 13t-52 35t-35 52t-13 64t13 63.5t35.5 52t52 35.5t63.5 13q36 0 65.5 -12.5t50 -35t32 -53t11.5 -65.5
q0 -36 -11.5 -65.5t-32 -51t-50 -33.5t-65.5 -12zM1842 1844q-34 0 -64 13t-52 35t-35 52t-13 64q0 35 12 64.5t34 50.5t51.5 33t64.5 12q36 0 65.5 -12t50.5 -33.5t33 -51t12 -65.5t-11.5 -65.5t-32 -51t-50 -33.5t-65.5 -12z" />
    <glyph glyph-name="z" unicode="z" 
d="M366 0q-34 0 -64 13t-52 35t-35 52t-13 64t13 63.5t35.5 52t52 35.5t63.5 13q33 0 62.5 -13.5t52 -36t36 -52t13.5 -62.5q0 -34 -13 -63.5t-35.5 -52t-52 -35.5t-63.5 -13zM366 368q-34 0 -63.5 13t-52 35.5t-35.5 52t-13 63.5t13 64t35 52t52 35t64 13t63.5 -13
t52 -35.5t35.5 -52t13 -63.5q0 -33 -13.5 -63t-36 -52.5t-52 -35.5t-62.5 -13zM366 1844q-34 0 -64 13t-52 35t-35 52t-13 64q0 36 12.5 65t34.5 50t52 32.5t65 11.5t65 -11.5t52 -32.5t34.5 -50t12.5 -65q0 -34 -13 -63.5t-35.5 -52t-52 -35.5t-63.5 -13zM734 0
q-34 0 -63.5 13t-52 35.5t-35.5 52t-13 63.5q0 33 13 62.5t35.5 52t52.5 36t63 13.5q34 0 63.5 -13t52 -35.5t35.5 -52t13 -63.5t-13 -64t-35 -52t-52 -35t-64 -13zM734 736q-33 0 -63 13t-52.5 35.5t-35.5 52.5t-13 63q0 34 13 63.5t35.5 52t52 35.5t63.5 13t64 -13t52 -35
t35 -52t13 -64t-13 -63.5t-35.5 -52t-52 -35.5t-63.5 -13zM734 1104q-33 0 -63 13t-52.5 35.5t-35.5 52.5t-13 63q0 34 13 63.5t35.5 52t52 35.5t63.5 13t64 -13t52 -35t35 -52t13 -64t-13 -63.5t-35.5 -52t-52 -35.5t-63.5 -13zM734 1844q-34 0 -63.5 13t-52 35.5t-35.5 52
t-13 63.5q0 36 12.5 65t34.5 50t52 32.5t65 11.5t65 -11.5t52 -32.5t34.5 -50t12.5 -65q0 -34 -13 -64t-35 -52t-52 -35t-64 -13zM1102 0q-34 0 -63.5 13t-52 35.5t-35.5 52t-13 63.5q0 33 13 62.5t35.5 52t52.5 36t63 13.5q34 0 63.5 -13t52 -35.5t35.5 -52t13 -63.5
t-13 -64t-35 -52t-52 -35t-64 -13zM1102 1104q-33 0 -63 13t-52.5 35.5t-35.5 52.5t-13 63q0 34 13 63.5t35.5 52t52 35.5t63.5 13t64 -13t52 -35t35 -52t13 -64t-13 -63.5t-35.5 -52t-52 -35.5t-63.5 -13zM1102 1844q-34 0 -63.5 13t-52 35.5t-35.5 52t-13 63.5
q0 36 12.5 65t34.5 50t52 32.5t65 11.5t65 -11.5t52 -32.5t34.5 -50t12.5 -65q0 -34 -13 -64t-35 -52t-52 -35t-64 -13zM1470 0q-34 0 -63.5 13t-52 35.5t-35.5 52t-13 63.5q0 33 13 62.5t35.5 52t52.5 36t63 13.5q34 0 63.5 -13t52 -35.5t35.5 -52t13 -63.5t-13 -64
t-35 -52t-52 -35t-64 -13zM1470 1104q-33 0 -63 13t-52.5 35.5t-35.5 52.5t-13 63q0 34 13 63.5t35.5 52t52 35.5t63.5 13t64 -13t52 -35t35 -52t13 -64t-13 -63.5t-35.5 -52t-52 -35.5t-63.5 -13zM1470 1476q-34 0 -63.5 13t-52 35.5t-35.5 52t-13 63.5q0 33 13 62.5
t35.5 52t52.5 36t63 13.5q34 0 63.5 -13t52 -35.5t35.5 -52t13 -63.5t-13 -64t-35 -52t-52 -35t-64 -13zM1470 1844q-34 0 -63.5 13t-52 35.5t-35.5 52t-13 63.5q0 36 12.5 65t34.5 50t52 32.5t65 11.5t65 -11.5t52 -32.5t34.5 -50t12.5 -65q0 -34 -13 -64t-35 -52t-52 -35
t-64 -13zM1842 0q-34 0 -64 13t-52 35t-35 52t-13 64t13 63.5t35.5 52t52 35.5t63.5 13q36 0 65.5 -12.5t50 -35t32 -53t11.5 -65.5q0 -36 -11.5 -65.5t-32 -51t-50 -33.5t-65.5 -12zM1842 1844q-34 0 -64 13t-52 35t-35 52t-13 64q0 35 12 64.5t34 50.5t51.5 33t64.5 12
q36 0 65.5 -12t50.5 -33.5t33 -51t12 -65.5t-11.5 -65.5t-32 -51t-50 -33.5t-65.5 -12z" />
    <glyph glyph-name="braceleft" unicode="{" 
d="M734 368q-33 0 -63 13t-52.5 35.5t-35.5 52.5t-13 63q0 34 13 63.5t35.5 52t52 35.5t63.5 13q53 0 88.5 -24.5t53.5 -60.5t18 -79t-18 -79t-53.5 -60.5t-88.5 -24.5zM734 736q-33 0 -63 13t-52.5 35.5t-35.5 52.5t-13 63q0 34 13 63.5t35.5 52t52 35.5t63.5 13
q53 0 88.5 -24.5t53.5 -60.5t18 -79t-18 -79t-53.5 -60.5t-88.5 -24.5zM370 1104q-33 0 -63 13t-52.5 35.5t-35.5 52.5t-13 63q0 34 13 63.5t35.5 52t52 35.5t63.5 13q53 0 88.5 -24.5t53.5 -60.5t18 -79t-18 -79t-53.5 -60.5t-88.5 -24.5zM734 1476q-34 0 -63.5 13
t-52 35.5t-35.5 52t-13 63.5q0 33 13 62.5t35.5 52t52.5 36t63 13.5q53 0 88.5 -24.5t53.5 -60.5t18 -79t-18 -79t-53.5 -60.5t-88.5 -24.5zM734 1844q-34 0 -63.5 13t-52 35.5t-35.5 52t-13 63.5q0 36 12.5 65t34.5 50t52 32.5t65 11.5t65 -11.5t52 -32.5t34.5 -50
t12.5 -65q0 -34 -13 -64t-35 -52t-52 -35t-64 -13zM1102 0q-34 0 -63.5 13t-52 35.5t-35.5 52t-13 63.5q0 33 13 62.5t35.5 52t52.5 36t63 13.5q34 0 63.5 -13t52 -35.5t35.5 -52t13 -63.5t-13 -64t-35 -52t-52 -35t-64 -13zM1102 2210q-34 0 -63.5 13t-52 35.5t-35.5 52
t-13 63.5q0 36 12.5 65t34.5 50t52 32.5t65 11.5t65 -11.5t52 -32.5t34.5 -50t12.5 -65q0 -34 -13 -64t-35 -52t-52 -35t-64 -13z" />
    <glyph glyph-name="bar" unicode="|" 
d="M1102 0q-34 0 -63.5 13t-52 35.5t-35.5 52t-13 63.5q0 33 13 62.5t35.5 52t52.5 36t63 13.5q34 0 63.5 -13t52 -35.5t35.5 -52t13 -63.5t-13 -64t-35 -52t-52 -35t-64 -13zM1102 368q-36 0 -65 12.5t-50 34.5t-32.5 52t-11.5 65t11.5 65t32.5 52t50 34.5t65 12.5
q34 0 64 -13t52 -35t35 -52t13 -64t-13 -63.5t-35.5 -52t-52 -35.5t-63.5 -13zM1102 736q-36 0 -65 12.5t-50 34.5t-32.5 52t-11.5 65t11.5 65t32.5 52t50 34.5t65 12.5q34 0 64 -13t52 -35t35 -52t13 -64t-13 -63.5t-35.5 -52t-52 -35.5t-63.5 -13zM1102 1104
q-36 0 -65 12.5t-50 34.5t-32.5 52t-11.5 65t11.5 65t32.5 52t50 34.5t65 12.5q34 0 64 -13t52 -35t35 -52t13 -64t-13 -63.5t-35.5 -52t-52 -35.5t-63.5 -13zM1102 1847q-36 0 -65 12.5t-50 34.5t-32.5 52t-11.5 65t11.5 65t32.5 52t50 34.5t65 12.5q34 0 63.5 -13
t52 -35.5t35.5 -52t13 -63.5t-13 -64t-35 -52t-52 -35t-64 -13zM1102 2215q-34 0 -63.5 13t-52 35.5t-35.5 52t-13 63.5q0 36 12.5 65t34.5 50t52 32.5t65 11.5t65 -11.5t52 -32.5t34.5 -50t12.5 -65q0 -34 -13 -64t-35 -52t-52 -35t-64 -13zM1104 1476q-34 0 -63.5 13
t-52 35.5t-35.5 52t-13 63.5q0 33 13 62.5t35.5 52t52.5 36t63 13.5q34 0 63.5 -13t52 -35.5t35.5 -52t13 -63.5t-13 -64t-35 -52t-52 -35t-64 -13z" />
    <glyph glyph-name="braceright" unicode="}" 
d="M732 2203q-34 0 -64 13t-52 35t-35 52t-13 64q0 36 12.5 65t34.5 50t52 32.5t65 11.5t65 -11.5t52 -32.5t34.5 -50t12.5 -65q0 -34 -13 -63.5t-35.5 -52t-52 -35.5t-63.5 -13zM732 0q-34 0 -64 13t-52 35t-35 52t-13 64t13 63.5t35.5 52t52 35.5t63.5 13q33 0 62.5 -13.5
t52 -36t36 -52t13.5 -62.5q0 -34 -13 -63.5t-35.5 -52t-52 -35.5t-63.5 -13zM1100 1844q-34 0 -64 13t-52 35t-35 52t-13 64q0 36 12.5 65t34.5 50t52 32.5t65 11.5t65 -11.5t52 -32.5t34.5 -50t12.5 -65q0 -34 -13 -63.5t-35.5 -52t-52 -35.5t-63.5 -13zM1100 1476
q-53 0 -88.5 24.5t-53.5 60.5t-18 79t18 79t53.5 60.5t88.5 24.5q33 0 62.5 -13.5t52 -36t36 -52t13.5 -62.5q0 -34 -13 -63.5t-35.5 -52t-52 -35.5t-63.5 -13zM1464 1104q-53 0 -88.5 24.5t-53.5 60.5t-18 79t18 79t53.5 60.5t88.5 24.5q34 0 63.5 -13t52 -35.5t35.5 -52
t13 -63.5q0 -33 -13.5 -63t-36 -52.5t-52 -35.5t-62.5 -13zM1100 736q-53 0 -88.5 24.5t-53.5 60.5t-18 79t18 79t53.5 60.5t88.5 24.5q34 0 63.5 -13t52 -35.5t35.5 -52t13 -63.5q0 -33 -13.5 -63t-36 -52.5t-52 -35.5t-62.5 -13zM1100 368q-53 0 -88.5 24.5t-53.5 60.5
t-18 79t18 79t53.5 60.5t88.5 24.5q34 0 63.5 -13t52 -35.5t35.5 -52t13 -63.5q0 -33 -13.5 -63t-36 -52.5t-52 -35.5t-62.5 -13z" />
    <glyph glyph-name="exclamdown" unicode="&#xa1;" 
d="M1102 323q53 0 88.5 -24t53.5 -60t18.5 -77.5t-17 -77.5t-53.5 -60t-90 -24q-35 0 -65 11.5t-52 32.5t-34.5 50t-12.5 65q0 34 13 63.5t35.5 52t52 35.5t63.5 13zM1102 691q53 0 88.5 -24.5t53.5 -60.5t18 -79t-18 -79t-53.5 -60.5t-88.5 -24.5q-33 0 -63 13t-52.5 35.5
t-35.5 52.5t-13 63q0 34 13 63.5t35.5 52t52 35.5t63.5 13zM1102 1063q53 0 88.5 -24.5t53.5 -60.5t18 -79t-18 -79t-53.5 -60.5t-88.5 -24.5q-34 0 -63.5 13t-52 35.5t-35.5 52t-13 63.5q0 33 13 62.5t35.5 52t52.5 36t63 13.5zM1102 1431q53 0 88.5 -24.5t53.5 -60.5
t18 -79t-18 -79t-53.5 -60.5t-88.5 -24.5q-34 0 -63.5 13t-52 35.5t-35.5 52t-13 63.5q0 33 13 62.5t35.5 52t52.5 36t63 13.5zM1102 2167q53 0 88.5 -24.5t53.5 -60.5t18 -79t-18 -79t-53.5 -60.5t-88.5 -24.5q-33 0 -63 13t-52.5 35.5t-35.5 52.5t-13 63q0 34 13 63.5
t35.5 52t52 35.5t63.5 13z" />
    <glyph glyph-name="cent" unicode="&#xa2;" 
d="M366 736q-34 0 -63.5 13t-52 35.5t-35.5 52t-13 63.5t13 64t35 52t52 35t64 13t63.5 -13t52 -35.5t35.5 -52t13 -63.5q0 -33 -13.5 -63t-36 -52.5t-52 -35.5t-62.5 -13zM366 1104q-34 0 -63.5 13t-52 35.5t-35.5 52t-13 63.5t13 64t35 52t52 35t64 13t63.5 -13t52 -35.5
t35.5 -52t13 -63.5q0 -33 -13.5 -63t-36 -52.5t-52 -35.5t-62.5 -13zM366 1476q-34 0 -64 13t-52 35t-35 52t-13 64t13 63.5t35.5 52t52 35.5t63.5 13q33 0 62.5 -13.5t52 -36t36 -52t13.5 -62.5q0 -34 -13 -63.5t-35.5 -52t-52 -35.5t-63.5 -13zM734 368q-33 0 -63 13
t-52.5 35.5t-35.5 52.5t-13 63q0 34 13 63.5t35.5 52t52 35.5t63.5 13t64 -13t52 -35t35 -52t13 -64t-13 -63.5t-35.5 -52t-52 -35.5t-63.5 -13zM734 1844q-34 0 -63.5 13t-52 35.5t-35.5 52t-13 63.5q0 33 13 62.5t35.5 52t52.5 36t63 13.5q34 0 63.5 -13t52 -35.5
t35.5 -52t13 -63.5t-13 -64t-35 -52t-52 -35t-64 -13zM1102 0q-34 0 -63.5 13t-52 35.5t-35.5 52t-13 63.5q0 33 13 62.5t35.5 52t52.5 36t63 13.5q34 0 63.5 -13t52 -35.5t35.5 -52t13 -63.5t-13 -64t-35 -52t-52 -35t-64 -13zM1102 368q-33 0 -63 13t-52.5 35.5
t-35.5 52.5t-13 63q0 34 13 63.5t35.5 52t52 35.5t63.5 13t64 -13t52 -35t35 -52t13 -64t-13 -63.5t-35.5 -52t-52 -35.5t-63.5 -13zM1102 736q-33 0 -63 13t-52.5 35.5t-35.5 52.5t-13 63q0 34 13 63.5t35.5 52t52 35.5t63.5 13t64 -13t52 -35t35 -52t13 -64t-13 -63.5
t-35.5 -52t-52 -35.5t-63.5 -13zM1102 1104q-33 0 -63 13t-52.5 35.5t-35.5 52.5t-13 63q0 34 13 63.5t35.5 52t52 35.5t63.5 13t64 -13t52 -35t35 -52t13 -64t-13 -63.5t-35.5 -52t-52 -35.5t-63.5 -13zM1102 1476q-34 0 -63.5 13t-52 35.5t-35.5 52t-13 63.5q0 33 13 62.5
t35.5 52t52.5 36t63 13.5q34 0 63.5 -13t52 -35.5t35.5 -52t13 -63.5t-13 -64t-35 -52t-52 -35t-64 -13zM1102 1844q-34 0 -63.5 13t-52 35.5t-35.5 52t-13 63.5q0 33 13 62.5t35.5 52t52.5 36t63 13.5q34 0 63.5 -13t52 -35.5t35.5 -52t13 -63.5t-13 -64t-35 -52t-52 -35
t-64 -13zM1102 2212q-34 0 -63.5 13t-52 35.5t-35.5 52t-13 63.5q0 33 13 62.5t35.5 52t52.5 36t63 13.5q34 0 63.5 -13t52 -35.5t35.5 -52t13 -63.5t-13 -64t-35 -52t-52 -35t-64 -13zM1470 368q-33 0 -63 13t-52.5 35.5t-35.5 52.5t-13 63q0 34 13 63.5t35.5 52t52 35.5
t63.5 13t64 -13t52 -35t35 -52t13 -64t-13 -63.5t-35.5 -52t-52 -35.5t-63.5 -13zM1470 1844q-34 0 -63.5 13t-52 35.5t-35.5 52t-13 63.5q0 33 13 62.5t35.5 52t52.5 36t63 13.5q34 0 63.5 -13t52 -35.5t35.5 -52t13 -63.5t-13 -64t-35 -52t-52 -35t-64 -13zM1842 736
q-34 0 -63.5 13t-52 35.5t-35.5 52t-13 63.5t13 64t35 52t52 35t64 13q36 0 65 -12.5t50 -34.5t32.5 -52t11.5 -65t-11.5 -65t-32.5 -52t-50 -34.5t-65 -12.5zM1842 1476q-34 0 -64 13t-52 35t-35 52t-13 64t13 63.5t35.5 52t52 35.5t63.5 13q36 0 65.5 -12.5t50 -35t32 -53
t11.5 -65.5q0 -36 -11.5 -65.5t-32 -51t-50 -33.5t-65.5 -12z" />
    <glyph glyph-name="sterling" unicode="&#xa3;" 
d="M366 0q-34 0 -64 13t-52 35t-35 52t-13 64t13 63.5t35.5 52t52 35.5t63.5 13q33 0 62.5 -13.5t52 -36t36 -52t13.5 -62.5q0 -34 -13 -63.5t-35.5 -52t-52 -35.5t-63.5 -13zM366 736q-34 0 -63.5 13t-52 35.5t-35.5 52t-13 63.5t13 64t35 52t52 35t64 13t63.5 -13
t52 -35.5t35.5 -52t13 -63.5q0 -33 -13.5 -63t-36 -52.5t-52 -35.5t-62.5 -13zM734 0q-34 0 -63.5 13t-52 35.5t-35.5 52t-13 63.5q0 33 13 62.5t35.5 52t52.5 36t63 13.5q34 0 63.5 -13t52 -35.5t35.5 -52t13 -63.5t-13 -64t-35 -52t-52 -35t-64 -13zM734 368q-33 0 -63 13
t-52.5 35.5t-35.5 52.5t-13 63q0 34 13 63.5t35.5 52t52 35.5t63.5 13t64 -13t52 -35t35 -52t13 -64t-13 -63.5t-35.5 -52t-52 -35.5t-63.5 -13zM734 736q-33 0 -63 13t-52.5 35.5t-35.5 52.5t-13 63q0 34 13 63.5t35.5 52t52 35.5t63.5 13t64 -13t52 -35t35 -52t13 -64
t-13 -63.5t-35.5 -52t-52 -35.5t-63.5 -13zM734 1104q-33 0 -63 13t-52.5 35.5t-35.5 52.5t-13 63q0 34 13 63.5t35.5 52t52 35.5t63.5 13t64 -13t52 -35t35 -52t13 -64t-13 -63.5t-35.5 -52t-52 -35.5t-63.5 -13zM734 1476q-34 0 -63.5 13t-52 35.5t-35.5 52t-13 63.5
q0 33 13 62.5t35.5 52t52.5 36t63 13.5q34 0 63.5 -13t52 -35.5t35.5 -52t13 -63.5t-13 -64t-35 -52t-52 -35t-64 -13zM734 1844q-34 0 -63.5 13t-52 35.5t-35.5 52t-13 63.5q0 33 13 62.5t35.5 52t52.5 36t63 13.5q34 0 63.5 -13t52 -35.5t35.5 -52t13 -63.5t-13 -64
t-35 -52t-52 -35t-64 -13zM1102 0q-34 0 -63.5 13t-52 35.5t-35.5 52t-13 63.5q0 33 13 62.5t35.5 52t52.5 36t63 13.5q34 0 63.5 -13t52 -35.5t35.5 -52t13 -63.5t-13 -64t-35 -52t-52 -35t-64 -13zM1102 736q-33 0 -63 13t-52.5 35.5t-35.5 52.5t-13 63q0 34 13 63.5
t35.5 52t52 35.5t63.5 13t64 -13t52 -35t35 -52t13 -64t-13 -63.5t-35.5 -52t-52 -35.5t-63.5 -13zM1102 2212q-34 0 -63.5 13t-52 35.5t-35.5 52t-13 63.5q0 33 13 62.5t35.5 52t52.5 36t63 13.5q34 0 63.5 -13t52 -35.5t35.5 -52t13 -63.5t-13 -64t-35 -52t-52 -35
t-64 -13zM1470 0q-34 0 -63.5 13t-52 35.5t-35.5 52t-13 63.5q0 33 13 62.5t35.5 52t52.5 36t63 13.5q34 0 63.5 -13t52 -35.5t35.5 -52t13 -63.5t-13 -64t-35 -52t-52 -35t-64 -13zM1470 2212q-34 0 -63.5 13t-52 35.5t-35.5 52t-13 63.5q0 33 13 62.5t35.5 52t52.5 36
t63 13.5q34 0 63.5 -13t52 -35.5t35.5 -52t13 -63.5t-13 -64t-35 -52t-52 -35t-64 -13zM1842 368q-34 0 -63.5 13t-52 35.5t-35.5 52t-13 63.5t13 64t35 52t52 35t64 13q36 0 65 -12.5t50 -34.5t32.5 -52t11.5 -65t-11.5 -65t-32.5 -52t-50 -34.5t-65 -12.5zM1842 1844
q-34 0 -64 13t-52 35t-35 52t-13 64t13 63.5t35.5 52t52 35.5t63.5 13q36 0 65.5 -12.5t50 -35t32 -53t11.5 -65.5q0 -36 -11.5 -65.5t-32 -51t-50 -33.5t-65.5 -12z" />
    <glyph glyph-name="currency" unicode="&#xa4;" 
d="M366 0q-34 0 -64 13t-52 35t-35 52t-13 64t13 63.5t35.5 52t52 35.5t63.5 13q33 0 62.5 -13.5t52 -36t36 -52t13.5 -62.5q0 -34 -13 -63.5t-35.5 -52t-52 -35.5t-63.5 -13zM366 1476q-34 0 -64 13t-52 35t-35 52t-13 64t13 63.5t35.5 52t52 35.5t63.5 13q33 0 62.5 -13.5
t52 -36t36 -52t13.5 -62.5q0 -34 -13 -63.5t-35.5 -52t-52 -35.5t-63.5 -13zM734 368q-33 0 -63 13t-52.5 35.5t-35.5 52.5t-13 63q0 34 13 63.5t35.5 52t52 35.5t63.5 13t64 -13t52 -35t35 -52t13 -64t-13 -63.5t-35.5 -52t-52 -35.5t-63.5 -13zM734 736q-33 0 -63 13
t-52.5 35.5t-35.5 52.5t-13 63q0 34 13 63.5t35.5 52t52 35.5t63.5 13t64 -13t52 -35t35 -52t13 -64t-13 -63.5t-35.5 -52t-52 -35.5t-63.5 -13zM734 1104q-33 0 -63 13t-52.5 35.5t-35.5 52.5t-13 63q0 34 13 63.5t35.5 52t52 35.5t63.5 13t64 -13t52 -35t35 -52t13 -64
t-13 -63.5t-35.5 -52t-52 -35.5t-63.5 -13zM1102 368q-33 0 -63 13t-52.5 35.5t-35.5 52.5t-13 63q0 34 13 63.5t35.5 52t52 35.5t63.5 13t64 -13t52 -35t35 -52t13 -64t-13 -63.5t-35.5 -52t-52 -35.5t-63.5 -13zM1102 1104q-33 0 -63 13t-52.5 35.5t-35.5 52.5t-13 63
q0 34 13 63.5t35.5 52t52 35.5t63.5 13t64 -13t52 -35t35 -52t13 -64t-13 -63.5t-35.5 -52t-52 -35.5t-63.5 -13zM1470 368q-33 0 -63 13t-52.5 35.5t-35.5 52.5t-13 63q0 34 13 63.5t35.5 52t52 35.5t63.5 13t64 -13t52 -35t35 -52t13 -64t-13 -63.5t-35.5 -52t-52 -35.5
t-63.5 -13zM1470 736q-33 0 -63 13t-52.5 35.5t-35.5 52.5t-13 63q0 34 13 63.5t35.5 52t52 35.5t63.5 13t64 -13t52 -35t35 -52t13 -64t-13 -63.5t-35.5 -52t-52 -35.5t-63.5 -13zM1470 1104q-33 0 -63 13t-52.5 35.5t-35.5 52.5t-13 63q0 34 13 63.5t35.5 52t52 35.5
t63.5 13t64 -13t52 -35t35 -52t13 -64t-13 -63.5t-35.5 -52t-52 -35.5t-63.5 -13zM1842 0q-34 0 -64 13t-52 35t-35 52t-13 64t13 63.5t35.5 52t52 35.5t63.5 13q36 0 65.5 -12.5t50 -35t32 -53t11.5 -65.5q0 -36 -11.5 -65.5t-32 -51t-50 -33.5t-65.5 -12zM1842 1476
q-34 0 -64 13t-52 35t-35 52t-13 64t13 63.5t35.5 52t52 35.5t63.5 13q36 0 65.5 -12.5t50 -35t32 -53t11.5 -65.5q0 -36 -11.5 -65.5t-32 -51t-50 -33.5t-65.5 -12z" />
    <glyph glyph-name="yen" unicode="&#xa5;" 
d="M366 2212q-34 0 -64 13t-52 35t-35 52t-13 64t13 63.5t35.5 52t52 35.5t63.5 13q33 0 62.5 -13.5t52 -36t36 -52t13.5 -62.5q0 -34 -13 -63.5t-35.5 -52t-52 -35.5t-63.5 -13zM734 368q-33 0 -63 13t-52.5 35.5t-35.5 52.5t-13 63q0 34 13 63.5t35.5 52t52 35.5t63.5 13
t64 -13t52 -35t35 -52t13 -64t-13 -63.5t-35.5 -52t-52 -35.5t-63.5 -13zM734 1104q-33 0 -63 13t-52.5 35.5t-35.5 52.5t-13 63q0 34 13 63.5t35.5 52t52 35.5t63.5 13t64 -13t52 -35t35 -52t13 -64t-13 -63.5t-35.5 -52t-52 -35.5t-63.5 -13zM734 1844q-34 0 -63.5 13
t-52 35.5t-35.5 52t-13 63.5q0 33 13 62.5t35.5 52t52.5 36t63 13.5q34 0 63.5 -13t52 -35.5t35.5 -52t13 -63.5t-13 -64t-35 -52t-52 -35t-64 -13zM1102 0q-34 0 -63.5 13t-52 35.5t-35.5 52t-13 63.5q0 33 13 62.5t35.5 52t52.5 36t63 13.5q34 0 63.5 -13t52 -35.5
t35.5 -52t13 -63.5t-13 -64t-35 -52t-52 -35t-64 -13zM1102 368q-33 0 -63 13t-52.5 35.5t-35.5 52.5t-13 63q0 34 13 63.5t35.5 52t52 35.5t63.5 13t64 -13t52 -35t35 -52t13 -64t-13 -63.5t-35.5 -52t-52 -35.5t-63.5 -13zM1102 736q-33 0 -63 13t-52.5 35.5t-35.5 52.5
t-13 63q0 34 13 63.5t35.5 52t52 35.5t63.5 13t64 -13t52 -35t35 -52t13 -64t-13 -63.5t-35.5 -52t-52 -35.5t-63.5 -13zM1102 1104q-33 0 -63 13t-52.5 35.5t-35.5 52.5t-13 63q0 34 13 63.5t35.5 52t52 35.5t63.5 13t64 -13t52 -35t35 -52t13 -64t-13 -63.5t-35.5 -52
t-52 -35.5t-63.5 -13zM1102 1476q-34 0 -63.5 13t-52 35.5t-35.5 52t-13 63.5q0 33 13 62.5t35.5 52t52.5 36t63 13.5q34 0 63.5 -13t52 -35.5t35.5 -52t13 -63.5t-13 -64t-35 -52t-52 -35t-64 -13zM1470 368q-33 0 -63 13t-52.5 35.5t-35.5 52.5t-13 63q0 34 13 63.5
t35.5 52t52 35.5t63.5 13t64 -13t52 -35t35 -52t13 -64t-13 -63.5t-35.5 -52t-52 -35.5t-63.5 -13zM1470 1104q-33 0 -63 13t-52.5 35.5t-35.5 52.5t-13 63q0 34 13 63.5t35.5 52t52 35.5t63.5 13t64 -13t52 -35t35 -52t13 -64t-13 -63.5t-35.5 -52t-52 -35.5t-63.5 -13z
M1470 1844q-34 0 -63.5 13t-52 35.5t-35.5 52t-13 63.5q0 33 13 62.5t35.5 52t52.5 36t63 13.5q34 0 63.5 -13t52 -35.5t35.5 -52t13 -63.5t-13 -64t-35 -52t-52 -35t-64 -13zM1842 2212q-34 0 -64 13t-52 35t-35 52t-13 64t13 63.5t35.5 52t52 35.5t63.5 13
q36 0 65.5 -12.5t50 -35t32 -53t11.5 -65.5q0 -36 -11.5 -65.5t-32 -51t-50 -33.5t-65.5 -12z" />
    <glyph glyph-name="brokenbar" unicode="&#xa6;" 
d="M1102 0q-34 0 -63.5 13t-52 35.5t-35.5 52t-13 63.5q0 33 13 62.5t35.5 52t52.5 36t63 13.5q34 0 63.5 -13t52 -35.5t35.5 -52t13 -63.5t-13 -64t-35 -52t-52 -35t-64 -13zM1102 368q-36 0 -65 12.5t-50 34.5t-32.5 52t-11.5 65t11.5 65t32.5 52t50 34.5t65 12.5
q34 0 64 -13t52 -35t35 -52t13 -64t-13 -63.5t-35.5 -52t-52 -35.5t-63.5 -13zM1102 736q-36 0 -65 12.5t-50 34.5t-32.5 52t-11.5 65t11.5 65t32.5 52t50 34.5t65 12.5q34 0 64 -13t52 -35t35 -52t13 -64t-13 -63.5t-35.5 -52t-52 -35.5t-63.5 -13zM1102 1476
q-36 0 -65 12.5t-50 34.5t-32.5 52t-11.5 65t11.5 65t32.5 52t50 34.5t65 12.5q34 0 63.5 -13t52 -35.5t35.5 -52t13 -63.5t-13 -64t-35 -52t-52 -35t-64 -13zM1102 1844q-34 0 -63.5 13t-52 35.5t-35.5 52t-13 63.5q0 36 12.5 65t34.5 50t52 32.5t65 11.5t65 -11.5
t52 -32.5t34.5 -50t12.5 -65q0 -34 -13 -64t-35 -52t-52 -35t-64 -13zM1102 2215q-34 0 -63.5 13t-52 35.5t-35.5 52t-13 63.5q0 36 12.5 65t34.5 50t52 32.5t65 11.5t65 -11.5t52 -32.5t34.5 -50t12.5 -65q0 -34 -13 -64t-35 -52t-52 -35t-64 -13z" />
    <glyph glyph-name="section" unicode="&#xa7;" 
d="M366 0q-34 0 -64 13t-52 35t-35 52t-13 64t13 63.5t35.5 52t52 35.5t63.5 13q33 0 62.5 -13.5t52 -36t36 -52t13.5 -62.5q0 -34 -13 -63.5t-35.5 -52t-52 -35.5t-63.5 -13zM366 1104q-34 0 -63.5 13t-52 35.5t-35.5 52t-13 63.5t13 64t35 52t52 35t64 13t63.5 -13
t52 -35.5t35.5 -52t13 -63.5q0 -33 -13.5 -63t-36 -52.5t-52 -35.5t-62.5 -13zM366 1476q-34 0 -64 13t-52 35t-35 52t-13 64t13 63.5t35.5 52t52 35.5t63.5 13q33 0 62.5 -13.5t52 -36t36 -52t13.5 -62.5q0 -34 -13 -63.5t-35.5 -52t-52 -35.5t-63.5 -13zM366 1844
q-34 0 -64 13t-52 35t-35 52t-13 64t13 63.5t35.5 52t52 35.5t63.5 13q33 0 62.5 -13.5t52 -36t36 -52t13.5 -62.5q0 -34 -13 -63.5t-35.5 -52t-52 -35.5t-63.5 -13zM734 0q-34 0 -63.5 13t-52 35.5t-35.5 52t-13 63.5q0 33 13 62.5t35.5 52t52.5 36t63 13.5q34 0 63.5 -13
t52 -35.5t35.5 -52t13 -63.5t-13 -64t-35 -52t-52 -35t-64 -13zM734 736q-33 0 -63 13t-52.5 35.5t-35.5 52.5t-13 63q0 34 13 63.5t35.5 52t52 35.5t63.5 13t64 -13t52 -35t35 -52t13 -64t-13 -63.5t-35.5 -52t-52 -35.5t-63.5 -13zM734 1476q-34 0 -63.5 13t-52 35.5
t-35.5 52t-13 63.5q0 33 13 62.5t35.5 52t52.5 36t63 13.5q34 0 63.5 -13t52 -35.5t35.5 -52t13 -63.5t-13 -64t-35 -52t-52 -35t-64 -13zM734 2212q-34 0 -63.5 13t-52 35.5t-35.5 52t-13 63.5q0 33 13 62.5t35.5 52t52.5 36t63 13.5q34 0 63.5 -13t52 -35.5t35.5 -52
t13 -63.5t-13 -64t-35 -52t-52 -35t-64 -13zM1102 0q-34 0 -63.5 13t-52 35.5t-35.5 52t-13 63.5q0 33 13 62.5t35.5 52t52.5 36t63 13.5q34 0 63.5 -13t52 -35.5t35.5 -52t13 -63.5t-13 -64t-35 -52t-52 -35t-64 -13zM1102 736q-33 0 -63 13t-52.5 35.5t-35.5 52.5t-13 63
q0 34 13 63.5t35.5 52t52 35.5t63.5 13t64 -13t52 -35t35 -52t13 -64t-13 -63.5t-35.5 -52t-52 -35.5t-63.5 -13zM1102 1476q-34 0 -63.5 13t-52 35.5t-35.5 52t-13 63.5q0 33 13 62.5t35.5 52t52.5 36t63 13.5q34 0 63.5 -13t52 -35.5t35.5 -52t13 -63.5t-13 -64t-35 -52
t-52 -35t-64 -13zM1102 2212q-34 0 -63.5 13t-52 35.5t-35.5 52t-13 63.5q0 33 13 62.5t35.5 52t52.5 36t63 13.5q34 0 63.5 -13t52 -35.5t35.5 -52t13 -63.5t-13 -64t-35 -52t-52 -35t-64 -13zM1470 0q-34 0 -63.5 13t-52 35.5t-35.5 52t-13 63.5q0 33 13 62.5t35.5 52
t52.5 36t63 13.5q34 0 63.5 -13t52 -35.5t35.5 -52t13 -63.5t-13 -64t-35 -52t-52 -35t-64 -13zM1470 736q-33 0 -63 13t-52.5 35.5t-35.5 52.5t-13 63q0 34 13 63.5t35.5 52t52 35.5t63.5 13t64 -13t52 -35t35 -52t13 -64t-13 -63.5t-35.5 -52t-52 -35.5t-63.5 -13z
M1470 1476q-34 0 -63.5 13t-52 35.5t-35.5 52t-13 63.5q0 33 13 62.5t35.5 52t52.5 36t63 13.5q34 0 63.5 -13t52 -35.5t35.5 -52t13 -63.5t-13 -64t-35 -52t-52 -35t-64 -13zM1470 2212q-34 0 -63.5 13t-52 35.5t-35.5 52t-13 63.5q0 33 13 62.5t35.5 52t52.5 36t63 13.5
q34 0 63.5 -13t52 -35.5t35.5 -52t13 -63.5t-13 -64t-35 -52t-52 -35t-64 -13zM1842 368q-34 0 -63.5 13t-52 35.5t-35.5 52t-13 63.5t13 64t35 52t52 35t64 13q36 0 65 -12.5t50 -34.5t32.5 -52t11.5 -65t-11.5 -65t-32.5 -52t-50 -34.5t-65 -12.5zM1842 736
q-34 0 -63.5 13t-52 35.5t-35.5 52t-13 63.5t13 64t35 52t52 35t64 13q36 0 65 -12.5t50 -34.5t32.5 -52t11.5 -65t-11.5 -65t-32.5 -52t-50 -34.5t-65 -12.5zM1842 1104q-34 0 -63.5 13t-52 35.5t-35.5 52t-13 63.5t13 64t35 52t52 35t64 13q36 0 65 -12.5t50 -34.5
t32.5 -52t11.5 -65t-11.5 -65t-32.5 -52t-50 -34.5t-65 -12.5zM1842 2212q-34 0 -64 13t-52 35t-35 52t-13 64t13 63.5t35.5 52t52 35.5t63.5 13q36 0 65.5 -12.5t50 -35t32 -53t11.5 -65.5q0 -36 -11.5 -65.5t-32 -51t-50 -33.5t-65.5 -12z" />
    <glyph glyph-name="guillemotleft" unicode="&#xab;" 
d="M366 736q-34 0 -63.5 13t-52 35.5t-35.5 52t-13 63.5t13 64t35 52t52 35t64 13t63.5 -13t52 -35.5t35.5 -52t13 -63.5q0 -33 -13.5 -63t-36 -52.5t-52 -35.5t-62.5 -13zM734 368q-33 0 -63 13t-52.5 35.5t-35.5 52.5t-13 63q0 34 13 63.5t35.5 52t52 35.5t63.5 13t64 -13
t52 -35t35 -52t13 -64t-13 -63.5t-35.5 -52t-52 -35.5t-63.5 -13zM734 1104q-33 0 -63 13t-52.5 35.5t-35.5 52.5t-13 63q0 34 13 63.5t35.5 52t52 35.5t63.5 13t64 -13t52 -35t35 -52t13 -64t-13 -63.5t-35.5 -52t-52 -35.5t-63.5 -13zM1102 0q-34 0 -63.5 13t-52 35.5
t-35.5 52t-13 63.5q0 33 13 62.5t35.5 52t52.5 36t63 13.5q34 0 63.5 -13t52 -35.5t35.5 -52t13 -63.5t-13 -64t-35 -52t-52 -35t-64 -13zM1102 736q-33 0 -63 13t-52.5 35.5t-35.5 52.5t-13 63q0 34 13 63.5t35.5 52t52 35.5t63.5 13t64 -13t52 -35t35 -52t13 -64
t-13 -63.5t-35.5 -52t-52 -35.5t-63.5 -13zM1102 1476q-34 0 -63.5 13t-52 35.5t-35.5 52t-13 63.5q0 33 13 62.5t35.5 52t52.5 36t63 13.5q34 0 63.5 -13t52 -35.5t35.5 -52t13 -63.5t-13 -64t-35 -52t-52 -35t-64 -13zM1470 368q-33 0 -63 13t-52.5 35.5t-35.5 52.5
t-13 63q0 34 13 63.5t35.5 52t52 35.5t63.5 13t64 -13t52 -35t35 -52t13 -64t-13 -63.5t-35.5 -52t-52 -35.5t-63.5 -13zM1470 1104q-33 0 -63 13t-52.5 35.5t-35.5 52.5t-13 63q0 34 13 63.5t35.5 52t52 35.5t63.5 13t64 -13t52 -35t35 -52t13 -64t-13 -63.5t-35.5 -52
t-52 -35.5t-63.5 -13zM1842 0q-34 0 -64 13t-52 35t-35 52t-13 64t13 63.5t35.5 52t52 35.5t63.5 13q36 0 65.5 -12.5t50 -35t32 -53t11.5 -65.5q0 -36 -11.5 -65.5t-32 -51t-50 -33.5t-65.5 -12zM1842 1476q-34 0 -64 13t-52 35t-35 52t-13 64t13 63.5t35.5 52t52 35.5
t63.5 13q36 0 65.5 -12.5t50 -35t32 -53t11.5 -65.5q0 -36 -11.5 -65.5t-32 -51t-50 -33.5t-65.5 -12z" />
    <glyph glyph-name="degree" unicode="&#xb0;" 
d="M734 1476q-34 0 -63.5 13t-52 35.5t-35.5 52t-13 63.5q0 33 13 62.5t35.5 52t52.5 36t63 13.5q34 0 63.5 -13t52 -35.5t35.5 -52t13 -63.5t-13 -64t-35 -52t-52 -35t-64 -13zM734 1844q-34 0 -63.5 13t-52 35.5t-35.5 52t-13 63.5q0 33 13 62.5t35.5 52t52.5 36t63 13.5
q34 0 63.5 -13t52 -35.5t35.5 -52t13 -63.5t-13 -64t-35 -52t-52 -35t-64 -13zM734 2212q-34 0 -63.5 13t-52 35.5t-35.5 52t-13 63.5q0 33 13 62.5t35.5 52t52.5 36t63 13.5q34 0 63.5 -13t52 -35.5t35.5 -52t13 -63.5t-13 -64t-35 -52t-52 -35t-64 -13zM1102 1476
q-34 0 -63.5 13t-52 35.5t-35.5 52t-13 63.5q0 33 13 62.5t35.5 52t52.5 36t63 13.5q34 0 63.5 -13t52 -35.5t35.5 -52t13 -63.5t-13 -64t-35 -52t-52 -35t-64 -13zM1102 2212q-34 0 -63.5 13t-52 35.5t-35.5 52t-13 63.5q0 33 13 62.5t35.5 52t52.5 36t63 13.5
q34 0 63.5 -13t52 -35.5t35.5 -52t13 -63.5t-13 -64t-35 -52t-52 -35t-64 -13zM1470 1476q-34 0 -63.5 13t-52 35.5t-35.5 52t-13 63.5q0 33 13 62.5t35.5 52t52.5 36t63 13.5q34 0 63.5 -13t52 -35.5t35.5 -52t13 -63.5t-13 -64t-35 -52t-52 -35t-64 -13zM1470 1844
q-34 0 -63.5 13t-52 35.5t-35.5 52t-13 63.5q0 33 13 62.5t35.5 52t52.5 36t63 13.5q34 0 63.5 -13t52 -35.5t35.5 -52t13 -63.5t-13 -64t-35 -52t-52 -35t-64 -13zM1470 2212q-34 0 -63.5 13t-52 35.5t-35.5 52t-13 63.5q0 33 13 62.5t35.5 52t52.5 36t63 13.5
q34 0 63.5 -13t52 -35.5t35.5 -52t13 -63.5t-13 -64t-35 -52t-52 -35t-64 -13z" />
    <glyph glyph-name="plusminus" unicode="&#xb1;" 
d="M734 0q-34 0 -63.5 13t-52 35.5t-35.5 52t-13 63.5q0 33 13 62.5t35.5 52t52.5 36t63 13.5q34 0 63.5 -13t52 -35.5t35.5 -52t13 -63.5t-13 -64t-35 -52t-52 -35t-64 -13zM734 1104q-33 0 -63 13t-52.5 35.5t-35.5 52.5t-13 63q0 34 13 63.5t35.5 52t52 35.5t63.5 13
t64 -13t52 -35t35 -52t13 -64t-13 -63.5t-35.5 -52t-52 -35.5t-63.5 -13zM1102 0q-34 0 -63.5 13t-52 35.5t-35.5 52t-13 63.5q0 33 13 62.5t35.5 52t52.5 36t63 13.5q34 0 63.5 -13t52 -35.5t35.5 -52t13 -63.5t-13 -64t-35 -52t-52 -35t-64 -13zM1102 736q-33 0 -63 13
t-52.5 35.5t-35.5 52.5t-13 63q0 34 13 63.5t35.5 52t52 35.5t63.5 13t64 -13t52 -35t35 -52t13 -64t-13 -63.5t-35.5 -52t-52 -35.5t-63.5 -13zM1102 1104q-33 0 -63 13t-52.5 35.5t-35.5 52.5t-13 63q0 34 13 63.5t35.5 52t52 35.5t63.5 13t64 -13t52 -35t35 -52t13 -64
t-13 -63.5t-35.5 -52t-52 -35.5t-63.5 -13zM1102 1476q-34 0 -63.5 13t-52 35.5t-35.5 52t-13 63.5q0 33 13 62.5t35.5 52t52.5 36t63 13.5q34 0 63.5 -13t52 -35.5t35.5 -52t13 -63.5t-13 -64t-35 -52t-52 -35t-64 -13zM1470 0q-34 0 -63.5 13t-52 35.5t-35.5 52t-13 63.5
q0 33 13 62.5t35.5 52t52.5 36t63 13.5q34 0 63.5 -13t52 -35.5t35.5 -52t13 -63.5t-13 -64t-35 -52t-52 -35t-64 -13zM1470 1104q-33 0 -63 13t-52.5 35.5t-35.5 52.5t-13 63q0 34 13 63.5t35.5 52t52 35.5t63.5 13t64 -13t52 -35t35 -52t13 -64t-13 -63.5t-35.5 -52
t-52 -35.5t-63.5 -13z" />
    <glyph glyph-name="twosuperior" unicode="&#xb2;" 
d="M366 370q-34 0 -64 13t-52 35t-35 52t-13 64t13 63.5t35.5 52t52 35.5t63.5 13q33 0 62.5 -13.5t52 -36t36 -52t13.5 -62.5q0 -34 -13 -63.5t-35.5 -52t-52 -35.5t-63.5 -13zM366 1476q-34 0 -64 13t-52 35t-35 52t-13 64t13 63.5t35.5 52t52 35.5t63.5 13
q33 0 62.5 -13.5t52 -36t36 -52t13.5 -62.5q0 -34 -13 -63.5t-35.5 -52t-52 -35.5t-63.5 -13zM734 370q-34 0 -63.5 13t-52 35.5t-35.5 52t-13 63.5q0 33 13 62.5t35.5 52t52.5 36t63 13.5q34 0 63.5 -13t52 -35.5t35.5 -52t13 -63.5t-13 -64t-35 -52t-52 -35t-64 -13z
M734 738q-33 0 -63 13t-52.5 35.5t-35.5 52.5t-13 63q0 34 13 63.5t35.5 52t52 35.5t63.5 13t64 -13t52 -35t35 -52t13 -64t-13 -63.5t-35.5 -52t-52 -35.5t-63.5 -13zM734 1844q-34 0 -63.5 13t-52 35.5t-35.5 52t-13 63.5q0 36 12.5 65t34.5 50t52 32.5t65 11.5t65 -11.5
t52 -32.5t34.5 -50t12.5 -65q0 -34 -13 -64t-35 -52t-52 -35t-64 -13zM1102 370q-34 0 -63.5 13t-52 35.5t-35.5 52t-13 63.5q0 33 13 62.5t35.5 52t52.5 36t63 13.5q34 0 63.5 -13t52 -35.5t35.5 -52t13 -63.5t-13 -64t-35 -52t-52 -35t-64 -13zM1102 1106q-33 0 -63 13
t-52.5 35.5t-35.5 52.5t-13 63q0 34 13 63.5t35.5 52t52 35.5t63.5 13t64 -13t52 -35t35 -52t13 -64t-13 -63.5t-35.5 -52t-52 -35.5t-63.5 -13zM1102 1844q-34 0 -63.5 13t-52 35.5t-35.5 52t-13 63.5q0 36 12.5 65t34.5 50t52 32.5t65 11.5t65 -11.5t52 -32.5t34.5 -50
t12.5 -65q0 -34 -13 -64t-35 -52t-52 -35t-64 -13zM1470 370q-34 0 -63.5 13t-52 35.5t-35.5 52t-13 63.5q0 33 13 62.5t35.5 52t52.5 36t63 13.5q34 0 63.5 -13t52 -35.5t35.5 -52t13 -63.5t-13 -64t-35 -52t-52 -35t-64 -13zM1471 1476q-34 0 -64 13t-52 35t-35 52t-13 64
t13 63.5t35.5 52t52 35.5t63.5 13q36 0 65.5 -12.5t50 -35t32 -53t11.5 -65.5q0 -36 -11.5 -65.5t-32 -51t-50 -33.5t-65.5 -12z" />
    <glyph glyph-name="threesuperior" unicode="&#xb3;" 
d="M366 736q-34 0 -63.5 13t-52 35.5t-35.5 52t-13 63.5t13 64t35 52t52 35t64 13t63.5 -13t52 -35.5t35.5 -52t13 -63.5q0 -33 -13.5 -63t-36 -52.5t-52 -35.5t-62.5 -13zM366 1844q-34 0 -64 13t-52 35t-35 52t-13 64q0 36 12.5 65t34.5 50t52 32.5t65 11.5t65 -11.5
t52 -32.5t34.5 -50t12.5 -65q0 -34 -13 -63.5t-35.5 -52t-52 -35.5t-63.5 -13zM734 368q-34 0 -63.5 13t-52 35.5t-35.5 52t-13 63.5q0 33 13 62.5t35.5 52t52.5 36t63 13.5q34 0 63.5 -13t52 -35.5t35.5 -52t13 -63.5t-13 -64t-35 -52t-52 -35t-64 -13zM734 1844
q-34 0 -63.5 13t-52 35.5t-35.5 52t-13 63.5q0 36 12.5 65t34.5 50t52 32.5t65 11.5t65 -11.5t52 -32.5t34.5 -50t12.5 -65q0 -34 -13 -64t-35 -52t-52 -35t-64 -13zM1109 368q-34 0 -63.5 13t-52 35.5t-35.5 52t-13 63.5q0 33 13 62.5t35.5 52t52.5 36t63 13.5
q34 0 63.5 -13t52 -35.5t35.5 -52t13 -63.5t-13 -64t-35 -52t-52 -35t-64 -13zM1109 1104q-33 0 -63 13t-52.5 35.5t-35.5 52.5t-13 63q0 34 13 63.5t35.5 52t52 35.5t63.5 13t64 -13t52 -35t35 -52t13 -64t-13 -63.5t-35.5 -52t-52 -35.5t-63.5 -13zM1109 1844
q-34 0 -63.5 13t-52 35.5t-35.5 52t-13 63.5q0 36 12.5 65t34.5 50t52 32.5t65 11.5t65 -11.5t52 -32.5t34.5 -50t12.5 -65q0 -34 -13 -64t-35 -52t-52 -35t-64 -13zM1481 736q-34 0 -63.5 13t-52 35.5t-35.5 52t-13 63.5t13 64t35 52t52 35t64 13q36 0 65 -12.5t50 -34.5
t32.5 -52t11.5 -65t-11.5 -65t-32.5 -52t-50 -34.5t-65 -12.5zM1481 1476q-34 0 -64 13t-52 35t-35 52t-13 64t13 63.5t35.5 52t52 35.5t63.5 13q36 0 65.5 -12.5t50 -35t32 -53t11.5 -65.5q0 -36 -11.5 -65.5t-32 -51t-50 -33.5t-65.5 -12zM1481 1844q-34 0 -64 13t-52 35
t-35 52t-13 64q0 35 12 64.5t34 50.5t51.5 33t64.5 12q36 0 65.5 -12t50.5 -33.5t33 -51t12 -65.5t-11.5 -65.5t-32 -51t-50 -33.5t-65.5 -12z" />
    <glyph glyph-name="mu" unicode="&#xb5;" 
d="M366 -370q-34 0 -64 13t-52 35t-35 52t-13 64t13 63.5t35.5 52t52 35.5t63.5 13q33 0 62.5 -13.5t52 -36t36 -52t13.5 -62.5q0 -34 -13 -63.5t-35.5 -52t-52 -35.5t-63.5 -13zM366 368q-34 0 -63.5 13t-52 35.5t-35.5 52t-13 63.5t13 64t35 52t52 35t64 13
q53 0 88.5 -24.5t53 -60.5t17.5 -79t-17.5 -79t-53 -60.5t-88.5 -24.5zM366 736q-34 0 -63.5 13t-52 35.5t-35.5 52t-13 63.5t13 64t35 52t52 35t64 13q53 0 88.5 -24.5t53 -60.5t17.5 -79t-17.5 -79t-53 -60.5t-88.5 -24.5zM366 1104q-34 0 -63.5 13t-52 35.5t-35.5 52
t-13 63.5t13 64t35 52t52 35t64 13q53 0 88.5 -24.5t53 -60.5t17.5 -79t-17.5 -79t-53 -60.5t-88.5 -24.5zM366 1476q-34 0 -64 13t-52 35t-35 52t-13 64t13 63.5t35.5 52t52 35.5t63.5 13q53 0 88.5 -24.5t53 -60.5t17.5 -79t-17.5 -79t-53 -60.5t-88.5 -24.5zM734 0
q-34 0 -63.5 13t-52 35.5t-35.5 52t-13 63.5q0 33 13 62.5t35.5 52t52.5 36t63 13.5q34 0 63.5 -13t52 -35.5t35.5 -52t13 -63.5t-13 -64t-35 -52t-52 -35t-64 -13zM1102 0q-34 0 -63.5 13t-52 35.5t-35.5 52t-13 63.5q0 33 13 62.5t35.5 52t52.5 36t63 13.5q34 0 63.5 -13
t52 -35.5t35.5 -52t13 -63.5t-13 -64t-35 -52t-52 -35t-64 -13zM1470 368q-33 0 -63 13t-52.5 35.5t-35.5 52.5t-13 63q0 34 13 63.5t35.5 52t52 35.5t63.5 13t64 -13t52 -35t35 -52t13 -64t-13 -63.5t-35.5 -52t-52 -35.5t-63.5 -13zM1470 736q-33 0 -63 13t-52.5 35.5
t-35.5 52.5t-13 63q0 34 13 63.5t35.5 52t52 35.5t63.5 13t64 -13t52 -35t35 -52t13 -64t-13 -63.5t-35.5 -52t-52 -35.5t-63.5 -13zM1470 1104q-33 0 -63 13t-52.5 35.5t-35.5 52.5t-13 63q0 34 13 63.5t35.5 52t52 35.5t63.5 13t64 -13t52 -35t35 -52t13 -64t-13 -63.5
t-35.5 -52t-52 -35.5t-63.5 -13zM1470 1476q-34 0 -63.5 13t-52 35.5t-35.5 52t-13 63.5q0 33 13 62.5t35.5 52t52.5 36t63 13.5q34 0 63.5 -13t52 -35.5t35.5 -52t13 -63.5t-13 -64t-35 -52t-52 -35t-64 -13zM1842 0q-34 0 -64 13t-52 35t-35 52t-13 64t13 63.5t35.5 52
t52 35.5t63.5 13q36 0 65.5 -12.5t50 -35t32 -53t11.5 -65.5q0 -36 -11.5 -65.5t-32 -51t-50 -33.5t-65.5 -12zM366 0q-34 0 -64 13t-52 35t-35 52t-13 64t13 63.5t35.5 52t52 35.5t63.5 13q33 0 62.5 -13.5t52 -36t36 -52t13.5 -62.5q0 -34 -13 -63.5t-35.5 -52t-52 -35.5
t-63.5 -13z" />
    </font>
</defs>
</svg>
